<svg width="34" height="34" viewBox="0 0 34 34" fill="none" xmlns="http://www.w3.org/2000/svg">
<path d="M3.40744 15.2903C3.36069 14.9197 3.39363 14.5268 3.90257 14.5417C4.42213 14.5576 4.36476 14.9749 4.36263 15.3306C4.36157 15.4017 4.36263 15.4729 4.36263 15.6343C4.44338 16.0813 4.35094 16.4901 3.69538 16.5676C3.48288 16.5931 3.39788 16.8001 3.40213 17.0157C3.40638 17.2323 3.50201 17.4298 3.71663 17.4489C4.36582 17.5094 4.40726 17.9331 4.36476 18.4353C4.34882 18.6286 4.36582 18.8239 4.36051 19.0193C4.35201 19.3272 4.16076 19.4737 3.88132 19.4727C3.60082 19.4727 3.37982 19.3145 3.41169 19.0161C3.45526 18.5988 3.28207 18.3822 2.94951 18.138C2.13988 17.5445 2.22913 16.3191 3.08657 15.7521C3.26294 15.6343 3.44357 15.5716 3.40744 15.2903Z" fill="#F5F5F5"/>
<path d="M5.39434 18.9089C5.4039 18.2569 5.39647 17.6039 5.39647 16.952C5.39647 16.3 5.40815 15.647 5.39222 14.9961C5.38372 14.6341 5.52078 14.392 5.88522 14.392C6.21672 14.393 6.37609 14.6224 6.37503 14.9579C6.37397 16.2799 6.37503 17.6018 6.37397 18.9237C6.37397 19.2571 6.21778 19.4759 5.8714 19.4706C5.52184 19.4663 5.38903 19.2476 5.39434 18.9089Z" fill="#F5F5F5"/>
<path d="M7.45136 10.733C7.64367 10.5291 7.50342 10.3369 7.3653 10.1724C6.93286 9.6574 6.49298 9.14986 6.05948 8.63701C5.95642 8.51596 5.82892 8.40129 5.77261 8.26007C5.69292 8.06045 5.6908 7.84597 5.88417 7.6782C6.06799 7.51787 6.30492 7.46478 6.45898 7.63467C7.16873 8.41403 7.94861 9.14136 8.44692 10.0906C8.51811 10.2255 8.51598 10.3975 8.53086 10.4707C8.51811 11.5209 7.60542 12.0879 6.74267 11.6536C6.31873 11.4391 5.91605 11.1811 5.49424 10.9602C5.23074 10.8222 4.97149 10.7415 4.79086 11.1152C4.63149 11.4423 4.64636 11.6419 5.01611 11.8224C5.55374 12.0836 6.05842 12.4128 6.57798 12.7143C6.88505 12.8927 7.09755 13.1305 6.87123 13.4862C6.66936 13.8048 6.38355 13.7613 6.08605 13.585C5.37311 13.1624 4.65805 12.743 3.93342 12.3416C3.61892 12.1675 3.51055 11.9371 3.60724 11.5994C3.68055 11.3457 3.73261 11.0845 3.8293 10.8402C4.20011 9.89843 4.89711 9.60537 5.82361 10.0205C6.22524 10.2 6.59605 10.4463 6.98705 10.6491C7.12836 10.7224 7.27817 10.9167 7.45136 10.733Z" fill="#F5F5F5"/>
<path d="M4.8599 22.8683C4.50821 22.8333 4.15865 22.8004 3.81015 22.7621C3.51052 22.7292 3.37665 22.5434 3.38834 22.2567C3.40002 21.9594 3.58065 21.7948 3.86434 21.797C4.23515 21.8001 4.60702 21.8299 4.97465 21.8745C5.26152 21.9095 5.42834 21.8193 5.53884 21.5453C5.67059 21.2193 5.83952 20.9082 6.00527 20.5971C6.14765 20.3306 6.38033 20.1947 6.66508 20.337C6.96046 20.4835 7.02633 20.7437 6.88927 21.0548C6.7639 21.3383 6.42708 21.6653 6.55352 21.8883C6.6874 22.1251 7.13471 21.9743 7.4439 22.0093C7.75202 22.0433 7.95177 22.2068 7.94858 22.5147C7.94433 22.8641 7.69996 22.9968 7.37377 22.9862C7.05608 22.9766 6.73308 22.9894 6.42177 22.9363C5.72584 22.8184 5.7779 23.3992 5.6504 23.7666C5.51015 24.168 5.7864 24.8135 6.07433 24.9378C6.24008 25.0089 6.33784 24.8772 6.45152 24.8135C6.98808 24.5109 7.52146 24.2009 8.05377 23.8898C8.36083 23.7093 8.68065 23.6424 8.87933 23.9991C9.07483 24.3506 8.86233 24.581 8.54358 24.7583C7.8349 25.1522 7.1294 25.5515 6.43983 25.9773C6.08284 26.1971 5.82996 26.1185 5.55052 25.8509C4.59959 24.942 4.4519 24.3432 4.8599 22.8683Z" fill="#F5F5F5"/>
<path d="M11.3231 5.91351C11.2562 6.09826 11.2583 6.19383 11.4368 6.34672C11.8023 6.65996 11.6812 7.11441 11.2095 7.20147C10.9778 7.24394 10.9364 7.34482 10.8928 7.52214C10.8046 7.87996 10.7111 8.23673 10.6081 8.59137C10.5252 8.87699 10.3403 9.06493 10.0258 9.00122C9.68371 8.93327 9.58277 8.68162 9.65183 8.35989C9.71133 8.08595 9.78783 7.81519 9.85902 7.54337C9.93552 7.25138 10.0715 6.99973 9.72196 6.72154C9.49246 6.53997 9.58808 6.18108 9.88346 6.00907C10.386 5.71495 10.4413 5.63957 10.4986 4.91011C10.147 5.08743 9.83989 5.15326 9.65289 4.76889C9.46377 4.38346 9.72408 4.19021 10.0226 4.02351C10.3616 3.83451 10.6995 3.64445 11.0278 3.43846C11.3986 3.20592 11.66 3.32803 11.8608 3.66887C12.0765 4.032 12.2751 4.40576 12.4961 4.76571C12.6715 5.05027 12.6704 5.31996 12.3941 5.50684C12.119 5.69266 11.8565 5.61302 11.6685 5.32846C11.6419 5.28917 11.593 5.26369 11.5176 5.20104C11.4496 5.45906 11.4039 5.69266 11.3231 5.91351Z" fill="#F5F5F5"/>
<path d="M12.9509 28.1954C13.0316 28.4746 12.8701 28.6859 12.6045 28.7634C12.3888 28.8261 12.3697 28.9928 12.3017 29.151C11.9606 29.9441 11.2976 30.3912 10.5401 30.3455C9.72405 30.2956 8.96649 29.7243 8.74655 28.9906C8.51174 28.206 8.76355 27.4967 9.50093 26.9594C9.84199 26.7099 10.2234 26.5177 10.5645 26.2693C10.8429 26.0675 10.9767 25.8456 10.4976 25.7001C10.1767 25.6035 9.95887 25.4028 10.0853 25.0323C10.2256 24.6203 10.5634 24.6712 10.879 24.7615C11.4336 24.9186 11.7917 25.388 11.7949 25.6938C11.8076 26.4264 11.5569 26.797 11.1606 27.072C10.828 27.3034 10.4689 27.4967 10.1331 27.7229C9.80905 27.9426 9.55405 28.2325 9.68793 28.6519C9.81437 29.0459 10.1012 29.2933 10.5454 29.3262C11.0161 29.3612 11.2657 29.1106 11.4049 28.7018C11.4836 28.4693 11.5494 28.2325 11.6302 28C11.7216 27.7409 11.9001 27.5583 12.1859 27.623C12.5142 27.6974 12.8457 27.8322 12.9509 28.1954Z" fill="#F5F5F5"/>
<path d="M15.8632 28.7825C15.8706 29.031 16.1128 28.9747 16.2658 29.0352C16.5304 29.1393 16.6483 29.34 16.5942 29.6213C16.5368 29.9186 16.3264 30.0078 16.047 30.0015C15.5402 29.9898 15.1045 29.6659 14.9388 29.1711C14.7592 28.6339 14.9228 28.069 15.3978 27.7112C15.9227 27.3141 16.5315 27.1612 17.2242 27.1845C17.6726 27.1537 18.1263 27.2758 18.5683 27.4712C18.9115 27.623 19.175 27.8428 18.9837 28.2357C18.8052 28.6041 18.4812 28.5298 18.1613 28.3833C17.5377 28.0966 16.9023 28.0902 16.2669 28.3493C16.0661 28.4311 15.8557 28.5309 15.8632 28.7825Z" fill="#F5F5F5"/>
<path d="M15.0259 30.7617C15.1895 30.4634 15.4753 30.4549 15.7633 30.6056C16.3806 30.9284 17.0149 30.9337 17.6598 30.7118C17.8777 30.6364 18.1188 30.5387 18.1327 30.2733C18.1475 29.9983 17.8766 30.0397 17.7066 29.9749C17.4261 29.8677 17.3453 29.649 17.4165 29.3771C17.4983 29.0639 17.7406 28.9683 18.0307 29.0204C18.5555 29.1138 18.9391 29.3931 19.091 29.9282C19.2334 30.4336 19.0326 30.9964 18.5842 31.3351C18.0689 31.7237 17.4643 31.8278 16.8396 31.8639C16.3062 31.8395 15.7888 31.7556 15.3107 31.4997C14.9983 31.3319 14.8517 31.0813 15.0259 30.7617Z" fill="#F5F5F5"/>
<path d="M19.2621 3.26644C19.0188 3.53614 18.9933 3.79628 19.1357 4.13181C19.328 4.5852 19.4544 5.06513 19.4757 5.56417C19.499 6.10357 19.2844 6.52935 18.8158 6.80436C18.3866 7.05706 17.9382 7.05388 17.5058 6.8086C17.2423 6.65889 17.0553 6.44972 17.2093 6.11737C17.3464 5.82113 17.5876 5.79034 17.8766 5.87528C18.4089 6.02924 18.5917 5.85086 18.4578 5.30297C18.3908 5.03115 18.2899 4.76676 18.2113 4.49707C18.1454 4.27409 18.1082 4.07129 17.7788 4.07766C17.4675 4.08403 17.2465 4.1265 17.1105 4.44716C16.932 4.86763 16.7206 5.27537 16.5028 5.67673C16.2191 6.20019 15.792 6.21187 15.5125 5.6969C15.1948 5.10866 14.9005 4.50769 14.6105 3.90565C14.4638 3.60197 14.4692 3.29936 14.823 3.14646C15.1449 3.0063 15.3574 3.18468 15.5008 3.47137C15.6507 3.76867 15.8047 4.06385 15.9853 4.41531C16.0618 4.30913 16.1224 4.25816 16.1415 4.19552C16.4018 3.33334 16.931 2.90331 17.8638 3.1008C18.2081 3.17407 18.3228 2.89269 18.4642 2.68351C18.6798 2.36179 18.9518 2.16748 19.294 2.43293C19.6138 2.68139 19.4969 3.00736 19.2621 3.26644Z" fill="#F5F5F5"/>
<path d="M12.868 15.4039C12.9083 15.1618 12.7575 15.1384 12.6363 15.0662C12.1656 14.788 11.6896 14.5194 11.2147 14.2476C10.9236 14.0798 10.7238 13.8504 10.9066 13.5139C11.1042 13.1486 11.4123 13.1996 11.7236 13.3843C11.9818 13.5372 12.2421 13.6869 12.5025 13.8356C12.7936 14.0012 13.0805 14.2784 13.3801 14.2943C13.6648 14.3081 13.7902 13.8568 14.059 13.6965C14.3671 13.5128 14.3289 13.3291 14.1525 13.0626C13.8805 12.6517 13.6542 12.21 13.4045 11.7842C13.2196 11.4678 13.1028 11.1376 13.5023 10.9199C13.8656 10.7203 14.0888 10.9549 14.2609 11.2671C14.5074 11.7141 14.7847 12.1463 15.0185 12.6007C15.1587 12.8747 15.3117 12.9086 15.5964 12.812C16.4932 12.5073 16.4975 12.5211 16.4975 11.5262C16.4975 11.1906 16.4858 10.8541 16.5038 10.5185C16.5187 10.2287 16.6366 10.0036 16.9777 9.99293C17.3464 9.98232 17.4877 10.2117 17.4962 10.5281C17.5132 11.093 17.51 11.66 17.4994 12.2259C17.4941 12.4871 17.5185 12.6857 17.8532 12.6602C18.1932 12.6336 18.5194 13.0552 18.8264 12.7971C19.0687 12.5933 19.1824 12.2376 19.3513 11.9477C19.5107 11.6738 19.6594 11.3924 19.8273 11.1237C19.9899 10.8636 20.2289 10.7649 20.5084 10.922C20.7857 11.0781 20.8356 11.3393 20.6869 11.6058C20.2736 12.3448 19.8507 13.0785 19.4172 13.8059C19.1909 14.1839 18.8923 14.1 18.5481 13.9386C16.8991 13.1624 15.0705 13.6657 14.1153 15.1374C13.2271 16.5049 13.4279 18.3174 14.5945 19.4578C15.7771 20.6141 17.6216 20.7659 18.9699 19.8188C20.3108 18.8759 20.8059 17.1261 20.1546 15.6311C19.8039 14.8284 19.8146 14.8008 20.5785 14.3633C21.1459 14.0384 21.7122 13.7135 22.2753 13.3843C22.5877 13.2017 22.8958 13.1486 23.0934 13.5128C23.2751 13.8494 23.0764 14.0809 22.7843 14.2465C22.5388 14.3856 22.2902 14.5204 22.0469 14.6627C21.743 14.8411 21.3435 14.96 21.1682 15.2255C20.9961 15.4856 21.3584 15.8328 21.3478 16.1673C21.3382 16.4614 21.4891 16.5156 21.743 16.5092C22.2913 16.4965 22.8406 16.5028 23.3888 16.5071C23.715 16.5092 24.0051 16.5814 24.0136 16.9881C24.0231 17.4255 23.7171 17.5041 23.3708 17.5083C22.8395 17.5137 22.3083 17.52 21.7781 17.5062C21.5114 17.4988 21.3212 17.5349 21.3478 17.864C21.3764 18.2028 20.9461 18.5245 21.2139 18.8335C21.4221 19.0734 21.7759 19.1881 22.0649 19.3569C22.3401 19.5162 22.6206 19.6659 22.8894 19.8337C23.1508 19.9972 23.2422 20.2404 23.0849 20.5154C22.9277 20.7914 22.6653 20.835 22.3986 20.6895C21.8875 20.4092 21.3849 20.1151 20.8856 19.8156C20.6879 19.6978 20.5264 19.6001 20.3713 19.8772C20.2013 20.1798 19.7009 20.3062 19.7168 20.6375C19.7328 20.9518 20.0313 21.2523 20.2066 21.5591C20.3458 21.8044 20.4839 22.0497 20.6284 22.2928C20.8038 22.5848 20.8505 22.88 20.5233 23.0764C20.1663 23.2898 19.9293 23.0828 19.7519 22.7696C19.482 22.2939 19.1919 21.8299 18.9369 21.3468C18.8222 21.128 18.7064 21.1025 18.4811 21.1694C17.5047 21.4582 17.5026 21.4508 17.5026 22.5073C17.5026 22.8428 17.5153 23.1805 17.4941 23.5149C17.4749 23.8091 17.3368 24.0182 16.9979 24.0172C16.6579 24.0161 16.5166 23.8038 16.506 23.5107C16.4868 22.9458 16.4879 22.3788 16.5017 21.8129C16.5091 21.5294 16.4826 21.3276 16.1224 21.3457C15.7973 21.3627 15.4711 20.9847 15.1927 21.1939C14.9451 21.3807 14.8315 21.747 14.6636 22.0359C14.5212 22.2801 14.3831 22.5264 14.246 22.7727C14.0707 23.0881 13.8263 23.2898 13.4725 23.0754C13.1485 22.8789 13.1973 22.5837 13.3705 22.2896C13.6489 21.8192 13.9145 21.3414 14.1982 20.8743C14.3257 20.6651 14.3512 20.527 14.1164 20.3572C13.8518 20.166 13.6446 19.7371 13.395 19.7222C13.0975 19.7063 12.7808 20.0195 12.4738 20.1926C12.1826 20.3572 11.8979 20.5366 11.6004 20.6906C11.3295 20.8307 11.0713 20.7914 10.914 20.5143C10.7568 20.2382 10.8471 19.9919 11.1116 19.8337C11.5961 19.5428 12.0838 19.2582 12.5811 18.9927C12.8361 18.8558 12.9179 18.7252 12.8127 18.4204C12.5014 17.5158 12.5184 17.5105 11.5303 17.5094C11.2115 17.5094 10.8928 17.5179 10.5751 17.5073C10.2425 17.4956 9.97583 17.3894 9.98433 16.987C9.99389 16.6133 10.2489 16.5177 10.5591 16.5081C10.8598 16.4986 11.1605 16.506 11.4612 16.506H11.5675C12.6969 16.506 12.6841 16.5039 12.868 15.4039Z" fill="#F5F5F5"/>
<path d="M21.6612 5.55461C21.7281 5.65654 21.7866 5.77015 21.8216 5.88695C21.9247 6.23628 22.151 6.3552 22.4984 6.283C23.0584 6.1662 23.4154 6.39237 23.5801 6.93388C23.6619 7.20039 23.7926 7.33737 24.1177 7.27897C24.5267 7.20677 25.075 7.09846 25.1249 7.7005C25.177 8.31953 24.6043 8.22928 24.1995 8.27281C24.1113 8.28237 24.0221 8.28237 23.8425 8.29086C23.3389 8.43951 22.9829 8.18362 22.8076 7.62511C22.7131 7.32144 22.5356 7.20677 22.2116 7.29702C21.6559 7.45098 21.2978 7.2365 21.1119 6.68861C21.0269 6.44121 20.8717 6.21929 20.7655 5.9772C20.6401 5.69158 20.7198 5.4548 20.9982 5.30827C21.301 5.149 21.5018 5.31676 21.6612 5.55461Z" fill="#F5F5F5"/>
<path d="M25.4788 27.8407C25.1281 27.8885 24.9709 27.7175 24.8402 27.4351C24.7297 27.1962 24.5799 26.9753 24.4439 26.7492C24.2813 26.4784 24.1028 26.2385 24.3844 25.905C24.5533 25.7054 24.5002 25.4134 24.2484 25.2584C23.9923 25.1002 23.7384 25.1363 23.5535 25.3996C22.9266 26.2884 22.0809 26.7885 20.9886 26.8734C20.6816 26.8968 20.4946 27.0985 20.518 27.4022C20.5392 27.6708 20.7273 27.8938 21.011 27.8428C21.4285 27.7696 21.5698 28.0095 21.7154 28.309C21.8153 28.515 21.9396 28.7082 22.0607 28.9025C22.2392 29.1892 22.4081 29.443 22.1213 29.7934C21.9534 29.9972 22.0373 30.2839 22.287 30.4336C22.5548 30.595 22.7906 30.5186 22.9713 30.2627C23.5992 29.3729 24.4566 28.8834 25.5425 28.7942C25.8485 28.7698 25.958 28.5702 26.0068 28.3121C25.9569 28.0063 25.8018 27.7961 25.4788 27.8407ZM24.0285 28.0669C23.7395 28.2814 23.4324 28.4725 23.1508 28.6583C23.0626 28.6487 22.4326 27.6262 22.473 27.5997C22.7715 27.4001 23.0786 27.2121 23.3899 27.0348C23.443 27.004 24.0805 28.0276 24.0285 28.0669Z" fill="#F5F5F5"/>
<path d="M18.5034 25.9178C13.5798 26.7014 8.93882 23.4173 8.09095 18.5393C8.01338 18.0881 8.00595 17.6251 7.97088 17.1664C7.94538 16.8245 8.05907 16.5442 8.4352 16.5251C8.84851 16.5049 8.94094 16.7874 8.95794 17.1569C9.09394 19.9749 10.3031 22.2132 12.6756 23.7613C17.6343 26.9945 24.3801 23.7613 24.9804 17.881C25.4607 13.1804 21.9226 9.12332 17.2029 8.96405C13.6298 8.84406 10.2468 11.3159 9.28413 14.7508C9.25119 14.8698 9.22251 14.9898 9.18319 15.1066C9.08863 15.3954 8.89526 15.5759 8.58607 15.4899C8.26413 15.4007 8.15363 15.1543 8.23545 14.8252C8.51488 13.6986 8.98769 12.657 9.67832 11.7279C11.4963 9.28046 13.9581 8.06895 16.5654 7.97976C21.3817 7.98082 25.1855 11.179 25.9154 15.4824C26.7452 20.371 23.3527 25.1469 18.5034 25.9178Z" fill="#F5F5F5"/>
<path d="M22.2243 5.21378C22.0798 4.89311 21.9204 4.57988 21.7632 4.26453C21.6166 3.97041 21.7154 3.75486 21.9778 3.59453C22.2487 3.42783 22.4421 3.56268 22.6132 3.77079C22.6238 3.78353 22.6355 3.79946 22.6397 3.81539C22.8267 4.45565 23.2284 4.68925 23.8914 4.53847C24.1719 4.47476 24.3599 4.69774 24.4343 4.9462C24.5947 5.47923 24.9316 5.66079 25.4617 5.54293C25.5446 5.52382 25.6381 5.53232 25.7252 5.54506C25.9919 5.58434 26.129 5.7468 26.1311 6.01331C26.1332 6.27876 26.0026 6.45396 25.7359 6.489C25.3852 6.53465 25.0325 6.55908 24.6394 6.5973C24.3121 6.65358 24.0454 6.50174 23.9349 6.15665C23.766 5.62788 23.4366 5.45905 22.9054 5.5801C22.593 5.65124 22.3614 5.51533 22.2243 5.21378Z" fill="#F5F5F5"/>
<path d="M12.2071 32.8218C12.0881 33.1287 11.8458 33.2009 11.5133 33.0862C8.44158 32.035 5.87671 30.2512 3.82715 27.7411C1.30796 24.6566 0.00746007 20.9583 2.25761e-05 16.9851C-0.0127274 9.19465 5.37627 2.29402 12.97 0.499581C17.8022 -0.641853 22.3316 0.176794 26.4934 2.91305C26.5965 2.981 26.7028 3.0479 26.7963 3.12753C27.0109 3.31016 27.0821 3.53951 26.9206 3.78372C26.7453 4.04811 26.4945 4.07784 26.2225 3.93344C26.1301 3.88353 26.0483 3.81239 25.9601 3.75399C22.6143 1.54439 18.9582 0.64717 14.9696 1.15683C8.04208 2.04237 2.49265 7.28766 1.2729 14.1002C-0.12854 21.9214 4.13952 29.3094 11.6631 32.0902C11.729 32.1146 11.797 32.1348 11.8639 32.1592C12.1816 32.275 12.3293 32.5086 12.2071 32.8218Z" fill="#F5F5F5"/>
<path d="M27.2744 8.77823C27.6377 9.23587 27.6558 9.2348 27.949 8.69753C28.033 8.54357 28.085 8.36944 28.1839 8.22716C28.3294 8.01905 28.5387 7.92985 28.7831 8.05515C29.0275 8.18044 29.1571 8.3705 29.0572 8.65825C28.8936 9.13287 28.663 9.57777 28.271 9.89206C27.9682 10.1352 28.1669 10.3115 28.2763 10.51C28.391 10.7213 28.4654 10.9358 28.8267 10.7946C29.2538 10.6279 29.7298 10.6587 30.1888 10.7298C30.499 10.7787 30.6797 10.9772 30.6563 11.2692C30.6329 11.5633 30.4257 11.7353 30.1038 11.712C29.9805 11.7035 29.8573 11.6876 29.734 11.6833C29.104 11.66 29.0987 11.6706 29.2899 12.2747C29.3739 12.5391 29.3186 12.7653 29.0583 12.9086C28.7895 13.0573 28.5834 12.95 28.4187 12.7302C28.3252 12.606 28.2508 12.4669 28.1456 12.297C27.864 12.5051 27.7206 12.7748 27.6048 13.0647C27.4794 13.3737 27.285 13.6073 26.9248 13.465C26.5412 13.3132 26.5529 12.983 26.6836 12.6623C26.8525 12.2503 27.0852 11.8691 27.4316 11.5846C27.6717 11.3871 27.5729 11.2267 27.4337 11.0526C27.2999 10.8859 27.32 10.5642 26.9195 10.6873C26.4881 10.8201 26.0355 10.8997 25.5637 10.7797C25.2259 10.6927 24.9889 10.5716 25.0463 10.1904C25.1058 9.79225 25.4033 9.76252 25.7305 9.79862C26.0259 9.83154 26.3213 9.84428 26.6092 9.74341C26.6347 9.55441 26.5051 9.43442 26.4318 9.30382C26.2724 9.01714 26.3298 8.78779 26.5837 8.6179C26.8547 8.43739 27.0863 8.54145 27.2744 8.77823Z" fill="#F5F5F5"/>
<path d="M30.3758 22.6103C30.0815 22.4882 29.7702 22.3533 29.4546 22.4393C29.1444 22.5232 29.0498 22.4149 28.9287 22.1452C28.5621 21.3319 27.7174 20.9581 26.809 21.1567C26.0482 21.3234 25.415 22.1431 25.4256 22.9936C25.4936 23.7082 25.8325 24.2858 26.5349 24.6235C26.9375 24.8178 27.4497 24.6001 27.7599 24.7891C28.068 24.976 28.1488 25.5058 28.5122 25.7596C28.7831 25.9486 29.053 26.0548 29.3059 25.7585C29.5619 25.4591 29.4334 25.2085 29.1614 24.9961C28.9765 24.8528 28.8245 24.6893 28.7842 24.4451C28.6684 23.7347 29.257 23.292 30.0124 23.5425C30.3216 23.6445 30.5787 23.6381 30.7211 23.3153C30.8752 22.9639 30.6903 22.7409 30.3758 22.6103ZM27.2361 23.7931C26.7729 23.7623 26.4392 23.3854 26.452 22.9065C26.4647 22.433 26.8292 22.0826 27.2988 22.0921C27.7493 22.1006 28.1286 22.4892 28.1265 22.9416C28.1244 23.4045 27.6877 23.8239 27.2361 23.7931Z" fill="#F5F5F5"/>
<path d="M31.4022 16.6175C31.2715 16.8989 31.2492 17.0826 31.3916 17.3756C31.8559 18.3312 31.161 19.4621 30.1145 19.478C29.8287 19.5013 29.6013 19.3591 29.5588 19.0618C29.5163 18.7645 29.6937 18.5457 30.0008 18.5086C30.3599 18.465 30.5713 18.293 30.5256 17.9288C30.4778 17.5402 30.1665 17.5052 29.8457 17.5083C29.3686 17.5147 28.8915 17.5137 28.4145 17.5083C28.0585 17.5052 27.7111 17.4584 27.7207 16.9881C27.7292 16.5495 28.0596 16.5081 28.3964 16.506C28.8905 16.5039 29.3856 16.5039 29.8797 16.506C30.208 16.5071 30.5012 16.437 30.5299 16.0473C30.5543 15.7097 30.3546 15.5419 30.0188 15.5047C29.7086 15.4718 29.5248 15.2626 29.5577 14.9664C29.5949 14.6372 29.8425 14.5151 30.1729 14.5332C31.1802 14.5873 31.841 15.6725 31.4022 16.6175Z" fill="#F5F5F5"/>
<path d="M34 16.334C33.9968 24.8316 28.6312 31.6685 21.0397 33.515C18.6735 34.0905 16.285 34.152 13.8858 33.7082C13.497 33.636 13.0943 33.5638 13.1963 33.0499C13.294 32.5572 13.7105 32.657 14.058 32.7207C17.6386 33.3801 21.0768 32.9235 24.2909 31.2289C28.8766 28.8112 31.7741 25.0471 32.707 19.9271C33.7078 14.4355 32.1513 9.67121 28.27 5.66292C28.1722 5.56099 28.0575 5.46861 27.9831 5.35182C27.8322 5.11503 27.8418 4.88038 28.0681 4.68819C28.322 4.47265 28.5621 4.55016 28.7746 4.75402C29.4791 5.4272 30.1261 6.15241 30.6988 6.94027C32.8855 9.94622 33.9777 13.3111 34 16.334Z" fill="#F5F5F5"/>
<path d="M26.9206 3.78372C26.7453 4.04811 26.4945 4.07784 26.2225 3.93344C26.1301 3.88353 26.0483 3.81239 25.9601 3.75399C22.6143 1.54439 18.9582 0.64717 14.9696 1.15683C8.04208 2.04237 2.49265 7.28766 1.2729 14.1002C-0.12854 21.9214 4.13952 29.3094 11.6631 32.0902C11.729 32.1146 11.797 32.1348 11.8639 32.1592C12.1816 32.275 12.3293 32.5086 12.2071 32.8218C12.0881 33.1287 11.8458 33.2009 11.5133 33.0862C8.44158 32.035 5.87671 30.2512 3.82715 27.7411C1.30796 24.6566 0.00746007 20.9583 2.25761e-05 16.9851C-0.0127274 9.19465 5.37627 2.29402 12.97 0.499581C17.8022 -0.641853 22.3316 0.176794 26.4934 2.91305C26.5965 2.981 26.7028 3.0479 26.7963 3.12753C27.0109 3.31016 27.0821 3.53951 26.9206 3.78372Z" fill="url(#paint0_linear_4_1265)"/>
<path d="M24.0136 16.9881C24.0231 17.4255 23.7171 17.5041 23.3708 17.5083C22.8395 17.5137 22.3083 17.52 21.7781 17.5062C21.5114 17.4988 21.3212 17.5349 21.3478 17.864C21.3764 18.2028 20.9461 18.5245 21.2139 18.8335C21.4221 19.0734 21.7759 19.1881 22.0649 19.3569C22.3401 19.5162 22.6206 19.6659 22.8894 19.8337C23.1508 19.9972 23.2422 20.2404 23.0849 20.5154C22.9277 20.7914 22.6653 20.835 22.3986 20.6895C21.8875 20.4092 21.3849 20.1151 20.8856 19.8156C20.6879 19.6978 20.5264 19.6001 20.3713 19.8772C20.2013 20.1798 19.7009 20.3062 19.7168 20.6375C19.7328 20.9518 20.0313 21.2523 20.2066 21.5591C20.3458 21.8044 20.4839 22.0497 20.6284 22.2928C20.8038 22.5848 20.8505 22.88 20.5233 23.0764C20.1663 23.2898 19.9293 23.0828 19.7519 22.7696C19.482 22.2939 19.1919 21.8299 18.9369 21.3468C18.8222 21.128 18.7064 21.1025 18.4811 21.1694C17.5047 21.4582 17.5026 21.4508 17.5026 22.5073C17.5026 22.8428 17.5153 23.1805 17.4941 23.5149C17.4749 23.8091 17.3368 24.0182 16.9979 24.0172C16.6579 24.0161 16.5166 23.8038 16.506 23.5107C16.4868 22.9458 16.4879 22.3788 16.5017 21.8129C16.5091 21.5294 16.4826 21.3276 16.1224 21.3457C15.7973 21.3627 15.4711 20.9847 15.1927 21.1939C14.9451 21.3807 14.8315 21.747 14.6636 22.0359C14.5212 22.2801 14.3831 22.5264 14.246 22.7727C14.0707 23.0881 13.8263 23.2898 13.4725 23.0754C13.1485 22.8789 13.1973 22.5837 13.3705 22.2896C13.6489 21.8192 13.9145 21.3414 14.1982 20.8743C14.3257 20.6651 14.3512 20.527 14.1164 20.3572C13.8518 20.166 13.6446 19.7371 13.395 19.7222C13.0975 19.7063 12.7808 20.0195 12.4738 20.1926C12.1826 20.3572 11.8979 20.5366 11.6004 20.6906C11.3295 20.8307 11.0713 20.7914 10.914 20.5143C10.7568 20.2382 10.8471 19.9919 11.1116 19.8337C11.5961 19.5428 12.0838 19.2582 12.5811 18.9927C12.8361 18.8558 12.9179 18.7252 12.8127 18.4204C12.5014 17.5158 12.5184 17.5105 11.5303 17.5094C11.2115 17.5094 10.8928 17.5179 10.5751 17.5073C10.2425 17.4956 9.97583 17.3894 9.98433 16.987C9.99389 16.6133 10.2489 16.5177 10.5591 16.5081C10.8598 16.4986 11.1605 16.506 11.4612 16.506H11.5675C12.6969 16.506 12.6841 16.5039 12.868 15.4039C12.9083 15.1618 12.7575 15.1384 12.6363 15.0662C12.1656 14.788 11.6896 14.5194 11.2147 14.2476C10.9236 14.0798 10.7238 13.8504 10.9066 13.5139C11.1042 13.1486 11.4123 13.1996 11.7236 13.3843C11.9818 13.5372 12.2421 13.6869 12.5025 13.8356C12.7936 14.0012 13.0805 14.2784 13.3801 14.2943C13.6648 14.3081 13.7902 13.8568 14.059 13.6965C14.3671 13.5128 14.3289 13.3291 14.1525 13.0626C13.8805 12.6517 13.6542 12.21 13.4045 11.7842C13.2196 11.4678 13.1028 11.1376 13.5023 10.9199C13.8656 10.7203 14.0888 10.9549 14.2609 11.2671C14.5074 11.7141 14.7847 12.1463 15.0185 12.6007C15.1587 12.8747 15.3117 12.9086 15.5964 12.812C16.4932 12.5073 16.4975 12.5211 16.4975 11.5262C16.4975 11.1906 16.4858 10.8541 16.5038 10.5185C16.5187 10.2287 16.6366 10.0036 16.9777 9.99293C17.3464 9.98232 17.4877 10.2117 17.4962 10.5281C17.5132 11.093 17.51 11.66 17.4994 12.2259C17.4941 12.4871 17.5185 12.6857 17.8532 12.6602C18.1932 12.6336 18.5194 13.0552 18.8264 12.7971C19.0687 12.5933 19.1824 12.2376 19.3513 11.9477C19.5107 11.6738 19.6594 11.3924 19.8273 11.1237C19.9899 10.8636 20.2289 10.7649 20.5084 10.922C20.7857 11.0781 20.8356 11.3393 20.6869 11.6058C20.2736 12.3448 19.8507 13.0785 19.4172 13.8059C19.1909 14.1839 18.8923 14.1 18.5481 13.9386C16.8991 13.1624 15.0705 13.6657 14.1153 15.1374C13.2271 16.5049 13.4279 18.3174 14.5945 19.4578C15.7771 20.6141 17.6216 20.7659 18.9699 19.8188C20.3108 18.8759 20.8059 17.1261 20.1546 15.6311C19.8039 14.8284 19.8146 14.8008 20.5785 14.3633C21.1459 14.0384 21.7122 13.7135 22.2753 13.3843C22.5877 13.2017 22.8958 13.1486 23.0934 13.5128C23.2751 13.8494 23.0764 14.0809 22.7843 14.2465C22.5388 14.3856 22.2902 14.5204 22.0469 14.6627C21.743 14.8411 21.3435 14.96 21.1682 15.2255C20.9961 15.4856 21.3584 15.8328 21.3478 16.1673C21.3382 16.4614 21.4891 16.5156 21.743 16.5092C22.2913 16.4965 22.8406 16.5028 23.3888 16.5071C23.715 16.5092 24.0051 16.5814 24.0136 16.9881Z" fill="url(#paint1_linear_4_1265)"/>
<path d="M18.5034 25.9178C13.5798 26.7014 8.93882 23.4173 8.09095 18.5393C8.01338 18.0881 8.00595 17.6251 7.97088 17.1664C7.94538 16.8245 8.05907 16.5442 8.4352 16.5251C8.84851 16.5049 8.94094 16.7874 8.95794 17.1569C9.09394 19.9749 10.3031 22.2132 12.6756 23.7613C17.6343 26.9945 24.3801 23.7613 24.9804 17.881C25.4607 13.1804 21.9226 9.12332 17.2029 8.96405C13.6298 8.84406 10.2468 11.3159 9.28413 14.7508C9.25119 14.8698 9.22251 14.9898 9.18319 15.1066C9.08863 15.3954 8.89526 15.5759 8.58607 15.4899C8.26413 15.4007 8.15363 15.1543 8.23545 14.8252C8.51488 13.6986 8.98769 12.657 9.67832 11.7279C11.4963 9.28046 13.9581 8.06895 16.5654 7.97976C21.3817 7.98082 25.1855 11.179 25.9154 15.4824C26.7452 20.371 23.3527 25.1469 18.5034 25.9178Z" fill="url(#paint2_linear_4_1265)"/>
<path d="M34 16.334C33.9968 24.8316 28.6312 31.6685 21.0397 33.515C18.6735 34.0905 16.285 34.152 13.8858 33.7082C13.497 33.636 13.0943 33.5638 13.1963 33.0499C13.294 32.5572 13.7105 32.657 14.058 32.7207C17.6386 33.3801 21.0768 32.9235 24.2909 31.2289C28.8766 28.8112 31.7741 25.0471 32.707 19.9271C33.7078 14.4355 32.1513 9.67121 28.27 5.66292C28.1722 5.56099 28.0575 5.46861 27.9831 5.35182C27.8322 5.11503 27.8418 4.88038 28.0681 4.68819C28.322 4.47265 28.5621 4.55016 28.7746 4.75402C29.4791 5.4272 30.1261 6.15241 30.6988 6.94027C32.8855 9.94622 33.9777 13.3111 34 16.334Z" fill="url(#paint3_linear_4_1265)"/>
<path d="M8.53086 10.4707C8.51811 11.5209 7.60542 12.0879 6.74267 11.6536C6.31873 11.4391 5.91605 11.1811 5.49424 10.9602C5.23074 10.8222 4.97149 10.7415 4.79086 11.1152C4.63149 11.4423 4.64636 11.6419 5.01611 11.8224C5.55374 12.0836 6.05842 12.4128 6.57798 12.7143C6.88505 12.8927 7.09755 13.1305 6.87123 13.4862C6.66936 13.8048 6.38355 13.7613 6.08605 13.585C5.37311 13.1624 4.65805 12.743 3.93342 12.3416C3.61892 12.1675 3.51055 11.9371 3.60724 11.5994C3.68055 11.3457 3.73261 11.0845 3.8293 10.8402C4.20011 9.89843 4.89711 9.60537 5.82361 10.0205C6.22524 10.2 6.59605 10.4463 6.98705 10.6491C7.12836 10.7224 7.27817 10.9167 7.45136 10.733C7.64367 10.5291 7.50342 10.3369 7.3653 10.1724C6.93286 9.6574 6.49298 9.14986 6.05948 8.63701C5.95642 8.51596 5.82892 8.40129 5.77261 8.26007C5.69292 8.06045 5.6908 7.84597 5.88417 7.6782C6.06799 7.51787 6.30492 7.46478 6.45898 7.63467C7.16873 8.41403 7.94861 9.14136 8.44692 10.0906C8.51811 10.2255 8.51598 10.3975 8.53086 10.4707Z" fill="url(#paint4_linear_4_1265)"/>
<path d="M8.54358 24.7583C7.8349 25.1522 7.1294 25.5515 6.43983 25.9773C6.08284 26.1971 5.82996 26.1185 5.55052 25.8509C4.59959 24.942 4.4519 24.3432 4.8599 22.8683C4.50821 22.8333 4.15865 22.8004 3.81015 22.7621C3.51052 22.7292 3.37665 22.5434 3.38834 22.2567C3.40002 21.9594 3.58065 21.7948 3.86434 21.797C4.23515 21.8001 4.60702 21.8299 4.97465 21.8745C5.26152 21.9095 5.42834 21.8193 5.53884 21.5453C5.67059 21.2193 5.83952 20.9082 6.00527 20.5971C6.14765 20.3306 6.38033 20.1947 6.66508 20.337C6.96046 20.4835 7.02633 20.7437 6.88927 21.0548C6.7639 21.3383 6.42708 21.6653 6.55352 21.8883C6.6874 22.1251 7.13471 21.9743 7.4439 22.0093C7.75202 22.0433 7.95177 22.2068 7.94858 22.5147C7.94433 22.8641 7.69996 22.9968 7.37377 22.9862C7.05608 22.9766 6.73308 22.9894 6.42177 22.9363C5.72584 22.8184 5.7779 23.3992 5.6504 23.7666C5.51015 24.168 5.7864 24.8135 6.07433 24.9378C6.24008 25.0089 6.33784 24.8772 6.45152 24.8135C6.98808 24.5109 7.52146 24.2009 8.05377 23.8898C8.36083 23.7093 8.68065 23.6424 8.87933 23.9991C9.07483 24.3506 8.86233 24.581 8.54358 24.7583Z" fill="url(#paint5_linear_4_1265)"/>
<path d="M30.6563 11.2692C30.6329 11.5633 30.4257 11.7353 30.1038 11.712C29.9805 11.7035 29.8573 11.6876 29.734 11.6833C29.104 11.66 29.0987 11.6706 29.2899 12.2747C29.3739 12.5391 29.3186 12.7653 29.0583 12.9086C28.7895 13.0573 28.5834 12.95 28.4187 12.7302C28.3252 12.606 28.2508 12.4669 28.1456 12.297C27.864 12.5051 27.7206 12.7748 27.6048 13.0647C27.4794 13.3737 27.285 13.6073 26.9248 13.465C26.5412 13.3132 26.5529 12.983 26.6836 12.6623C26.8525 12.2503 27.0852 11.8691 27.4316 11.5846C27.6717 11.3871 27.5729 11.2267 27.4337 11.0526C27.2999 10.8859 27.32 10.5642 26.9195 10.6873C26.4881 10.8201 26.0355 10.8997 25.5637 10.7797C25.2259 10.6927 24.9889 10.5716 25.0463 10.1904C25.1058 9.79225 25.4033 9.76252 25.7305 9.79862C26.0259 9.83154 26.3213 9.84428 26.6092 9.74341C26.6347 9.55441 26.5051 9.43442 26.4318 9.30382C26.2724 9.01714 26.3298 8.78779 26.5837 8.6179C26.8547 8.43739 27.0863 8.54145 27.2744 8.77823C27.6377 9.23587 27.6558 9.2348 27.949 8.69753C28.033 8.54357 28.085 8.36944 28.1839 8.22716C28.3294 8.01905 28.5387 7.92985 28.7831 8.05515C29.0275 8.18044 29.1571 8.3705 29.0572 8.65825C28.8936 9.13287 28.663 9.57777 28.271 9.89206C27.9682 10.1352 28.1669 10.3115 28.2763 10.51C28.391 10.7213 28.4654 10.9358 28.8267 10.7946C29.2538 10.6279 29.7298 10.6587 30.1888 10.7298C30.499 10.7787 30.6797 10.9772 30.6563 11.2692Z" fill="url(#paint6_linear_4_1265)"/>
<path d="M30.3758 22.6103C30.0815 22.4882 29.7702 22.3533 29.4546 22.4393C29.1444 22.5232 29.0498 22.4149 28.9287 22.1452C28.5621 21.3319 27.7174 20.9581 26.809 21.1567C26.0482 21.3234 25.415 22.1431 25.4256 22.9936C25.4936 23.7082 25.8325 24.2858 26.5349 24.6235C26.9375 24.8178 27.4497 24.6001 27.7599 24.7891C28.068 24.976 28.1488 25.5058 28.5122 25.7596C28.7831 25.9486 29.053 26.0548 29.3059 25.7585C29.5619 25.4591 29.4334 25.2085 29.1614 24.9961C28.9765 24.8528 28.8245 24.6893 28.7842 24.4451C28.6684 23.7347 29.257 23.292 30.0124 23.5425C30.3216 23.6445 30.5787 23.6381 30.7211 23.3153C30.8752 22.9639 30.6903 22.7409 30.3758 22.6103ZM27.2361 23.7931C26.7729 23.7623 26.4392 23.3854 26.452 22.9065C26.4647 22.433 26.8292 22.0826 27.2988 22.0921C27.7493 22.1006 28.1286 22.4892 28.1265 22.9416C28.1244 23.4045 27.6877 23.8239 27.2361 23.7931Z" fill="url(#paint7_linear_4_1265)"/>
<path d="M25.4788 27.8407C25.1281 27.8885 24.9709 27.7175 24.8402 27.4351C24.7297 27.1962 24.5799 26.9753 24.4439 26.7492C24.2813 26.4784 24.1028 26.2385 24.3844 25.905C24.5533 25.7054 24.5002 25.4134 24.2484 25.2584C23.9923 25.1002 23.7384 25.1363 23.5535 25.3996C22.9266 26.2884 22.0809 26.7885 20.9886 26.8734C20.6816 26.8968 20.4946 27.0985 20.518 27.4022C20.5392 27.6708 20.7273 27.8938 21.011 27.8428C21.4285 27.7696 21.5698 28.0095 21.7154 28.309C21.8153 28.515 21.9396 28.7082 22.0607 28.9025C22.2392 29.1892 22.4081 29.443 22.1213 29.7934C21.9534 29.9972 22.0373 30.2839 22.287 30.4336C22.5548 30.595 22.7906 30.5186 22.9713 30.2627C23.5992 29.3729 24.4566 28.8834 25.5425 28.7942C25.8485 28.7698 25.958 28.5702 26.0068 28.3121C25.9569 28.0063 25.8018 27.7961 25.4788 27.8407ZM24.0285 28.0669C23.7395 28.2814 23.4324 28.4725 23.1508 28.6583C23.0626 28.6487 22.4326 27.6262 22.473 27.5997C22.7715 27.4001 23.0786 27.2121 23.3899 27.0348C23.443 27.004 24.0805 28.0276 24.0285 28.0669Z" fill="url(#paint8_linear_4_1265)"/>
<path d="M19.1357 4.13181C19.328 4.5852 19.4544 5.06513 19.4757 5.56417C19.499 6.10357 19.2844 6.52935 18.8158 6.80436C18.3866 7.05706 17.9382 7.05388 17.5058 6.8086C17.2423 6.65889 17.0553 6.44972 17.2093 6.11737C17.3464 5.82113 17.5876 5.79034 17.8766 5.87528C18.4089 6.02924 18.5917 5.85086 18.4578 5.30297C18.3908 5.03115 18.2899 4.76676 18.2113 4.49707C18.1454 4.27409 18.1082 4.07129 17.7788 4.07766C17.4675 4.08403 17.2465 4.1265 17.1105 4.44716C16.932 4.86763 16.7206 5.27537 16.5028 5.67673C16.2191 6.20019 15.792 6.21187 15.5125 5.6969C15.1948 5.10866 14.9005 4.50769 14.6105 3.90565C14.4638 3.60197 14.4692 3.29936 14.823 3.14646C15.1449 3.0063 15.3574 3.18468 15.5008 3.47137C15.6507 3.76867 15.8047 4.06385 15.9853 4.41531C16.0618 4.30913 16.1224 4.25816 16.1415 4.19552C16.4018 3.33334 16.931 2.90331 17.8638 3.1008C18.2081 3.17407 18.3228 2.89269 18.4642 2.68351C18.6798 2.36179 18.9518 2.16748 19.294 2.43293C19.6138 2.68139 19.4969 3.00736 19.2621 3.26644C19.0188 3.53614 18.9933 3.79628 19.1357 4.13181Z" fill="url(#paint9_linear_4_1265)"/>
<path d="M12.6045 28.7634C12.3888 28.8261 12.3697 28.9928 12.3017 29.151C11.9606 29.9441 11.2976 30.3912 10.5401 30.3455C9.72405 30.2956 8.96649 29.7243 8.74655 28.9906C8.51174 28.206 8.76355 27.4967 9.50093 26.9594C9.84199 26.7099 10.2234 26.5177 10.5645 26.2693C10.8429 26.0675 10.9767 25.8456 10.4976 25.7001C10.1767 25.6035 9.95887 25.4028 10.0853 25.0323C10.2256 24.6203 10.5634 24.6712 10.879 24.7615C11.4336 24.9186 11.7917 25.388 11.7949 25.6938C11.8076 26.4264 11.5569 26.797 11.1606 27.072C10.828 27.3034 10.4689 27.4967 10.1331 27.7229C9.80905 27.9426 9.55405 28.2325 9.68793 28.6519C9.81437 29.0459 10.1012 29.2933 10.5454 29.3262C11.0161 29.3612 11.2657 29.1106 11.4049 28.7018C11.4836 28.4693 11.5494 28.2325 11.6302 28C11.7216 27.7409 11.9001 27.5583 12.1859 27.623C12.5142 27.6974 12.8457 27.8322 12.9509 28.1954C13.0316 28.4746 12.8701 28.6859 12.6045 28.7634Z" fill="url(#paint10_linear_4_1265)"/>
<path d="M12.3941 5.50684C12.119 5.69266 11.8565 5.61302 11.6685 5.32846C11.6419 5.28917 11.593 5.26369 11.5176 5.20104C11.4496 5.45906 11.4039 5.69266 11.3231 5.91351C11.2562 6.09826 11.2583 6.19383 11.4368 6.34672C11.8023 6.65996 11.6812 7.11441 11.2095 7.20147C10.9778 7.24394 10.9364 7.34482 10.8928 7.52214C10.8046 7.87996 10.7111 8.23673 10.6081 8.59137C10.5252 8.87699 10.3403 9.06493 10.0258 9.00122C9.68371 8.93327 9.58277 8.68162 9.65183 8.35989C9.71133 8.08595 9.78783 7.81519 9.85902 7.54337C9.93552 7.25138 10.0715 6.99973 9.72196 6.72154C9.49246 6.53997 9.58808 6.18108 9.88346 6.00907C10.386 5.71495 10.4413 5.63957 10.4986 4.91011C10.147 5.08743 9.83989 5.15326 9.65289 4.76889C9.46377 4.38346 9.72408 4.19021 10.0226 4.02351C10.3616 3.83451 10.6995 3.64445 11.0278 3.43846C11.3986 3.20592 11.66 3.32803 11.8608 3.66887C12.0765 4.032 12.2751 4.40576 12.4961 4.76571C12.6715 5.05027 12.6704 5.31996 12.3941 5.50684Z" fill="url(#paint11_linear_4_1265)"/>
<path d="M31.3916 17.3756C31.8559 18.3312 31.161 19.4621 30.1145 19.478C29.8287 19.5013 29.6013 19.3591 29.5588 19.0618C29.5163 18.7645 29.6937 18.5457 30.0008 18.5086C30.3599 18.465 30.5713 18.293 30.5256 17.9288C30.4778 17.5402 30.1665 17.5052 29.8457 17.5083C29.3686 17.5147 28.8915 17.5137 28.4145 17.5083C28.0585 17.5052 27.7111 17.4584 27.7207 16.9881C27.7292 16.5495 28.0596 16.5081 28.3964 16.506C28.8905 16.5039 29.3856 16.5039 29.8797 16.506C30.208 16.5071 30.5012 16.437 30.5299 16.0473C30.5543 15.7097 30.3546 15.5419 30.0188 15.5047C29.7086 15.4718 29.5248 15.2626 29.5577 14.9664C29.5949 14.6372 29.8425 14.5151 30.1729 14.5332C31.1802 14.5873 31.841 15.6725 31.4022 16.6175C31.2715 16.8989 31.2492 17.0826 31.3916 17.3756Z" fill="url(#paint12_linear_4_1265)"/>
<path d="M18.5842 31.3351C18.0689 31.7237 17.4643 31.8278 16.8396 31.8639C16.3062 31.8395 15.7888 31.7556 15.3107 31.4997C14.9983 31.3319 14.8517 31.0813 15.0259 30.7617C15.1895 30.4634 15.4753 30.4549 15.7633 30.6056C16.3806 30.9284 17.0149 30.9337 17.6598 30.7118C17.8777 30.6364 18.1188 30.5387 18.1327 30.2733C18.1475 29.9983 17.8766 30.0397 17.7066 29.9749C17.4261 29.8677 17.3453 29.649 17.4165 29.3771C17.4983 29.0639 17.7406 28.9683 18.0307 29.0204C18.5555 29.1138 18.9391 29.3931 19.091 29.9282C19.2334 30.4336 19.0326 30.9964 18.5842 31.3351Z" fill="url(#paint13_linear_4_1265)"/>
<path d="M18.9837 28.2357C18.8052 28.6041 18.4812 28.5298 18.1613 28.3833C17.5377 28.0966 16.9023 28.0902 16.2669 28.3493C16.0661 28.4311 15.8557 28.5309 15.8632 28.7825C15.8706 29.031 16.1128 28.9747 16.2658 29.0352C16.5304 29.1393 16.6483 29.34 16.5942 29.6213C16.5368 29.9186 16.3264 30.0078 16.047 30.0015C15.5402 29.9898 15.1045 29.6659 14.9388 29.1711C14.7592 28.6339 14.9228 28.069 15.3978 27.7112C15.9227 27.3141 16.5315 27.1612 17.2242 27.1845C17.6726 27.1537 18.1263 27.2758 18.5683 27.4712C18.9115 27.623 19.175 27.8428 18.9837 28.2357Z" fill="url(#paint14_linear_4_1265)"/>
<path d="M4.36476 18.4353C4.34882 18.6286 4.36582 18.8239 4.36051 19.0193C4.35201 19.3272 4.16076 19.4737 3.88132 19.4727C3.60082 19.4727 3.37982 19.3145 3.41169 19.0161C3.45526 18.5988 3.28207 18.3822 2.94951 18.138C2.13988 17.5445 2.22913 16.3191 3.08657 15.7521C3.26294 15.6343 3.44357 15.5716 3.40744 15.2903C3.36069 14.9197 3.39363 14.5268 3.90257 14.5417C4.42213 14.5576 4.36476 14.9749 4.36263 15.3306C4.36157 15.4017 4.36263 15.4729 4.36263 15.6343C4.44338 16.0813 4.35094 16.4901 3.69538 16.5676C3.48288 16.5931 3.39788 16.8001 3.40213 17.0157C3.40638 17.2323 3.50201 17.4298 3.71663 17.4489C4.36582 17.5094 4.40726 17.9331 4.36476 18.4353Z" fill="url(#paint15_linear_4_1265)"/>
<path d="M26.1311 6.01331C26.1332 6.27876 26.0026 6.45396 25.7359 6.489C25.3852 6.53465 25.0325 6.55908 24.6394 6.5973C24.3121 6.65358 24.0454 6.50174 23.9349 6.15665C23.766 5.62788 23.4366 5.45905 22.9054 5.5801C22.593 5.65124 22.3614 5.51533 22.2243 5.21378C22.0798 4.89311 21.9204 4.57988 21.7632 4.26453C21.6166 3.97041 21.7154 3.75486 21.9778 3.59453C22.2487 3.42783 22.4421 3.56268 22.6132 3.77079C22.6238 3.78353 22.6355 3.79946 22.6397 3.81539C22.8267 4.45565 23.2284 4.68925 23.8914 4.53847C24.1719 4.47476 24.3599 4.69774 24.4343 4.9462C24.5947 5.47923 24.9316 5.66079 25.4617 5.54293C25.5446 5.52382 25.6381 5.53232 25.7252 5.54506C25.9919 5.58434 26.129 5.7468 26.1311 6.01331Z" fill="url(#paint16_linear_4_1265)"/>
<path d="M24.1995 8.27281C24.1113 8.28237 24.0221 8.28237 23.8425 8.29086C23.3389 8.43951 22.9829 8.18362 22.8076 7.62511C22.7131 7.32144 22.5356 7.20677 22.2116 7.29702C21.6559 7.45098 21.2978 7.2365 21.1119 6.68861C21.0269 6.44121 20.8717 6.21929 20.7655 5.9772C20.6401 5.69158 20.7198 5.4548 20.9982 5.30827C21.301 5.149 21.5018 5.31676 21.6612 5.55461C21.7281 5.65654 21.7866 5.77015 21.8216 5.88695C21.9247 6.23628 22.151 6.3552 22.4984 6.283C23.0584 6.1662 23.4154 6.39237 23.5801 6.93388C23.6619 7.20039 23.7926 7.33737 24.1177 7.27897C24.5267 7.20677 25.075 7.09846 25.1249 7.7005C25.177 8.31953 24.6043 8.22928 24.1995 8.27281Z" fill="url(#paint17_linear_4_1265)"/>
<path d="M6.37503 14.9579C6.37397 16.2799 6.37503 17.6018 6.37397 18.9237C6.37397 19.2571 6.21778 19.4759 5.8714 19.4706C5.52184 19.4663 5.38903 19.2476 5.39434 18.9089C5.4039 18.2569 5.39647 17.6039 5.39647 16.952C5.39647 16.3 5.40815 15.647 5.39222 14.9961C5.38372 14.6341 5.52078 14.392 5.88522 14.392C6.21672 14.393 6.37609 14.6224 6.37503 14.9579Z" fill="url(#paint18_linear_4_1265)"/>
<defs>
<linearGradient id="paint0_linear_4_1265" x1="13.5044" y1="0" x2="13.5044" y2="33.1377" gradientUnits="userSpaceOnUse">
<stop stop-color="#FFE399"/>
<stop offset="1" stop-color="#F4B784"/>
</linearGradient>
<linearGradient id="paint1_linear_4_1265" x1="16.999" y1="9.99258" x2="16.999" y2="24.0172" gradientUnits="userSpaceOnUse">
<stop stop-color="#FFE399"/>
<stop offset="1" stop-color="#F4B784"/>
</linearGradient>
<linearGradient id="paint2_linear_4_1265" x1="17.004" y1="7.97976" x2="17.004" y2="26.0333" gradientUnits="userSpaceOnUse">
<stop stop-color="#FFE399"/>
<stop offset="1" stop-color="#F4B784"/>
</linearGradient>
<linearGradient id="paint3_linear_4_1265" x1="23.5901" y1="4.55933" x2="23.5901" y2="33.9998" gradientUnits="userSpaceOnUse">
<stop stop-color="#FFE399"/>
<stop offset="1" stop-color="#F4B784"/>
</linearGradient>
<linearGradient id="paint4_linear_4_1265" x1="6.05196" y1="7.53" x2="6.05196" y2="13.7218" gradientUnits="userSpaceOnUse">
<stop stop-color="#FFE399"/>
<stop offset="1" stop-color="#F4B784"/>
</linearGradient>
<linearGradient id="paint5_linear_4_1265" x1="6.17103" y1="20.2797" x2="6.17103" y2="26.1048" gradientUnits="userSpaceOnUse">
<stop stop-color="#FFE399"/>
<stop offset="1" stop-color="#F4B784"/>
</linearGradient>
<linearGradient id="paint6_linear_4_1265" x1="27.848" y1="7.9976" x2="27.848" y2="13.5077" gradientUnits="userSpaceOnUse">
<stop stop-color="#FFE399"/>
<stop offset="1" stop-color="#F4B784"/>
</linearGradient>
<linearGradient id="paint7_linear_4_1265" x1="28.1009" y1="21.1043" x2="28.1009" y2="25.9431" gradientUnits="userSpaceOnUse">
<stop stop-color="#FFE399"/>
<stop offset="1" stop-color="#F4B784"/>
</linearGradient>
<linearGradient id="paint8_linear_4_1265" x1="23.2614" y1="25.1639" x2="23.2614" y2="30.5182" gradientUnits="userSpaceOnUse">
<stop stop-color="#FFE399"/>
<stop offset="1" stop-color="#F4B784"/>
</linearGradient>
<linearGradient id="paint9_linear_4_1265" x1="17.0048" y1="2.30839" x2="17.0048" y2="6.99322" gradientUnits="userSpaceOnUse">
<stop stop-color="#FFE399"/>
<stop offset="1" stop-color="#F4B784"/>
</linearGradient>
<linearGradient id="paint10_linear_4_1265" x1="10.8167" y1="24.6989" x2="10.8167" y2="30.3487" gradientUnits="userSpaceOnUse">
<stop stop-color="#FFE399"/>
<stop offset="1" stop-color="#F4B784"/>
</linearGradient>
<linearGradient id="paint11_linear_4_1265" x1="11.1027" y1="3.3188" x2="11.1027" y2="9.01365" gradientUnits="userSpaceOnUse">
<stop stop-color="#FFE399"/>
<stop offset="1" stop-color="#F4B784"/>
</linearGradient>
<linearGradient id="paint12_linear_4_1265" x1="29.6303" y1="14.5315" x2="29.6303" y2="19.4805" gradientUnits="userSpaceOnUse">
<stop stop-color="#FFE399"/>
<stop offset="1" stop-color="#F4B784"/>
</linearGradient>
<linearGradient id="paint13_linear_4_1265" x1="17.0438" y1="29.007" x2="17.0438" y2="31.8639" gradientUnits="userSpaceOnUse">
<stop stop-color="#FFE399"/>
<stop offset="1" stop-color="#F4B784"/>
</linearGradient>
<linearGradient id="paint14_linear_4_1265" x1="16.9579" y1="27.1798" x2="16.9579" y2="30.0018" gradientUnits="userSpaceOnUse">
<stop stop-color="#FFE399"/>
<stop offset="1" stop-color="#F4B784"/>
</linearGradient>
<linearGradient id="paint15_linear_4_1265" x1="3.38862" y1="14.5413" x2="3.38862" y2="19.4727" gradientUnits="userSpaceOnUse">
<stop stop-color="#FFE399"/>
<stop offset="1" stop-color="#F4B784"/>
</linearGradient>
<linearGradient id="paint16_linear_4_1265" x1="23.9131" y1="3.51963" x2="23.9131" y2="6.60875" gradientUnits="userSpaceOnUse">
<stop stop-color="#FFE399"/>
<stop offset="1" stop-color="#F4B784"/>
</linearGradient>
<linearGradient id="paint17_linear_4_1265" x1="22.918" y1="5.24572" x2="22.918" y2="8.33248" gradientUnits="userSpaceOnUse">
<stop stop-color="#FFE399"/>
<stop offset="1" stop-color="#F4B784"/>
</linearGradient>
<linearGradient id="paint18_linear_4_1265" x1="5.88344" y1="14.392" x2="5.88344" y2="19.4707" gradientUnits="userSpaceOnUse">
<stop stop-color="#FFE399"/>
<stop offset="1" stop-color="#F4B784"/>
</linearGradient>
</defs>
</svg>
