<svg width="430" height="600" viewBox="0 0 430 600" fill="none" xmlns="http://www.w3.org/2000/svg">
<rect width="430" height="592" fill="url(#paint0_linear_309_110)"/>
<mask id="mask0_309_110" style="mask-type:alpha" maskUnits="userSpaceOnUse" x="0" y="15" width="429" height="562">
<rect y="15" width="429" height="562" fill="#D9D9D9"/>
</mask>
<g mask="url(#mask0_309_110)">
<g opacity="0.6">
<g clip-path="url(#clip0_309_110)">
<path d="M-1.29532 288.227C-0.0665488 288.174 1.16222 288.067 2.39099 287.786C1.16222 287.506 -0.0665488 287.399 -1.29532 287.346C-1.42888 286.959 -1.73607 286.651 -2.1234 286.518C-2.17682 285.289 -2.28367 284.061 -2.56415 282.832C-2.84463 284.061 -2.95148 285.289 -3.0049 286.518C-3.39223 286.651 -3.69942 286.959 -3.83299 287.346C-5.06175 287.399 -6.29052 287.506 -7.51929 287.786C-6.29052 288.067 -5.06175 288.174 -3.83299 288.227C-3.69942 288.614 -3.39223 288.921 -3.0049 289.055C-2.95148 290.283 -2.84463 291.512 -2.56415 292.74C-2.28367 291.512 -2.17682 290.283 -2.1234 289.055C-1.73607 288.921 -1.42888 288.614 -1.29532 288.227Z" fill="white"/>
</g>
<g opacity="0.33" clip-path="url(#clip1_309_110)">
<path d="M302.626 159.604C303.657 159.559 304.687 159.469 305.718 159.234C304.687 158.999 303.657 158.909 302.626 158.865C302.514 158.54 302.256 158.282 301.931 158.17C301.886 157.14 301.797 156.109 301.562 155.079C301.326 156.109 301.237 157.14 301.192 158.17C300.867 158.282 300.609 158.54 300.497 158.865C299.466 158.909 298.436 158.999 297.405 159.234C298.436 159.469 299.466 159.559 300.497 159.604C300.609 159.929 300.867 160.186 301.192 160.298C301.237 161.329 301.326 162.359 301.562 163.39C301.797 162.359 301.886 161.329 301.931 160.298C302.256 160.186 302.514 159.929 302.626 159.604Z" fill="white"/>
</g>
<g opacity="0.9475" clip-path="url(#clip2_309_110)">
<path d="M198.813 94.7059C199.82 94.6621 200.827 94.5746 201.834 94.3448C200.827 94.115 199.82 94.0274 198.813 93.9837C198.704 93.6663 198.452 93.4147 198.134 93.3052C198.091 92.2985 198.003 91.2918 197.773 90.2851C197.543 91.2918 197.456 92.2985 197.412 93.3052C197.095 93.4147 196.843 93.6663 196.733 93.9837C195.727 94.0274 194.72 94.115 193.713 94.3448C194.72 94.5746 195.727 94.6621 196.733 94.7059C196.843 95.0232 197.095 95.2749 197.412 95.3843C197.456 96.391 197.543 97.3977 197.773 98.4044C198.003 97.3977 198.091 96.391 198.134 95.3843C198.452 95.2749 198.704 95.0232 198.813 94.7059Z" fill="white"/>
</g>
<g opacity="0.7015" clip-path="url(#clip3_309_110)">
<path d="M373.043 319.885C373.681 319.857 374.318 319.801 374.955 319.656C374.318 319.511 373.681 319.455 373.043 319.428C372.974 319.227 372.815 319.067 372.614 318.998C372.586 318.361 372.531 317.724 372.385 317.087C372.24 317.724 372.184 318.361 372.157 318.998C371.956 319.067 371.797 319.227 371.727 319.428C371.09 319.455 370.453 319.511 369.816 319.656C370.453 319.801 371.09 319.857 371.727 319.885C371.797 320.085 371.956 320.245 372.157 320.314C372.184 320.951 372.24 321.588 372.385 322.225C372.531 321.588 372.586 320.951 372.614 320.314C372.815 320.245 372.974 320.085 373.043 319.885Z" fill="white"/>
</g>
<g clip-path="url(#clip4_309_110)">
<path d="M212.751 521.667C214.214 521.604 215.677 521.476 217.14 521.142C215.677 520.809 214.214 520.681 212.751 520.618C212.592 520.157 212.226 519.791 211.765 519.632C211.701 518.17 211.574 516.707 211.24 515.244C210.906 516.707 210.779 518.17 210.716 519.632C210.254 519.791 209.889 520.157 209.73 520.618C208.267 520.681 206.804 520.809 205.341 521.142C206.804 521.476 208.267 521.604 209.73 521.667C209.889 522.128 210.254 522.494 210.716 522.653C210.779 524.115 210.906 525.578 211.24 527.041C211.574 525.578 211.701 524.115 211.765 522.653C212.226 522.494 212.592 522.128 212.751 521.667Z" fill="white"/>
</g>
<g clip-path="url(#clip5_309_110)">
<path d="M18.8774 441.962C19.9771 441.915 21.0769 441.819 22.1766 441.568C21.0769 441.317 19.9771 441.221 18.8774 441.174C18.7579 440.827 18.483 440.552 18.1363 440.433C18.0885 439.333 17.9929 438.234 17.7419 437.134C17.4908 438.234 17.3952 439.333 17.3474 440.433C17.0007 440.552 16.7258 440.827 16.6063 441.174C15.5066 441.221 14.4068 441.317 13.3071 441.568C14.4068 441.819 15.5066 441.915 16.6063 441.962C16.7258 442.309 17.0007 442.584 17.3474 442.703C17.3952 443.803 17.4908 444.902 17.7419 446.002C17.9929 444.902 18.0885 443.803 18.1363 442.703C18.483 442.584 18.7579 442.309 18.8774 441.962Z" fill="white"/>
</g>
<g clip-path="url(#clip6_309_110)">
<path d="M70.3688 558.016C71.3996 557.972 72.4304 557.882 73.4611 557.647C72.4304 557.412 71.3996 557.322 70.3688 557.277C70.2568 556.952 69.9991 556.695 69.6742 556.583C69.6294 555.552 69.5398 554.522 69.3045 553.491C69.0692 554.522 68.9796 555.552 68.9347 556.583C68.6098 556.695 68.3521 556.952 68.2401 557.277C67.2093 557.322 66.1786 557.412 65.1478 557.647C66.1786 557.882 67.2093 557.972 68.2401 558.016C68.3521 558.341 68.6098 558.599 68.9347 558.711C68.9796 559.741 69.0692 560.772 69.3045 561.802C69.5398 560.772 69.6294 559.741 69.6742 558.711C69.9991 558.599 70.2568 558.341 70.3688 558.016Z" fill="white"/>
</g>
<g clip-path="url(#clip7_309_110)">
<path d="M127.055 57.2615C128.033 57.219 129.011 57.134 129.988 56.911C129.011 56.6879 128.033 56.6029 127.055 56.5604C126.949 56.2523 126.705 56.008 126.397 55.9018C126.354 54.9244 126.269 53.9471 126.046 52.9698C125.823 53.9471 125.738 54.9244 125.695 55.9018C125.387 56.008 125.143 56.2523 125.037 56.5604C124.059 56.6029 123.081 56.6879 122.104 56.911C123.081 57.134 124.059 57.219 125.037 57.2615C125.143 57.5696 125.387 57.8139 125.695 57.9202C125.738 58.8975 125.823 59.8748 126.046 60.8522C126.269 59.8748 126.354 58.8975 126.397 57.9202C126.705 57.8139 126.949 57.5696 127.055 57.2615Z" fill="white"/>
</g>
<g clip-path="url(#clip8_309_110)">
<path d="M433.096 64.3684C434.126 64.3236 435.157 64.234 436.188 63.9987C435.157 63.7635 434.126 63.6739 433.096 63.6291C432.984 63.3043 432.726 63.0466 432.401 62.9346C432.356 61.9041 432.267 60.8736 432.031 59.8431C431.796 60.8736 431.706 61.9041 431.662 62.9346C431.337 63.0466 431.079 63.3043 430.967 63.6291C429.936 63.6739 428.905 63.7635 427.875 63.9987C428.905 64.234 429.936 64.3236 430.967 64.3684C431.079 64.6932 431.337 64.9508 431.662 65.0629C431.706 66.0934 431.796 67.1239 432.031 68.1544C432.267 67.1239 432.356 66.0934 432.401 65.0629C432.726 64.9508 432.984 64.6932 433.096 64.3684Z" fill="white"/>
</g>
<g clip-path="url(#clip9_309_110)">
<path d="M325.728 59.3022C326.759 59.2574 327.79 59.1678 328.821 58.9326C327.79 58.6973 326.759 58.6077 325.728 58.5629C325.616 58.2381 325.359 57.9805 325.034 57.8684C324.989 56.8379 324.899 55.8074 324.664 54.7769C324.429 55.8074 324.339 56.8379 324.294 57.8684C323.969 57.9805 323.712 58.2381 323.6 58.5629C322.569 58.6077 321.538 58.6973 320.507 58.9326C321.538 59.1678 322.569 59.2574 323.6 59.3022C323.712 59.627 323.969 59.8847 324.294 59.9967C324.339 61.0272 324.429 62.0577 324.664 63.0882C324.899 62.0577 324.989 61.0272 325.034 59.9967C325.359 59.8847 325.616 59.627 325.728 59.3022Z" fill="white"/>
</g>
<g clip-path="url(#clip10_309_110)">
<path d="M425.424 267.38C426.184 267.347 426.945 267.281 427.706 267.107C426.945 266.934 426.184 266.868 425.424 266.835C425.341 266.595 425.151 266.405 424.911 266.322C424.878 265.562 424.812 264.801 424.638 264.041C424.465 264.801 424.399 265.562 424.366 266.322C424.126 266.405 423.936 266.595 423.853 266.835C423.092 266.868 422.332 266.934 421.571 267.107C422.332 267.281 423.092 267.347 423.853 267.38C423.936 267.62 424.126 267.81 424.366 267.893C424.399 268.653 424.465 269.413 424.638 270.174C424.812 269.413 424.878 268.653 424.911 267.893C425.151 267.81 425.341 267.62 425.424 267.38Z" fill="white"/>
</g>
<g opacity="0.1204" clip-path="url(#clip11_309_110)">
<path d="M284.169 415.395C286.116 415.31 288.063 415.141 290.011 414.696C288.063 414.252 286.116 414.083 284.169 413.998C283.957 413.384 283.47 412.898 282.856 412.686C282.772 410.739 282.602 408.792 282.158 406.845C281.713 408.792 281.544 410.739 281.459 412.686C280.846 412.898 280.359 413.384 280.147 413.998C278.2 414.083 276.252 414.252 274.305 414.696C276.252 415.141 278.2 415.31 280.147 415.395C280.359 416.008 280.846 416.495 281.459 416.707C281.544 418.653 281.713 420.6 282.158 422.547C282.602 420.6 282.772 418.653 282.856 416.707C283.47 416.495 283.957 416.008 284.169 415.395Z" fill="white"/>
</g>
<g clip-path="url(#clip12_309_110)">
<path d="M418.308 434.463C419.339 434.418 420.369 434.329 421.4 434.093C420.369 433.858 419.339 433.769 418.308 433.724C418.196 433.399 417.938 433.141 417.613 433.029C417.568 431.999 417.479 430.968 417.243 429.938C417.008 430.968 416.919 431.999 416.874 433.029C416.549 433.141 416.291 433.399 416.179 433.724C415.148 433.769 414.118 433.858 413.087 434.093C414.118 434.329 415.148 434.418 416.179 434.463C416.291 434.788 416.549 435.045 416.874 435.157C416.919 436.188 417.008 437.218 417.243 438.249C417.479 437.218 417.568 436.188 417.613 435.157C417.938 435.045 418.196 434.788 418.308 434.463Z" fill="white"/>
</g>
<g clip-path="url(#clip13_309_110)">
<path d="M320.757 523.563C321.8 523.518 322.844 523.427 323.887 523.189C322.844 522.951 321.8 522.86 320.757 522.815C320.643 522.486 320.382 522.225 320.053 522.112C320.008 521.069 319.917 520.025 319.679 518.982C319.441 520.025 319.35 521.069 319.305 522.112C318.976 522.225 318.715 522.486 318.602 522.815C317.558 522.86 316.514 522.951 315.471 523.189C316.514 523.427 317.558 523.518 318.602 523.563C318.715 523.892 318.976 524.153 319.305 524.266C319.35 525.31 319.441 526.353 319.679 527.396C319.917 526.353 320.008 525.31 320.053 524.266C320.382 524.153 320.643 523.892 320.757 523.563Z" fill="white"/>
</g>
<g opacity="0.01" clip-path="url(#clip14_309_110)">
<path d="M202.656 311.822C204.183 311.755 205.709 311.623 207.236 311.274C205.709 310.926 204.183 310.793 202.656 310.727C202.49 310.246 202.109 309.864 201.628 309.699C201.561 308.173 201.429 306.646 201.08 305.12C200.732 306.646 200.599 308.173 200.533 309.699C200.051 309.864 199.67 310.246 199.504 310.727C197.977 310.793 196.451 310.926 194.925 311.274C196.451 311.623 197.977 311.755 199.504 311.822C199.67 312.303 200.051 312.684 200.533 312.85C200.599 314.376 200.732 315.902 201.08 317.429C201.429 315.902 201.561 314.376 201.628 312.85C202.109 312.684 202.49 312.303 202.656 311.822Z" fill="white"/>
</g>
<g clip-path="url(#clip15_309_110)">
<path d="M46.1081 154.599C47.2384 154.55 48.3687 154.452 49.499 154.194C48.3687 153.936 47.2384 153.837 46.1081 153.788C45.9852 153.432 45.7026 153.15 45.3463 153.027C45.2972 151.897 45.1989 150.767 44.9409 149.637C44.6829 150.767 44.5846 151.897 44.5354 153.027C44.1791 153.15 43.8965 153.432 43.7737 153.788C42.6433 153.837 41.513 153.936 40.3827 154.194C41.513 154.452 42.6433 154.55 43.7737 154.599C43.8965 154.955 44.1791 155.238 44.5354 155.361C44.5846 156.491 44.6829 157.621 44.9409 158.751C45.1989 157.621 45.2972 156.491 45.3463 155.361C45.7026 155.238 45.9852 154.955 46.1081 154.599Z" fill="white"/>
</g>
<g opacity="0.2182" clip-path="url(#clip16_309_110)">
<path d="M131.17 183.974C132.189 183.929 133.208 183.841 134.227 183.608C133.208 183.376 132.189 183.287 131.17 183.243C131.059 182.922 130.804 182.667 130.483 182.556C130.439 181.537 130.35 180.518 130.117 179.5C129.885 180.518 129.796 181.537 129.752 182.556C129.431 182.667 129.176 182.922 129.065 183.243C128.046 183.287 127.027 183.376 126.008 183.608C127.027 183.841 128.046 183.929 129.065 183.974C129.176 184.295 129.431 184.55 129.752 184.66C129.796 185.679 129.885 186.698 130.117 187.717C130.35 186.698 130.439 185.679 130.483 184.66C130.804 184.55 131.059 184.295 131.17 183.974Z" fill="white"/>
</g>
<g clip-path="url(#clip17_309_110)">
<path d="M406.055 146.431C407.086 146.387 408.117 146.297 409.148 146.062C408.117 145.827 407.086 145.737 406.055 145.692C405.943 145.367 405.686 145.11 405.361 144.998C405.316 143.967 405.226 142.937 404.991 141.906C404.756 142.937 404.666 143.967 404.621 144.998C404.296 145.11 404.039 145.367 403.927 145.692C402.896 145.737 401.865 145.827 400.834 146.062C401.865 146.297 402.896 146.387 403.927 146.431C404.039 146.756 404.296 147.014 404.621 147.126C404.666 148.156 404.756 149.187 404.991 150.217C405.226 149.187 405.316 148.156 405.361 147.126C405.686 147.014 405.943 146.756 406.055 146.431Z" fill="white"/>
</g>
<g opacity="0.7692" clip-path="url(#clip18_309_110)">
<path d="M106.201 443.563C107.542 443.505 108.884 443.388 110.226 443.082C108.884 442.776 107.542 442.659 106.201 442.601C106.055 442.178 105.72 441.843 105.297 441.697C105.239 440.356 105.122 439.015 104.816 437.674C104.509 439.015 104.393 440.356 104.334 441.697C103.912 441.843 103.576 442.178 103.43 442.601C102.089 442.659 100.747 442.776 99.4058 443.082C100.747 443.388 102.089 443.505 103.43 443.563C103.576 443.986 103.912 444.321 104.334 444.467C104.393 445.808 104.509 447.149 104.816 448.491C105.122 447.149 105.239 445.808 105.297 444.467C105.72 444.321 106.055 443.986 106.201 443.563Z" fill="white"/>
</g>
<g clip-path="url(#clip19_309_110)">
<path d="M144.384 561.071C145.415 561.026 146.446 560.937 147.476 560.701C146.446 560.466 145.415 560.377 144.384 560.332C144.272 560.007 144.014 559.749 143.689 559.637C143.645 558.607 143.555 557.576 143.32 556.546C143.084 557.576 142.995 558.607 142.95 559.637C142.625 559.749 142.367 560.007 142.255 560.332C141.225 560.377 140.194 560.466 139.163 560.701C140.194 560.937 141.225 561.026 142.255 561.071C142.367 561.396 142.625 561.654 142.95 561.766C142.995 562.796 143.084 563.827 143.32 564.857C143.555 563.827 143.645 562.796 143.689 561.766C144.014 561.654 144.272 561.396 144.384 561.071Z" fill="white"/>
</g>
<g clip-path="url(#clip20_309_110)">
<path d="M234.591 19.7746C235.679 19.7273 236.767 19.6328 237.854 19.3846C236.767 19.1364 235.679 19.0419 234.591 18.9946C234.473 18.6519 234.201 18.38 233.859 18.2619C233.811 17.1746 233.717 16.0873 233.468 15C233.22 16.0873 233.126 17.1746 233.078 18.2619C232.736 18.38 232.464 18.6519 232.345 18.9946C231.258 19.0419 230.17 19.1364 229.083 19.3846C230.17 19.6328 231.258 19.7273 232.345 19.7746C232.464 20.1173 232.736 20.3892 233.078 20.5074C233.126 21.5946 233.22 22.6819 233.468 23.7692C233.717 22.6819 233.811 21.5946 233.859 20.5074C234.201 20.3892 234.473 20.1173 234.591 19.7746Z" fill="white"/>
</g>
<g clip-path="url(#clip21_309_110)">
<path d="M60.5695 27.0053C61.9815 26.9439 63.3936 26.8212 64.8056 26.4989C63.3936 26.1767 61.9815 26.0539 60.5695 25.9926C60.416 25.5476 60.063 25.1946 59.6179 25.0412C59.5565 23.6295 59.4337 22.2178 59.1114 20.8061C58.7891 22.2178 58.6663 23.6295 58.6049 25.0412C58.1598 25.1946 57.8068 25.5476 57.6533 25.9926C56.2413 26.0539 54.8293 26.1767 53.4172 26.4989C54.8293 26.8212 56.2413 26.9439 57.6533 27.0053C57.8068 27.4503 58.1598 27.8032 58.6049 27.9567C58.6663 29.3684 58.7891 30.78 59.1114 32.1917C59.4337 30.78 59.5565 29.3684 59.6179 27.9567C60.063 27.8032 60.416 27.4503 60.5695 27.0053Z" fill="white"/>
</g>
<g opacity="0.1982" clip-path="url(#clip22_309_110)">
<path d="M94.112 340.364C96.1983 340.273 98.2845 340.092 100.371 339.616C98.2845 339.14 96.1983 338.958 94.112 338.868C93.8852 338.21 93.3637 337.689 92.7061 337.462C92.6153 335.376 92.4339 333.29 91.9577 331.205C91.4815 333.29 91.3001 335.376 91.2094 337.462C90.5518 337.689 90.0302 338.21 89.8034 338.868C87.7172 338.958 85.6309 339.14 83.5447 339.616C85.6309 340.092 87.7172 340.273 89.8034 340.364C90.0302 341.021 90.5518 341.543 91.2094 341.769C91.3001 343.855 91.4815 345.941 91.9577 348.027C92.4339 345.941 92.6153 343.855 92.7061 341.769C93.3637 341.543 93.8852 341.021 94.112 340.364Z" fill="white"/>
</g>
<g opacity="0.0828" clip-path="url(#clip23_309_110)">
<path d="M316.729 273.556C317.536 273.521 318.343 273.451 319.15 273.267C318.343 273.083 317.536 273.012 316.729 272.977C316.641 272.723 316.439 272.521 316.185 272.433C316.15 271.626 316.079 270.819 315.895 270.012C315.711 270.819 315.641 271.626 315.606 272.433C315.351 272.521 315.149 272.723 315.062 272.977C314.255 273.012 313.447 273.083 312.64 273.267C313.447 273.451 314.255 273.521 315.062 273.556C315.149 273.811 315.351 274.012 315.606 274.1C315.641 274.907 315.711 275.714 315.895 276.521C316.079 275.714 316.15 274.907 316.185 274.1C316.439 274.012 316.641 273.811 316.729 273.556Z" fill="white"/>
</g>
<g clip-path="url(#clip24_309_110)">
<path d="M31.8064 64.2007C32.5036 64.2007 33.0688 64.7657 33.0688 65.4627C33.0688 66.1597 32.5036 66.7248 31.8064 66.7248C31.1092 66.7248 30.5441 66.1597 30.5441 65.4627C30.5441 64.7657 31.1092 64.2007 31.8064 64.2007Z" fill="white"/>
</g>
<g opacity="0.4321" clip-path="url(#clip25_309_110)">
<path d="M21.2893 518.667C21.7814 518.667 22.1803 519.066 22.1803 519.558C22.1803 520.05 21.7814 520.449 21.2893 520.449C20.7972 520.449 20.3983 520.05 20.3983 519.558C20.3983 519.066 20.7972 518.667 21.2893 518.667Z" fill="white"/>
</g>
<g opacity="0.4052" clip-path="url(#clip26_309_110)">
<path d="M18.1995 525.632C18.6798 525.632 19.0691 526.021 19.0691 526.501C19.0691 526.981 18.6798 527.371 18.1995 527.371C17.7192 527.371 17.3298 526.981 17.3298 526.501C17.3298 526.021 17.7192 525.632 18.1995 525.632Z" fill="white"/>
</g>
<g opacity="0.5277" clip-path="url(#clip27_309_110)">
<path d="M12.9429 553.582C13.4082 553.582 13.7854 553.959 13.7854 554.424C13.7854 554.89 13.4082 555.267 12.9429 555.267C12.4776 555.267 12.1003 554.89 12.1003 554.424C12.1003 553.959 12.4776 553.582 12.9429 553.582Z" fill="white"/>
</g>
<g opacity="0.8657" clip-path="url(#clip28_309_110)">
<path d="M136.312 536.053C136.888 536.053 137.355 536.521 137.355 537.097C137.355 537.673 136.888 538.14 136.312 538.14C135.736 538.14 135.268 537.673 135.268 537.097C135.268 536.521 135.736 536.053 136.312 536.053Z" fill="white"/>
</g>
<g opacity="0.9947" clip-path="url(#clip29_309_110)">
<path d="M213.209 550.86C213.897 550.86 214.454 551.417 214.454 552.104C214.454 552.791 213.897 553.348 213.209 553.348C212.522 553.348 211.965 552.791 211.965 552.104C211.965 551.417 212.522 550.86 213.209 550.86Z" fill="white"/>
</g>
<g opacity="0.9894" clip-path="url(#clip30_309_110)">
<path d="M205.406 550.02C206.132 550.02 206.72 550.608 206.72 551.334C206.72 552.06 206.132 552.649 205.406 552.649C204.679 552.649 204.091 552.06 204.091 551.334C204.091 550.608 204.679 550.02 205.406 550.02Z" fill="white"/>
</g>
<g opacity="0.6448" clip-path="url(#clip31_309_110)">
<path d="M15.2339 489.958C15.8186 489.958 16.2926 490.432 16.2926 491.017C16.2926 491.601 15.8186 492.075 15.2339 492.075C14.6492 492.075 14.1752 491.601 14.1752 491.017C14.1752 490.432 14.6492 489.958 15.2339 489.958Z" fill="white"/>
</g>
<g opacity="0.4059" clip-path="url(#clip32_309_110)">
<path d="M8.36403 536.943C8.83117 536.943 9.20987 537.322 9.20987 537.789C9.20987 538.256 8.83117 538.635 8.36403 538.635C7.89688 538.635 7.51819 538.256 7.51819 537.789C7.51819 537.322 7.89688 536.943 8.36403 536.943Z" fill="white"/>
</g>
<g opacity="0.5006" clip-path="url(#clip33_309_110)">
<path d="M32.5973 542.962C33.0806 542.962 33.4724 543.353 33.4724 543.837C33.4724 544.32 33.0806 544.711 32.5973 544.711C32.114 544.711 31.7222 544.32 31.7222 543.837C31.7222 543.353 32.114 542.962 32.5973 542.962Z" fill="white"/>
</g>
<g clip-path="url(#clip34_309_110)">
<path d="M208.468 60.8925C209.037 60.8925 209.499 61.3539 209.499 61.923C209.499 62.4922 209.037 62.9536 208.468 62.9536C207.899 62.9536 207.437 62.4922 207.437 61.923C207.437 61.3539 207.899 60.8925 208.468 60.8925Z" fill="white"/>
</g>
<g opacity="0.7684" clip-path="url(#clip35_309_110)">
<path d="M307.327 52.8549C308.146 52.8549 308.81 53.5184 308.81 54.337C308.81 55.1556 308.146 55.8192 307.327 55.8192C306.508 55.8192 305.845 55.1556 305.845 54.337C305.845 53.5184 306.508 52.8549 307.327 52.8549Z" fill="white"/>
</g>
<g clip-path="url(#clip36_309_110)">
<path d="M179.665 20.8964C180.234 20.8964 180.696 21.3578 180.696 21.9269C180.696 22.4961 180.234 22.9575 179.665 22.9575C179.096 22.9575 178.634 22.4961 178.634 21.9269C178.634 21.3578 179.096 20.8964 179.665 20.8964Z" fill="white"/>
</g>
<g clip-path="url(#clip37_309_110)">
<path d="M140.866 42.4134C141.84 42.4134 142.63 43.2031 142.63 44.1773C142.63 45.1515 141.84 45.9413 140.866 45.9413C139.891 45.9413 139.101 45.1515 139.101 44.1773C139.101 43.2031 139.891 42.4134 140.866 42.4134Z" fill="white"/>
</g>
<g clip-path="url(#clip38_309_110)">
<path d="M94.2478 28.5505C94.9071 28.5505 95.4417 29.0849 95.4417 29.7441C95.4417 30.4034 94.9071 30.9378 94.2478 30.9378C93.5884 30.9378 93.0538 30.4034 93.0538 29.7441C93.0538 29.0849 93.5884 28.5505 94.2478 28.5505Z" fill="white"/>
</g>
<g opacity="0.9081" clip-path="url(#clip39_309_110)">
<path d="M292.748 44.4494C293.809 44.4494 294.668 45.3087 294.668 46.3686C294.668 47.4286 293.809 48.2878 292.748 48.2878C291.688 48.2878 290.829 47.4286 290.829 46.3686C290.829 45.3087 291.688 44.4494 292.748 44.4494Z" fill="white"/>
</g>
<g opacity="0.3686" clip-path="url(#clip40_309_110)">
<path d="M362.71 59.7106C363.323 59.7106 363.821 60.2081 363.821 60.8218C363.821 61.4355 363.323 61.933 362.71 61.933C362.096 61.933 361.598 61.4355 361.598 60.8218C361.598 60.2081 362.096 59.7106 362.71 59.7106Z" fill="white"/>
</g>
<g opacity="0.7654" clip-path="url(#clip41_309_110)">
<path d="M426.092 110.681C426.728 110.681 427.244 111.197 427.244 111.833C427.244 112.469 426.728 112.984 426.092 112.984C425.456 112.984 424.941 112.469 424.941 111.833C424.941 111.197 425.456 110.681 426.092 110.681Z" fill="white"/>
</g>
<g opacity="0.5824" clip-path="url(#clip42_309_110)">
<path d="M282.899 108.685C283.468 108.685 283.93 109.147 283.93 109.716C283.93 110.285 283.468 110.746 282.899 110.746C282.33 110.746 281.868 110.285 281.868 109.716C281.868 109.147 282.33 108.685 282.899 108.685Z" fill="white"/>
</g>
<g opacity="0.9741" clip-path="url(#clip43_309_110)">
<path d="M238.423 63.8617C239.251 63.8617 239.921 64.5322 239.921 65.3593C239.921 66.1864 239.251 66.857 238.423 66.857C237.596 66.857 236.925 66.1864 236.925 65.3593C236.925 64.5322 237.596 63.8617 238.423 63.8617Z" fill="white"/>
</g>
<g opacity="0.5661" clip-path="url(#clip44_309_110)">
<path d="M282.969 134.299C283.541 134.299 284.005 134.763 284.005 135.335C284.005 135.907 283.541 136.371 282.969 136.371C282.397 136.371 281.933 135.907 281.933 135.335C281.933 134.763 282.397 134.299 282.969 134.299Z" fill="white"/>
</g>
<g opacity="0.9243" clip-path="url(#clip45_309_110)">
<path d="M214.037 78.7538C214.606 78.7538 215.068 79.2152 215.068 79.7843C215.068 80.3535 214.606 80.8148 214.037 80.8148C213.468 80.8148 213.006 80.3535 213.006 79.7843C213.006 79.2152 213.468 78.7538 214.037 78.7538Z" fill="white"/>
</g>
<g opacity="0.1124" clip-path="url(#clip46_309_110)">
<path d="M265.137 256.551C265.709 256.551 266.173 257.015 266.173 257.587C266.173 258.158 265.709 258.622 265.137 258.622C264.565 258.622 264.101 258.158 264.101 257.587C264.101 257.015 264.565 256.551 265.137 256.551Z" fill="white"/>
</g>
<g opacity="0.4454" clip-path="url(#clip47_309_110)">
<path d="M271.713 133.172C272.282 133.172 272.744 133.633 272.744 134.202C272.744 134.771 272.282 135.233 271.713 135.233C271.144 135.233 270.682 134.771 270.682 134.202C270.682 133.633 271.144 133.172 271.713 133.172Z" fill="white"/>
</g>
<g opacity="0.4741" clip-path="url(#clip48_309_110)">
<path d="M298.474 175.383C299.034 175.383 299.489 175.837 299.489 176.398C299.489 176.958 299.034 177.412 298.474 177.412C297.913 177.412 297.459 176.958 297.459 176.398C297.459 175.837 297.913 175.383 298.474 175.383Z" fill="white"/>
</g>
<g opacity="0.503" clip-path="url(#clip49_309_110)">
<path d="M318.425 211.065C318.967 211.065 319.407 211.504 319.407 212.047C319.407 212.589 318.967 213.028 318.425 213.028C317.882 213.028 317.443 212.589 317.443 212.047C317.443 211.504 317.882 211.065 318.425 211.065Z" fill="white"/>
</g>
<g opacity="0.9341" clip-path="url(#clip50_309_110)">
<path d="M323.944 127.353C324.664 127.353 325.248 127.937 325.248 128.656C325.248 129.376 324.664 129.96 323.944 129.96C323.224 129.96 322.641 129.376 322.641 128.656C322.641 127.937 323.224 127.353 323.944 127.353Z" fill="white"/>
</g>
<g opacity="0.8249" clip-path="url(#clip51_309_110)">
<path d="M340.622 203.179C341.196 203.179 341.661 203.644 341.661 204.217C341.661 204.791 341.196 205.256 340.622 205.256C340.048 205.256 339.583 204.791 339.583 204.217C339.583 203.644 340.048 203.179 340.622 203.179Z" fill="white"/>
</g>
<g opacity="0.337" clip-path="url(#clip52_309_110)">
<path d="M379.331 79.7002C379.981 79.7002 380.508 80.2269 380.508 80.8767C380.508 81.5265 379.981 82.0532 379.331 82.0532C378.681 82.0532 378.154 81.5265 378.154 80.8767C378.154 80.2269 378.681 79.7002 379.331 79.7002Z" fill="white"/>
</g>
<g opacity="0.4181" clip-path="url(#clip53_309_110)">
<path d="M394.961 204.191C395.649 204.191 396.206 204.748 396.206 205.436C396.206 206.123 395.649 206.68 394.961 206.68C394.274 206.68 393.716 206.123 393.716 205.436C393.716 204.748 394.274 204.191 394.961 204.191Z" fill="white"/>
</g>
<g opacity="0.4563" clip-path="url(#clip54_309_110)">
<path d="M402.677 97.5233C403.346 97.5233 403.888 98.0651 403.888 98.7335C403.888 99.4019 403.346 99.9437 402.677 99.9437C402.009 99.9437 401.467 99.4019 401.467 98.7335C401.467 98.0651 402.009 97.5233 402.677 97.5233Z" fill="white"/>
</g>
<g opacity="0.3558" clip-path="url(#clip55_309_110)">
<path d="M404.879 59.8092C405.439 59.8092 405.894 60.2635 405.894 60.824C405.894 61.3844 405.439 61.8387 404.879 61.8387C404.318 61.8387 403.864 61.3844 403.864 60.824C403.864 60.2635 404.318 59.8092 404.879 59.8092Z" fill="white"/>
</g>
<g opacity="0.3966" clip-path="url(#clip56_309_110)">
<path d="M408.259 80.9409C408.836 80.9409 409.303 81.4081 409.303 81.9845C409.303 82.5608 408.836 83.0281 408.259 83.0281C407.683 83.0281 407.215 82.5608 407.215 81.9845C407.215 81.4081 407.683 80.9409 408.259 80.9409Z" fill="white"/>
</g>
<g opacity="0.9927" clip-path="url(#clip57_309_110)">
<path d="M247.448 55.5896C248.462 55.5896 249.283 56.4107 249.283 57.4236C249.283 58.4365 248.462 59.2576 247.448 59.2576C246.435 59.2576 245.614 58.4365 245.614 57.4236C245.614 56.4107 246.435 55.5896 247.448 55.5896Z" fill="white"/>
</g>
<g clip-path="url(#clip58_309_110)">
<path d="M194.111 35.3596C194.68 35.3596 195.142 35.821 195.142 36.3901C195.142 36.9593 194.68 37.4207 194.111 37.4207C193.542 37.4207 193.08 36.9593 193.08 36.3901C193.08 35.821 193.542 35.3596 194.111 35.3596Z" fill="white"/>
</g>
<g opacity="0.833" clip-path="url(#clip59_309_110)">
<path d="M311.837 42.7353C312.585 42.7353 313.191 43.3417 313.191 44.0896C313.191 44.8376 312.585 45.4439 311.837 45.4439C311.089 45.4439 310.482 44.8376 310.482 44.0896C310.482 43.3417 311.089 42.7353 311.837 42.7353Z" fill="white"/>
</g>
<g opacity="0.4979" clip-path="url(#clip60_309_110)">
<path d="M401.523 41.0155C401.995 41.0155 402.377 41.3973 402.377 41.8683C402.377 42.3393 401.995 42.7212 401.523 42.7212C401.052 42.7212 400.67 42.3393 400.67 41.8683C400.67 41.3973 401.052 41.0155 401.523 41.0155Z" fill="white"/>
</g>
<g opacity="0.6671" clip-path="url(#clip61_309_110)">
<path d="M418.229 420.693C418.798 420.693 419.259 421.154 419.259 421.723C419.259 422.293 418.798 422.754 418.229 422.754C417.659 422.754 417.198 422.293 417.198 421.723C417.198 421.154 417.659 420.693 418.229 420.693Z" fill="white"/>
</g>
<g opacity="0.4365" clip-path="url(#clip62_309_110)">
<path d="M389.389 182.834C390.152 182.834 390.771 183.453 390.771 184.217C390.771 184.98 390.152 185.599 389.389 185.599C388.625 185.599 388.006 184.98 388.006 184.217C388.006 183.453 388.625 182.834 389.389 182.834Z" fill="white"/>
</g>
<g opacity="0.5458" clip-path="url(#clip63_309_110)">
<path d="M331.764 317.442C332.437 317.442 332.983 317.987 332.983 318.66C332.983 319.333 332.437 319.878 331.764 319.878C331.091 319.878 330.545 319.333 330.545 318.66C330.545 317.987 331.091 317.442 331.764 317.442Z" fill="white"/>
</g>
<g opacity="0.1778" clip-path="url(#clip64_309_110)">
<path d="M272.996 333.029C273.629 333.029 274.142 333.542 274.142 334.174C274.142 334.807 273.629 335.32 272.996 335.32C272.364 335.32 271.851 334.807 271.851 334.174C271.851 333.542 272.364 333.029 272.996 333.029Z" fill="white"/>
</g>
<g opacity="0.3314" clip-path="url(#clip65_309_110)">
<path d="M239.608 343.188C240.146 343.188 240.582 343.624 240.582 344.162C240.582 344.699 240.146 345.135 239.608 345.135C239.07 345.135 238.635 344.699 238.635 344.162C238.635 343.624 239.07 343.188 239.608 343.188Z" fill="white"/>
</g>
<g opacity="0.1996" clip-path="url(#clip66_309_110)">
<path d="M181.982 355.523C182.436 355.523 182.804 355.891 182.804 356.345C182.804 356.799 182.436 357.167 181.982 357.167C181.528 357.167 181.16 356.799 181.16 356.345C181.16 355.891 181.528 355.523 181.982 355.523Z" fill="white"/>
</g>
<g opacity="0.8077" clip-path="url(#clip67_309_110)">
<path d="M143.096 449.569C143.754 449.569 144.287 450.103 144.287 450.761C144.287 451.419 143.754 451.952 143.096 451.952C142.437 451.952 141.904 451.419 141.904 450.761C141.904 450.103 142.437 449.569 143.096 449.569Z" fill="white"/>
</g>
<g opacity="0.2063" clip-path="url(#clip68_309_110)">
<path d="M257.427 344.25C258.014 344.25 258.489 344.726 258.489 345.312C258.489 345.898 258.014 346.373 257.427 346.373C256.841 346.373 256.366 345.898 256.366 345.312C256.366 344.726 256.841 344.25 257.427 344.25Z" fill="white"/>
</g>
<g opacity="0.1169" clip-path="url(#clip69_309_110)">
<path d="M231.918 384.312C232.432 384.312 232.849 384.729 232.849 385.243C232.849 385.758 232.432 386.175 231.918 386.175C231.403 386.175 230.986 385.758 230.986 385.243C230.986 384.729 231.403 384.312 231.918 384.312Z" fill="white"/>
</g>
<g opacity="0.9299" clip-path="url(#clip70_309_110)">
<path d="M132.012 497.479C132.606 497.479 133.088 497.96 133.088 498.554C133.088 499.148 132.606 499.629 132.012 499.629C131.419 499.629 130.937 499.148 130.937 498.554C130.937 497.96 131.419 497.479 132.012 497.479Z" fill="white"/>
</g>
<g opacity="0.8835" clip-path="url(#clip71_309_110)">
<path d="M184.191 513.805C185.552 513.805 186.656 514.909 186.656 516.27C186.656 517.631 185.552 518.734 184.191 518.734C182.829 518.734 181.726 517.631 181.726 516.27C181.726 514.909 182.829 513.805 184.191 513.805Z" fill="white"/>
</g>
<g opacity="0.8895" clip-path="url(#clip72_309_110)">
<path d="M152.014 506.021C152.788 506.021 153.415 506.648 153.415 507.421C153.415 508.195 152.788 508.822 152.014 508.822C151.241 508.822 150.614 508.195 150.614 507.421C150.614 506.648 151.241 506.021 152.014 506.021Z" fill="white"/>
</g>
<g opacity="0.3348" clip-path="url(#clip73_309_110)">
<path d="M273.87 462.879C274.496 462.879 275.004 463.386 275.004 464.012C275.004 464.639 274.496 465.146 273.87 465.146C273.243 465.146 272.736 464.639 272.736 464.012C272.736 463.386 273.243 462.879 273.87 462.879Z" fill="white"/>
</g>
<g opacity="0.637" clip-path="url(#clip74_309_110)">
<path d="M97.5978 536.523C98.1117 536.523 98.5284 536.94 98.5284 537.454C98.5284 537.968 98.1117 538.384 97.5978 538.384C97.0839 538.384 96.6672 537.968 96.6672 537.454C96.6672 536.94 97.0839 536.523 97.5978 536.523Z" fill="white"/>
</g>
<g opacity="0.7853" clip-path="url(#clip75_309_110)">
<path d="M363.848 525.132C364.479 525.132 364.99 525.643 364.99 526.274C364.99 526.904 364.479 527.415 363.848 527.415C363.218 527.415 362.707 526.904 362.707 526.274C362.707 525.643 363.218 525.132 363.848 525.132Z" fill="white"/>
</g>
<g opacity="0.5051" clip-path="url(#clip76_309_110)">
<path d="M304.941 493.536C305.853 493.536 306.593 494.276 306.593 495.188C306.593 496.101 305.853 496.84 304.941 496.84C304.028 496.84 303.288 496.101 303.288 495.188C303.288 494.276 304.028 493.536 304.941 493.536Z" fill="white"/>
</g>
<g opacity="0.5526" clip-path="url(#clip77_309_110)">
<path d="M297.204 523.036C297.765 523.036 298.22 523.491 298.22 524.052C298.22 524.614 297.765 525.068 297.204 525.068C296.643 525.068 296.188 524.614 296.188 524.052C296.188 523.491 296.643 523.036 297.204 523.036Z" fill="white"/>
</g>
<g opacity="0.7474" clip-path="url(#clip78_309_110)">
<path d="M293.84 548.555C294.375 548.555 294.809 548.989 294.809 549.523C294.809 550.058 294.375 550.492 293.84 550.492C293.305 550.492 292.871 550.058 292.871 549.523C292.871 548.989 293.305 548.555 293.84 548.555Z" fill="white"/>
</g>
<g opacity="0.7806" clip-path="url(#clip79_309_110)">
<path d="M296.163 554.385C296.686 554.385 297.11 554.809 297.11 555.332C297.11 555.854 296.686 556.278 296.163 556.278C295.64 556.278 295.216 555.854 295.216 555.332C295.216 554.809 295.64 554.385 296.163 554.385Z" fill="white"/>
</g>
<g opacity="0.9753" clip-path="url(#clip80_309_110)">
<path d="M247.365 554.071C247.968 554.071 248.456 554.559 248.456 555.161C248.456 555.764 247.968 556.252 247.365 556.252C246.763 556.252 246.275 555.764 246.275 555.161C246.275 554.559 246.763 554.071 247.365 554.071Z" fill="white"/>
</g>
<g opacity="0.9027" clip-path="url(#clip81_309_110)">
<path d="M341.636 544.222C342.175 544.222 342.611 544.659 342.611 545.197C342.611 545.735 342.175 546.171 341.636 546.171C341.098 546.171 340.662 545.735 340.662 545.197C340.662 544.659 341.098 544.222 341.636 544.222Z" fill="white"/>
</g>
<g opacity="0.4558" clip-path="url(#clip82_309_110)">
<path d="M409.283 515.716C410.15 515.716 410.853 516.418 410.853 517.285C410.853 518.152 410.15 518.855 409.283 518.855C408.416 518.855 407.713 518.152 407.713 517.285C407.713 516.418 408.416 515.716 409.283 515.716Z" fill="white"/>
</g>
<g opacity="0.1699" clip-path="url(#clip83_309_110)">
<path d="M408.234 480.504C408.887 480.504 409.417 481.033 409.417 481.687C409.417 482.34 408.887 482.87 408.234 482.87C407.58 482.87 407.05 482.34 407.05 481.687C407.05 481.033 407.58 480.504 408.234 480.504Z" fill="white"/>
</g>
<g opacity="0.8656" clip-path="url(#clip84_309_110)">
<path d="M326.096 558.759C326.605 558.759 327.017 559.171 327.017 559.679C327.017 560.187 326.605 560.6 326.096 560.6C325.588 560.6 325.176 560.187 325.176 559.679C325.176 559.171 325.588 558.759 326.096 558.759Z" fill="white"/>
</g>
<g clip-path="url(#clip85_309_110)">
<path d="M419.315 562.986C419.97 562.986 420.501 563.518 420.501 564.173C420.501 564.828 419.97 565.359 419.315 565.359C418.659 565.359 418.128 564.828 418.128 564.173C418.128 563.518 418.659 562.986 419.315 562.986Z" fill="white"/>
</g>
<g opacity="0.992" clip-path="url(#clip86_309_110)">
<path d="M429.326 542.715C430.081 542.715 430.693 543.327 430.693 544.082C430.693 544.836 430.081 545.448 429.326 545.448C428.571 545.448 427.959 544.836 427.959 544.082C427.959 543.327 428.571 542.715 429.326 542.715Z" fill="white"/>
</g>
<g opacity="0.8686" clip-path="url(#clip87_309_110)">
<path d="M398.196 544.868C398.979 544.868 399.613 545.503 399.613 546.286C399.613 547.068 398.979 547.703 398.196 547.703C397.413 547.703 396.778 547.068 396.778 546.286C396.778 545.503 397.413 544.868 398.196 544.868Z" fill="white"/>
</g>
<g clip-path="url(#clip88_309_110)">
<path d="M381.533 560.733C382.185 560.733 382.713 561.262 382.713 561.914C382.713 562.566 382.185 563.094 381.533 563.094C380.88 563.094 380.352 562.566 380.352 561.914C380.352 561.262 380.88 560.733 381.533 560.733Z" fill="white"/>
</g>
<g opacity="0.6122" clip-path="url(#clip89_309_110)">
<path d="M430.478 511.167C431.365 511.167 432.083 511.886 432.083 512.772C432.083 513.659 431.365 514.378 430.478 514.378C429.591 514.378 428.872 513.659 428.872 512.772C428.872 511.886 429.591 511.167 430.478 511.167Z" fill="white"/>
</g>
<g opacity="0.7498" clip-path="url(#clip90_309_110)">
<path d="M359.474 461.025C360.454 461.025 361.249 461.82 361.249 462.8C361.249 463.78 360.454 464.574 359.474 464.574C358.494 464.574 357.699 463.78 357.699 462.8C357.699 461.82 358.494 461.025 359.474 461.025Z" fill="white"/>
</g>
<g opacity="0.9483" clip-path="url(#clip91_309_110)">
<path d="M386.051 408.492C386.62 408.492 387.081 408.953 387.081 409.522C387.081 410.091 386.62 410.553 386.051 410.553C385.481 410.553 385.02 410.091 385.02 409.522C385.02 408.953 385.481 408.492 386.051 408.492Z" fill="white"/>
</g>
<g clip-path="url(#clip92_309_110)">
<path d="M389.426 345.363C389.977 345.363 390.424 345.81 390.424 346.362C390.424 346.913 389.977 347.36 389.426 347.36C388.874 347.36 388.427 346.913 388.427 346.362C388.427 345.81 388.874 345.363 389.426 345.363Z" fill="white"/>
</g>
<g opacity="0.9532" clip-path="url(#clip93_309_110)">
<path d="M393.882 305.506C394.406 305.506 394.831 305.93 394.831 306.454C394.831 306.977 394.406 307.402 393.882 307.402C393.359 307.402 392.934 306.977 392.934 306.454C392.934 305.93 393.359 305.506 393.882 305.506Z" fill="white"/>
</g>
<g opacity="0.8588" clip-path="url(#clip94_309_110)">
<path d="M393.899 280.011C394.394 280.011 394.796 280.412 394.796 280.908C394.796 281.403 394.394 281.804 393.899 281.804C393.404 281.804 393.002 281.403 393.002 280.908C393.002 280.412 393.404 280.011 393.899 280.011Z" fill="white"/>
</g>
<g opacity="0.1987" clip-path="url(#clip95_309_110)">
<path d="M310.681 247.679C311.259 247.679 311.728 248.147 311.728 248.725C311.728 249.303 311.259 249.772 310.681 249.772C310.103 249.772 309.634 249.303 309.634 248.725C309.634 248.147 310.103 247.679 310.681 247.679Z" fill="white"/>
</g>
<g opacity="0.0847" clip-path="url(#clip96_309_110)">
<path d="M290.798 285.158C291.469 285.158 292.013 285.702 292.013 286.373C292.013 287.044 291.469 287.587 290.798 287.587C290.127 287.587 289.583 287.044 289.583 286.373C289.583 285.702 290.127 285.158 290.798 285.158Z" fill="white"/>
</g>
<g opacity="0.0964" clip-path="url(#clip97_309_110)">
<path d="M285.058 290.868C285.742 290.868 286.296 291.422 286.296 292.105C286.296 292.788 285.742 293.342 285.058 293.342C284.375 293.342 283.821 292.788 283.821 292.105C283.821 291.422 284.375 290.868 285.058 290.868Z" fill="white"/>
</g>
<g opacity="0.401" clip-path="url(#clip98_309_110)">
<path d="M209.668 290.177C210.075 290.177 210.405 290.507 210.405 290.914C210.405 291.321 210.075 291.65 209.668 291.65C209.261 291.65 208.931 291.321 208.931 290.914C208.931 290.507 209.261 290.177 209.668 290.177Z" fill="white"/>
</g>
<g opacity="0.4111" clip-path="url(#clip99_309_110)">
<path d="M213.027 281.169C213.442 281.169 213.778 281.505 213.778 281.919C213.778 282.334 213.442 282.67 213.027 282.67C212.613 282.67 212.276 282.334 212.276 281.919C212.276 281.505 212.613 281.169 213.027 281.169Z" fill="white"/>
</g>
<g opacity="0.1834" clip-path="url(#clip100_309_110)">
<path d="M210.708 228.859C211.132 228.859 211.476 229.203 211.476 229.627C211.476 230.051 211.132 230.395 210.708 230.395C210.284 230.395 209.94 230.051 209.94 229.627C209.94 229.203 210.284 228.859 210.708 228.859Z" fill="white"/>
</g>
<g clip-path="url(#clip101_309_110)">
<path d="M109.678 107.47C110.392 107.47 110.972 108.049 110.972 108.764C110.972 109.478 110.392 110.057 109.678 110.057C108.963 110.057 108.384 109.478 108.384 108.764C108.384 108.049 108.963 107.47 109.678 107.47Z" fill="white"/>
</g>
<g clip-path="url(#clip102_309_110)">
<path d="M117.494 87.8539C118.55 87.8539 119.405 88.7092 119.405 89.7643C119.405 90.8193 118.55 91.6746 117.494 91.6746C116.439 91.6746 115.583 90.8193 115.583 89.7643C115.583 88.7092 116.439 87.8539 117.494 87.8539Z" fill="white"/>
</g>
<g clip-path="url(#clip103_309_110)">
<path d="M139.784 95.9955C140.657 95.9955 141.365 96.7031 141.365 97.5761C141.365 98.449 140.657 99.1567 139.784 99.1567C138.911 99.1567 138.203 98.449 138.203 97.5761C138.203 96.7031 138.911 95.9955 139.784 95.9955Z" fill="white"/>
</g>
<g opacity="0.7105" clip-path="url(#clip104_309_110)">
<path d="M186.24 135.875C187.144 135.875 187.877 136.608 187.877 137.511C187.877 138.415 187.144 139.147 186.24 139.147C185.337 139.147 184.604 138.415 184.604 137.511C184.604 136.608 185.337 135.875 186.24 135.875Z" fill="white"/>
</g>
<g opacity="0.6677" clip-path="url(#clip105_309_110)">
<path d="M196.286 159.107C197.273 159.107 198.072 159.907 198.072 160.893C198.072 161.879 197.273 162.679 196.286 162.679C195.299 162.679 194.5 161.879 194.5 160.893C194.5 159.907 195.299 159.107 196.286 159.107Z" fill="white"/>
</g>
<g opacity="0.6419" clip-path="url(#clip106_309_110)">
<path d="M215.233 173.995C215.988 173.995 216.599 174.606 216.599 175.36C216.599 176.114 215.988 176.725 215.233 176.725C214.479 176.725 213.868 176.114 213.868 175.36C213.868 174.606 214.479 173.995 215.233 173.995Z" fill="white"/>
</g>
<g opacity="0.6075" clip-path="url(#clip107_309_110)">
<path d="M205.145 117.255C205.883 117.255 206.481 117.853 206.481 118.59C206.481 119.328 205.883 119.926 205.145 119.926C204.407 119.926 203.809 119.328 203.809 118.59C203.809 117.853 204.407 117.255 205.145 117.255Z" fill="white"/>
</g>
<g opacity="0.4085" clip-path="url(#clip108_309_110)">
<path d="M220.813 121.809C221.522 121.809 222.096 122.383 222.096 123.092C222.096 123.8 221.522 124.375 220.813 124.375C220.104 124.375 219.53 123.8 219.53 123.092C219.53 122.383 220.104 121.809 220.813 121.809Z" fill="white"/>
</g>
<g opacity="0.6511" clip-path="url(#clip109_309_110)">
<path d="M175.173 182.04C175.778 182.04 176.268 182.53 176.268 183.134C176.268 183.739 175.778 184.229 175.173 184.229C174.569 184.229 174.079 183.739 174.079 183.134C174.079 182.53 174.569 182.04 175.173 182.04Z" fill="white"/>
</g>
<g opacity="0.4037" clip-path="url(#clip110_309_110)">
<path d="M140.796 241.17C141.202 241.17 141.531 241.498 141.531 241.904C141.531 242.31 141.202 242.639 140.796 242.639C140.39 242.639 140.061 242.31 140.061 241.904C140.061 241.498 140.39 241.17 140.796 241.17Z" fill="white"/>
</g>
<g opacity="0.2672" clip-path="url(#clip111_309_110)">
<path d="M124.145 274.523C125.014 274.523 125.719 275.228 125.719 276.096C125.719 276.965 125.014 277.67 124.145 277.67C123.276 277.67 122.572 276.965 122.572 276.096C122.572 275.228 123.276 274.523 124.145 274.523Z" fill="white"/>
</g>
<g opacity="0.2459" clip-path="url(#clip112_309_110)">
<path d="M124.155 280.384C125.121 280.384 125.904 281.166 125.904 282.132C125.904 283.097 125.121 283.88 124.155 283.88C123.189 283.88 122.406 283.097 122.406 282.132C122.406 281.166 123.189 280.384 124.155 280.384Z" fill="white"/>
</g>
<g opacity="0.5428" clip-path="url(#clip113_309_110)">
<path d="M86.437 249.022C86.8212 249.022 87.1327 249.334 87.1327 249.718C87.1327 250.102 86.8212 250.414 86.437 250.414C86.0527 250.414 85.7412 250.102 85.7412 249.718C85.7412 249.334 86.0527 249.022 86.437 249.022Z" fill="white"/>
</g>
<g clip-path="url(#clip114_309_110)">
<path d="M18.8019 244.404C19.2742 244.404 19.657 244.786 19.657 245.259C19.657 245.731 19.2742 246.114 18.8019 246.114C18.3296 246.114 17.9468 245.731 17.9468 245.259C17.9468 244.786 18.3296 244.404 18.8019 244.404Z" fill="white"/>
</g>
<g clip-path="url(#clip115_309_110)">
<path d="M25.4359 188.005C26.4116 188.005 27.2025 188.796 27.2025 189.771C27.2025 190.747 26.4116 191.537 25.4359 191.537C24.4603 191.537 23.6693 190.747 23.6693 189.771C23.6693 188.796 24.4603 188.005 25.4359 188.005Z" fill="white"/>
</g>
<g opacity="0.8626" clip-path="url(#clip116_309_110)">
<path d="M91.9138 168.427C92.6701 168.427 93.2833 169.04 93.2833 169.797C93.2833 170.553 92.6701 171.166 91.9138 171.166C91.1574 171.166 90.5442 170.553 90.5442 169.797C90.5442 169.04 91.1574 168.427 91.9138 168.427Z" fill="white"/>
</g>
<g opacity="0.3675" clip-path="url(#clip117_309_110)">
<path d="M204.059 203.343C204.559 203.343 204.963 203.748 204.963 204.247C204.963 204.746 204.559 205.151 204.059 205.151C203.56 205.151 203.156 204.746 203.156 204.247C203.156 203.748 203.56 203.343 204.059 203.343Z" fill="white"/>
</g>
<g opacity="0.1831" clip-path="url(#clip118_309_110)">
<path d="M210.705 232.573C211.127 232.573 211.468 232.915 211.468 233.336C211.468 233.757 211.127 234.098 210.705 234.098C210.284 234.098 209.943 233.757 209.943 233.336C209.943 232.915 210.284 232.573 210.705 232.573Z" fill="white"/>
</g>
<g opacity="0.1069" clip-path="url(#clip119_309_110)">
<path d="M276.228 221.037C276.798 221.037 277.26 221.499 277.26 222.069C277.26 222.639 276.798 223.101 276.228 223.101C275.658 223.101 275.195 222.639 275.195 222.069C275.195 221.499 275.658 221.037 276.228 221.037Z" fill="white"/>
</g>
<g opacity="0.2637" clip-path="url(#clip120_309_110)">
<path d="M289.573 193.191C290.108 193.191 290.542 193.625 290.542 194.16C290.542 194.695 290.108 195.129 289.573 195.129C289.037 195.129 288.603 194.695 288.603 194.16C288.603 193.625 289.037 193.191 289.573 193.191Z" fill="white"/>
</g>
<g opacity="0.2134" clip-path="url(#clip121_309_110)">
<path d="M287.322 202.215C287.87 202.215 288.313 202.659 288.313 203.206C288.313 203.753 287.87 204.197 287.322 204.197C286.775 204.197 286.331 203.753 286.331 203.206C286.331 202.659 286.775 202.215 287.322 202.215Z" fill="white"/>
</g>
<g opacity="0.8807" clip-path="url(#clip122_309_110)">
<path d="M349.509 221.104C350.054 221.104 350.495 221.545 350.495 222.089C350.495 222.633 350.054 223.074 349.509 223.074C348.965 223.074 348.524 222.633 348.524 222.089C348.524 221.545 348.965 221.104 349.509 221.104Z" fill="white"/>
</g>
<g opacity="0.95" clip-path="url(#clip123_309_110)">
<path d="M368.345 265.555C368.864 265.555 369.285 265.976 369.285 266.495C369.285 267.014 368.864 267.435 368.345 267.435C367.826 267.435 367.405 267.014 367.405 266.495C367.405 265.976 367.826 265.555 368.345 265.555Z" fill="white"/>
</g>
<g opacity="0.6112" clip-path="url(#clip124_309_110)">
<path d="M384.999 231.168C385.515 231.168 385.933 231.586 385.933 232.101C385.933 232.617 385.515 233.035 384.999 233.035C384.483 233.035 384.065 232.617 384.065 232.101C384.065 231.586 384.483 231.168 384.999 231.168Z" fill="white"/>
</g>
<g opacity="0.6301" clip-path="url(#clip125_309_110)">
<path d="M369.41 143.775C370.318 143.775 371.053 144.51 371.053 145.417C371.053 146.324 370.318 147.06 369.41 147.06C368.503 147.06 367.768 146.324 367.768 145.417C367.768 144.51 368.503 143.775 369.41 143.775Z" fill="white"/>
</g>
<g opacity="0.6373" clip-path="url(#clip126_309_110)">
<path d="M373.857 124.738C374.789 124.738 375.544 125.493 375.544 126.424C375.544 127.355 374.789 128.11 373.857 128.11C372.926 128.11 372.171 127.355 372.171 126.424C372.171 125.493 372.926 124.738 373.857 124.738Z" fill="white"/>
</g>
<g opacity="0.7705" clip-path="url(#clip127_309_110)">
<path d="M426.093 114.523C426.75 114.523 427.284 115.056 427.284 115.714C427.284 116.372 426.75 116.905 426.093 116.905C425.435 116.905 424.901 116.372 424.901 115.714C424.901 115.056 425.435 114.523 426.093 114.523Z" fill="white"/>
</g>
<g opacity="0.5741" clip-path="url(#clip128_309_110)">
<path d="M417.215 187.918C418.242 187.918 419.075 188.751 419.075 189.778C419.075 190.805 418.242 191.637 417.215 191.637C416.188 191.637 415.355 190.805 415.355 189.778C415.355 188.751 416.188 187.918 417.215 187.918Z" fill="white"/>
</g>
<g opacity="0.9577" clip-path="url(#clip129_309_110)">
<path d="M320.657 24.1571C321.23 24.1571 321.693 24.6208 321.693 25.1928C321.693 25.7647 321.23 26.2284 320.657 26.2284C320.085 26.2284 319.622 25.7647 319.622 25.1928C319.622 24.6208 320.085 24.1571 320.657 24.1571Z" fill="white"/>
</g>
<g clip-path="url(#clip130_309_110)">
<path d="M101.968 57.8772C103.015 57.8772 103.864 58.726 103.864 59.7732C103.864 60.8203 103.015 61.6692 101.968 61.6692C100.92 61.6692 100.071 60.8203 100.071 59.7732C100.071 58.726 100.92 57.8772 101.968 57.8772Z" fill="white"/>
</g>
<g clip-path="url(#clip131_309_110)">
<path d="M3.3259 278.983C3.70537 278.983 4.013 279.291 4.013 279.67C4.013 280.05 3.70537 280.357 3.3259 280.357C2.94642 280.357 2.63879 280.05 2.63879 279.67C2.63879 279.291 2.94642 278.983 3.3259 278.983Z" fill="white"/>
</g>
<g opacity="0.6278" clip-path="url(#clip132_309_110)">
<path d="M77.4574 245.638C77.851 245.638 78.1701 245.957 78.1701 246.351C78.1701 246.744 77.851 247.063 77.4574 247.063C77.0638 247.063 76.7448 246.744 76.7448 246.351C76.7448 245.957 77.0638 245.638 77.4574 245.638Z" fill="white"/>
</g>
<g opacity="0.9715" clip-path="url(#clip133_309_110)">
<path d="M38.7477 322.229C39.1721 322.229 39.5161 322.573 39.5161 322.997C39.5161 323.422 39.1721 323.765 38.7477 323.765C38.3233 323.765 37.9792 323.422 37.9792 322.997C37.9792 322.573 38.3233 322.229 38.7477 322.229Z" fill="white"/>
</g>
<g opacity="0.1906" clip-path="url(#clip134_309_110)">
<path d="M121.964 307.219C122.736 307.219 123.361 307.845 123.361 308.616C123.361 309.387 122.736 310.013 121.964 310.013C121.193 310.013 120.567 309.387 120.567 308.616C120.567 307.845 121.193 307.219 121.964 307.219Z" fill="white"/>
</g>
<g opacity="0.3942" clip-path="url(#clip135_309_110)">
<path d="M90.8503 347.73C91.325 347.73 91.7098 348.114 91.7098 348.589C91.7098 349.064 91.325 349.448 90.8503 349.448C90.3756 349.448 89.9907 349.064 89.9907 348.589C89.9907 348.114 90.3756 347.73 90.8503 347.73Z" fill="white"/>
</g>
<g opacity="0.4624" clip-path="url(#clip136_309_110)">
<path d="M80.8232 322.233C81.2503 322.233 81.5966 322.579 81.5966 323.006C81.5966 323.433 81.2503 323.779 80.8232 323.779C80.3961 323.779 80.0498 323.433 80.0498 323.006C80.0498 322.579 80.3961 322.233 80.8232 322.233Z" fill="white"/>
</g>
<g clip-path="url(#clip137_309_110)">
<path d="M35.4919 410.71C36.0496 410.71 36.5017 411.162 36.5017 411.72C36.5017 412.277 36.0496 412.729 35.4919 412.729C34.9342 412.729 34.4821 412.277 34.4821 411.72C34.4821 411.162 34.9342 410.71 35.4919 410.71Z" fill="white"/>
</g>
<g clip-path="url(#clip138_309_110)">
<path d="M27.6476 419.681C28.2161 419.681 28.6769 420.142 28.6769 420.71C28.6769 421.278 28.2161 421.739 27.6476 421.739C27.0791 421.739 26.6183 421.278 26.6183 420.71C26.6183 420.142 27.0791 419.681 27.6476 419.681Z" fill="white"/>
</g>
<g clip-path="url(#clip139_309_110)">
<path d="M3.33965 453.784C4.03974 453.784 4.60728 454.351 4.60728 455.051C4.60728 455.751 4.03974 456.319 3.33965 456.319C2.63956 456.319 2.07202 455.751 2.07202 455.051C2.07202 454.351 2.63956 453.784 3.33965 453.784Z" fill="white"/>
</g>
<g clip-path="url(#clip140_309_110)">
<path d="M69.8086 428.595C70.3779 428.595 70.8393 429.056 70.8393 429.625C70.8393 430.195 70.3779 430.656 69.8086 430.656C69.2393 430.656 68.7778 430.195 68.7778 429.625C68.7778 429.056 69.2393 428.595 69.8086 428.595Z" fill="white"/>
</g>
<g opacity="0.988" clip-path="url(#clip141_309_110)">
<path d="M78.7658 419.621C79.3321 419.621 79.7912 420.08 79.7912 420.646C79.7912 421.212 79.3321 421.671 78.7658 421.671C78.1994 421.671 77.7404 421.212 77.7404 420.646C77.7404 420.08 78.1994 419.621 78.7658 419.621Z" fill="white"/>
</g>
<g clip-path="url(#clip142_309_110)">
<path d="M72.0358 479.753C72.5787 479.753 73.0188 480.193 73.0188 480.736C73.0188 481.279 72.5787 481.719 72.0358 481.719C71.4929 481.719 71.0527 481.279 71.0527 480.736C71.0527 480.193 71.4929 479.753 72.0358 479.753Z" fill="white"/>
</g>
<g opacity="0.9705" clip-path="url(#clip143_309_110)">
<path d="M86.5035 467.463C87.0546 467.463 87.5014 467.909 87.5014 468.46C87.5014 469.011 87.0546 469.458 86.5035 469.458C85.9524 469.458 85.5056 469.011 85.5056 468.46C85.5056 467.909 85.9524 467.463 86.5035 467.463Z" fill="white"/>
</g>
<g opacity="0.8498" clip-path="url(#clip144_309_110)">
<path d="M92.0258 504.267C92.5514 504.267 92.9776 504.693 92.9776 505.219C92.9776 505.744 92.5514 506.17 92.0258 506.17C91.5001 506.17 91.074 505.744 91.074 505.219C91.074 504.693 91.5001 504.267 92.0258 504.267Z" fill="white"/>
</g>
<g opacity="0.9547" clip-path="url(#clip145_309_110)">
<path d="M117.515 488.595C118.083 488.595 118.544 489.055 118.544 489.624C118.544 490.192 118.083 490.653 117.515 490.653C116.946 490.653 116.486 490.192 116.486 489.624C116.486 489.055 116.946 488.595 117.515 488.595Z" fill="white"/>
</g>
<g opacity="0.913" clip-path="url(#clip146_309_110)">
<path d="M130.905 472.956C131.495 472.956 131.974 473.434 131.974 474.024C131.974 474.614 131.495 475.092 130.905 475.092C130.315 475.092 129.837 474.614 129.837 474.024C129.837 473.434 130.315 472.956 130.905 472.956Z" fill="white"/>
</g>
<g opacity="0.1995" clip-path="url(#clip147_309_110)">
<path d="M120.798 385.337C121.332 385.337 121.764 385.769 121.764 386.303C121.764 386.836 121.332 387.269 120.798 387.269C120.265 387.269 119.832 386.836 119.832 386.303C119.832 385.769 120.265 385.337 120.798 385.337Z" fill="white"/>
</g>
<g opacity="0.2381" clip-path="url(#clip148_309_110)">
<path d="M108.574 319.816C109.147 319.816 109.612 320.281 109.612 320.854C109.612 321.428 109.147 321.892 108.574 321.892C108 321.892 107.536 321.428 107.536 320.854C107.536 320.281 108 319.816 108.574 319.816Z" fill="white"/>
</g>
<g opacity="0.1031" clip-path="url(#clip149_309_110)">
<path d="M146.408 328.799C146.913 328.799 147.322 329.208 147.322 329.712C147.322 330.217 146.913 330.626 146.408 330.626C145.904 330.626 145.495 330.217 145.495 329.712C145.495 329.208 145.904 328.799 146.408 328.799Z" fill="white"/>
</g>
<g opacity="0.2738" clip-path="url(#clip150_309_110)">
<path d="M177.501 332.326C177.891 332.326 178.207 332.642 178.207 333.032C178.207 333.422 177.891 333.738 177.501 333.738C177.111 333.738 176.795 333.422 176.795 333.032C176.795 332.642 177.111 332.326 177.501 332.326Z" fill="white"/>
</g>
<g opacity="0.392" clip-path="url(#clip151_309_110)">
<path d="M190.846 317.911C191.229 317.911 191.539 318.221 191.539 318.603C191.539 318.986 191.229 319.296 190.846 319.296C190.464 319.296 190.154 318.986 190.154 318.603C190.154 318.221 190.464 317.911 190.846 317.911Z" fill="white"/>
</g>
<g opacity="0.2603" clip-path="url(#clip152_309_110)">
<path d="M181.914 295.687C182.294 295.687 182.601 295.994 182.601 296.373C182.601 296.753 182.294 297.06 181.914 297.06C181.535 297.06 181.228 296.753 181.228 296.373C181.228 295.994 181.535 295.687 181.914 295.687Z" fill="white"/>
</g>
<g opacity="0.2929" clip-path="url(#clip153_309_110)">
<path d="M147.535 255.472C148.042 255.472 148.453 255.883 148.453 256.389C148.453 256.896 148.042 257.307 147.535 257.307C147.028 257.307 146.617 256.896 146.617 256.389C146.617 255.883 147.028 255.472 147.535 255.472Z" fill="white"/>
</g>
<g opacity="0.5478" clip-path="url(#clip154_309_110)">
<path d="M141.888 216.853C142.264 216.853 142.569 217.158 142.569 217.534C142.569 217.91 142.264 218.215 141.888 218.215C141.511 218.215 141.206 217.91 141.206 217.534C141.206 217.158 141.511 216.853 141.888 216.853Z" fill="white"/>
</g>
<g opacity="0.5932" clip-path="url(#clip155_309_110)">
<path d="M113.03 180.001C113.533 180.001 113.941 180.409 113.941 180.912C113.941 181.415 113.533 181.822 113.03 181.822C112.527 181.822 112.119 181.415 112.119 180.912C112.119 180.409 112.527 180.001 113.03 180.001Z" fill="white"/>
</g>
<g opacity="0.5122" clip-path="url(#clip156_309_110)">
<path d="M138.542 177.798C139.007 177.798 139.384 178.175 139.384 178.64C139.384 179.105 139.007 179.482 138.542 179.482C138.077 179.482 137.7 179.105 137.7 178.64C137.7 178.175 138.077 177.798 138.542 177.798Z" fill="white"/>
</g>
<g opacity="0.5813" clip-path="url(#clip157_309_110)">
<path d="M152.982 191.233C153.418 191.233 153.772 191.587 153.772 192.023C153.772 192.459 153.418 192.813 152.982 192.813C152.546 192.813 152.192 192.459 152.192 192.023C152.192 191.587 152.546 191.233 152.982 191.233Z" fill="white"/>
</g>
<g opacity="0.9997" clip-path="url(#clip158_309_110)">
<path d="M95.2655 139.845C95.8501 139.845 96.324 140.319 96.324 140.903C96.324 141.487 95.8501 141.961 95.2655 141.961C94.6809 141.961 94.207 141.487 94.207 140.903C94.207 140.319 94.6809 139.845 95.2655 139.845Z" fill="white"/>
</g>
<g clip-path="url(#clip159_309_110)">
<path d="M13.2703 104.275C13.9159 104.275 14.4392 104.798 14.4392 105.443C14.4392 106.089 13.9159 106.612 13.2703 106.612C12.6248 106.612 12.1014 106.089 12.1014 105.443C12.1014 104.798 12.6248 104.275 13.2703 104.275Z" fill="white"/>
</g>
<g clip-path="url(#clip160_309_110)">
<path d="M17.6567 65.9834C18.5779 65.9834 19.3247 66.73 19.3247 67.651C19.3247 68.5719 18.5779 69.3185 17.6567 69.3185C16.7355 69.3185 15.9888 68.5719 15.9888 67.651C15.9888 66.73 16.7355 65.9834 17.6567 65.9834Z" fill="white"/>
</g>
<g clip-path="url(#clip161_309_110)">
<path d="M45.1829 16.8376C45.7521 16.8376 46.2136 17.2989 46.2136 17.8681C46.2136 18.4372 45.7521 18.8986 45.1829 18.8986C44.6136 18.8986 44.1521 18.4372 44.1521 17.8681C44.1521 17.2989 44.6136 16.8376 45.1829 16.8376Z" fill="white"/>
</g>
<g clip-path="url(#clip162_309_110)">
<path d="M46.8567 15.1602C47.426 15.1602 47.8874 15.6216 47.8874 16.1907C47.8874 16.7598 47.426 17.2212 46.8567 17.2212C46.2874 17.2212 45.8259 16.7598 45.8259 16.1907C45.8259 15.6216 46.2874 15.1602 46.8567 15.1602Z" fill="white"/>
</g>
<g opacity="0.1496" clip-path="url(#clip163_309_110)">
<path d="M170.348 402.781C171.353 402.781 172.168 403.596 172.168 404.601C172.168 405.606 171.353 406.421 170.348 406.421C169.343 406.421 168.528 405.606 168.528 404.601C168.528 403.596 169.343 402.781 170.348 402.781Z" fill="white"/>
</g>
<g opacity="0.2549" clip-path="url(#clip164_309_110)">
<path d="M187.285 414.291C188.411 414.291 189.324 415.204 189.324 416.329C189.324 417.455 188.411 418.367 187.285 418.367C186.16 418.367 185.247 417.455 185.247 416.329C185.247 415.204 186.16 414.291 187.285 414.291Z" fill="white"/>
</g>
<g opacity="0.6387" clip-path="url(#clip165_309_110)">
<path d="M150.95 431.665C151.739 431.665 152.378 432.304 152.378 433.092C152.378 433.881 151.739 434.52 150.95 434.52C150.162 434.52 149.522 433.881 149.522 433.092C149.522 432.304 150.162 431.665 150.95 431.665Z" fill="white"/>
</g>
<g opacity="0.0681" clip-path="url(#clip166_309_110)">
<path d="M160.011 375.044C160.592 375.044 161.063 375.515 161.063 376.096C161.063 376.677 160.592 377.148 160.011 377.148C159.429 377.148 158.958 376.677 158.958 376.096C158.958 375.515 159.429 375.044 160.011 375.044Z" fill="white"/>
</g>
<g opacity="0.1077" clip-path="url(#clip167_309_110)">
<path d="M143.12 385.424C143.71 385.424 144.187 385.902 144.187 386.491C144.187 387.08 143.71 387.557 143.12 387.557C142.531 387.557 142.054 387.08 142.054 386.491C142.054 385.902 142.531 385.424 143.12 385.424Z" fill="white"/>
</g>
<g opacity="0.7645" clip-path="url(#clip168_309_110)">
<path d="M351.337 503.934C352.222 503.934 352.94 504.652 352.94 505.538C352.94 506.423 352.222 507.141 351.337 507.141C350.451 507.141 349.733 506.423 349.733 505.538C349.733 504.652 350.451 503.934 351.337 503.934Z" fill="white"/>
</g>
<g opacity="0.6135" clip-path="url(#clip169_309_110)">
<path d="M322.912 476.989C324.364 476.989 325.54 478.166 325.54 479.617C325.54 481.068 324.364 482.245 322.912 482.245C321.46 482.245 320.283 481.068 320.283 479.617C320.283 478.166 321.46 476.989 322.912 476.989Z" fill="white"/>
</g>
<g opacity="0.4784" clip-path="url(#clip170_309_110)">
<path d="M302.812 451.623C303.676 451.623 304.376 452.323 304.376 453.186C304.376 454.05 303.676 454.749 302.812 454.749C301.949 454.749 301.249 454.05 301.249 453.186C301.249 452.323 301.949 451.623 302.812 451.623Z" fill="white"/>
</g>
<g opacity="0.4784" clip-path="url(#clip171_309_110)">
<path d="M304.134 449.975C304.968 449.975 305.643 450.65 305.643 451.483C305.643 452.316 304.968 452.992 304.134 452.992C303.301 452.992 302.626 452.316 302.626 451.483C302.626 450.65 303.301 449.975 304.134 449.975Z" fill="white"/>
</g>
<g opacity="0.4963" clip-path="url(#clip172_309_110)">
<path d="M262.121 166.782C262.677 166.782 263.127 167.233 263.127 167.788C263.127 168.343 262.677 168.794 262.121 168.794C261.566 168.794 261.115 168.343 261.115 167.788C261.115 167.233 261.566 166.782 262.121 166.782Z" fill="white"/>
</g>
<g opacity="0.1262" clip-path="url(#clip173_309_110)">
<path d="M245.326 210.906C245.834 210.906 246.246 211.317 246.246 211.825C246.246 212.333 245.834 212.744 245.326 212.744C244.818 212.744 244.407 212.333 244.407 211.825C244.407 211.317 244.818 210.906 245.326 210.906Z" fill="white"/>
</g>
<g opacity="0.1387" clip-path="url(#clip174_309_110)">
<path d="M229.842 234.326C230.313 234.326 230.695 234.708 230.695 235.179C230.695 235.65 230.313 236.032 229.842 236.032C229.37 236.032 228.988 235.65 228.988 235.179C228.988 234.708 229.37 234.326 229.842 234.326Z" fill="white"/>
</g>
</g>
</g>
<mask id="mask1_309_110" style="mask-type:alpha" maskUnits="userSpaceOnUse" x="0" y="367" width="430" height="233">
<rect y="367" width="430" height="233" fill="#D9D9D9"/>
</mask>
<g mask="url(#mask1_309_110)">
<rect x="13" y="574" width="429" height="125" fill="#EAE9EE"/>
<path fill-rule="evenodd" clip-rule="evenodd" d="M463 488.5C463 516.55 441.003 539.461 413.318 540.926C403.843 550.248 390.843 556 376.5 556C364.986 556 354.337 552.293 345.682 546.008C341.433 549.906 336.295 552.85 330.607 554.5C346.432 559.091 358 573.694 358 591C358 611.987 340.987 629 320 629C300.023 629 283.646 613.584 282.117 594L282 594C271.968 594 262.844 590.113 256.053 583.762C249.517 595.251 237.163 603 223 603C208.837 603 196.483 595.251 189.947 583.762C183.156 590.113 174.032 594 164 594C163.961 594 163.922 594 163.883 594C162.354 613.584 145.977 629 126 629C122.594 629 119.292 628.552 116.151 627.711C100.741 641.568 80.3554 650 58 650C11.5905 650 -26.3316 613.661 -28.8652 567.885C-48.5679 557.501 -62 536.819 -62 513C-62 478.758 -34.2417 451 0 451C20.5349 451 38.7382 460.983 50.021 476.361C52.6487 476.122 55.3101 476 58 476C78.1285 476 96.6605 482.836 111.401 494.312C116.663 491.558 122.649 490 129 490C146.539 490 161.303 501.883 165.68 518.036C179.136 518.622 190.777 526.205 197.053 537.238C203.844 530.887 212.968 527 223 527C233.032 527 242.156 530.887 248.947 537.238C255.483 525.749 267.837 518 282 518C282 497.013 299.013 480 320 480C323.107 480 326.126 480.373 329.016 481.076C337.047 464.099 353.915 452.12 373.682 451.074C383.157 441.752 396.157 436 410.5 436C439.495 436 463 459.505 463 488.5Z" fill="url(#paint1_linear_309_110)"/>
<path fill-rule="evenodd" clip-rule="evenodd" d="M-8.51363 529.203C-10.1243 524.6 -11 519.653 -11 514.5C-11 489.923 8.92333 470 33.5 470C54.8555 470 72.6975 485.043 77.0076 505.111C85.8625 507.009 94.2595 510.141 102.01 514.318C108.024 510.326 115.24 508 123 508C143.676 508 160.495 524.513 160.989 545.069C177.637 549.107 190 564.11 190 582C204.163 582 216.517 589.749 223.053 601.238C226.711 597.817 231.047 595.111 235.836 593.342C240.096 584.622 247.595 577.775 256.767 574.368C260.3 557.039 275.627 544 294 544C299.263 544 304.276 545.07 308.833 547.004C325.698 520.548 355.3 503 389 503C391.525 503 394.028 503.099 396.504 503.292C403.169 492.325 415.229 485 429 485C449.987 485 467 502.013 467 523C467 528.72 465.736 534.146 463.472 539.012C476.324 555.216 484 575.711 484 598C484 650.467 441.467 693 389 693C379.796 693 370.898 691.691 362.482 689.249C357.496 691.653 351.905 693 346 693C325.013 693 308 675.987 308 655C308 652.799 308.187 650.642 308.546 648.543C305.397 643.54 302.701 638.222 300.516 632.648C296.155 638.515 290.141 643.081 283.164 645.658C276.99 658.295 264.012 667 249 667C234.837 667 222.483 659.251 215.947 647.762C209.156 654.113 200.032 658 190 658C189.961 658 189.922 658 189.883 658C188.354 677.584 171.977 693 152 693C136.794 693 123.674 684.068 117.6 671.165C101.154 684.802 80.0341 693 57 693C4.53295 693 -38 650.467 -38 598C-38 570.931 -26.679 546.507 -8.51363 529.203Z" fill="url(#paint2_linear_309_110)"/>
<g filter="url(#filter0_d_309_110)">
<path fill-rule="evenodd" clip-rule="evenodd" d="M467 479C467 484.72 465.736 490.146 463.472 495.012C476.324 511.216 484 531.711 484 554C484 606.467 441.467 649 389 649C379.796 649 370.898 647.691 362.482 645.249C357.496 647.653 351.905 649 346 649C325.013 649 308 631.987 308 611C308 608.799 308.187 606.642 308.546 604.543C305.397 599.54 302.701 594.222 300.516 588.648C296.155 594.515 290.141 599.081 283.164 601.658C276.99 614.295 264.012 623 249 623C234.837 623 222.483 615.251 215.947 603.762C209.156 610.113 200.032 614 190 614C189.961 614 189.922 614 189.883 614C188.354 633.584 171.977 649 152 649C131.013 649 114 631.987 114 611C114 593.694 125.568 579.091 141.393 574.5C131.107 571.516 122.619 564.302 117.938 554.865C108.549 564.8 95.2487 571 80.5 571C52.0828 571 29.0414 547.984 29.0001 519.577C27.2076 519.855 25.3707 520 23.5 520C3.89389 520 -12 504.106 -12 484.5C-12 464.894 3.89389 449 23.5 449C39.2755 449 52.6476 459.29 57.2707 473.524C64.2499 469.991 72.1425 468 80.5 468C92.6153 468 103.753 472.183 112.549 479.185C115.571 478.411 118.737 478 122 478C137.379 478 150.624 487.136 156.604 500.276C175.42 502.549 190 518.572 190 538C204.163 538 216.517 545.749 223.053 557.238C226.711 553.817 231.047 551.111 235.836 549.342C240.096 540.622 247.595 533.775 256.767 530.368C260.3 513.039 275.627 500 294 500C299.263 500 304.276 501.07 308.833 503.004C325.698 476.548 355.3 459 389 459C391.525 459 394.028 459.099 396.504 459.292C403.169 448.325 415.229 441 429 441C449.987 441 467 458.013 467 479Z" fill="url(#paint3_linear_309_110)" shape-rendering="crispEdges"/>
</g>
<g filter="url(#filter1_d_309_110)">
<path fill-rule="evenodd" clip-rule="evenodd" d="M457 515C457 520.72 455.736 526.146 453.472 531.012C466.324 547.216 474 567.711 474 590C474 642.467 431.467 685 379 685C369.796 685 360.898 683.691 352.482 681.249C347.496 683.653 341.905 685 336 685C315.013 685 298 667.987 298 647C298 644.799 298.187 642.642 298.546 640.543C295.397 635.54 292.701 630.222 290.516 624.648C286.155 630.515 280.141 635.081 273.164 637.658C266.99 650.295 254.012 659 239 659C224.837 659 212.483 651.251 205.947 639.762C199.156 646.113 190.032 650 180 650C179.961 650 179.922 650 179.883 650C178.354 669.584 161.977 685 142 685C121.013 685 104 667.987 104 647C104 629.694 115.568 615.091 131.393 610.5C121.107 607.516 112.619 600.302 107.938 590.865C98.5493 600.8 85.2487 607 70.5 607C42.0828 607 19.0414 583.984 19.0001 555.577C17.2076 555.855 15.3707 556 13.5 556C-6.10611 556 -22 540.106 -22 520.5C-22 500.894 -6.10611 485 13.5 485C29.2755 485 42.6476 495.29 47.2707 509.524C54.2499 505.991 62.1425 504 70.5 504C82.6153 504 93.7535 508.183 102.549 515.185C105.571 514.411 108.737 514 112 514C127.379 514 140.624 523.136 146.604 536.276C165.42 538.549 180 554.572 180 574C194.163 574 206.517 581.749 213.053 593.238C216.711 589.817 221.047 587.111 225.836 585.342C230.096 576.622 237.595 569.775 246.767 566.368C250.3 549.039 265.627 536 284 536C289.263 536 294.276 537.07 298.833 539.004C315.698 512.548 345.3 495 379 495C381.525 495 384.028 495.099 386.504 495.292C393.169 484.325 405.229 477 419 477C439.987 477 457 494.013 457 515Z" fill="url(#paint4_linear_309_110)" shape-rendering="crispEdges"/>
</g>
<circle cx="51.5" cy="51.5" r="51.5" transform="matrix(-1 0 0 1 86 525)" fill="#EAE9EE"/>
<circle cx="51.5" cy="51.5" r="51.5" transform="matrix(-1 0 0 1 147 545)" fill="#EAE9EE"/>
<circle cx="51.5" cy="51.5" r="51.5" transform="matrix(-1 0 0 1 446 522)" fill="#EAE9EE"/>
<circle cx="51.5" cy="51.5" r="51.5" transform="matrix(-1 0 0 1 421 533)" fill="#EAE9EE"/>
</g>
<defs>
<filter id="filter0_d_309_110" x="-16" y="433" width="504" height="216" filterUnits="userSpaceOnUse" color-interpolation-filters="sRGB">
<feFlood flood-opacity="0" result="BackgroundImageFix"/>
<feColorMatrix in="SourceAlpha" type="matrix" values="0 0 0 0 0 0 0 0 0 0 0 0 0 0 0 0 0 0 127 0" result="hardAlpha"/>
<feOffset dy="-4"/>
<feGaussianBlur stdDeviation="2"/>
<feComposite in2="hardAlpha" operator="out"/>
<feColorMatrix type="matrix" values="0 0 0 0 0 0 0 0 0 0 0 0 0 0 0 0 0 0 0.01 0"/>
<feBlend mode="normal" in2="BackgroundImageFix" result="effect1_dropShadow_309_110"/>
<feBlend mode="normal" in="SourceGraphic" in2="effect1_dropShadow_309_110" result="shape"/>
</filter>
<filter id="filter1_d_309_110" x="-37" y="458" width="526" height="238" filterUnits="userSpaceOnUse" color-interpolation-filters="sRGB">
<feFlood flood-opacity="0" result="BackgroundImageFix"/>
<feColorMatrix in="SourceAlpha" type="matrix" values="0 0 0 0 0 0 0 0 0 0 0 0 0 0 0 0 0 0 127 0" result="hardAlpha"/>
<feOffset dy="-4"/>
<feGaussianBlur stdDeviation="7.5"/>
<feComposite in2="hardAlpha" operator="out"/>
<feColorMatrix type="matrix" values="0 0 0 0 0 0 0 0 0 0 0 0 0 0 0 0 0 0 0.04 0"/>
<feBlend mode="normal" in2="BackgroundImageFix" result="effect1_dropShadow_309_110"/>
<feBlend mode="normal" in="SourceGraphic" in2="effect1_dropShadow_309_110" result="shape"/>
</filter>
<linearGradient id="paint0_linear_309_110" x1="215.501" y1="-36.4064" x2="214.946" y2="592" gradientUnits="userSpaceOnUse">
<stop stop-color="#164F6B"/>
<stop offset="0.275" stop-color="#056281"/>
<stop offset="0.592708" stop-color="#218A93"/>
<stop offset="1" stop-color="#C1B48F"/>
</linearGradient>
<linearGradient id="paint1_linear_309_110" x1="223" y1="439" x2="223" y2="576.5" gradientUnits="userSpaceOnUse">
<stop stop-color="#EAE9EE"/>
<stop offset="0.303647" stop-color="#EAE9EE" stop-opacity="0.57"/>
<stop offset="0.583333" stop-color="#EAE9EE" stop-opacity="0.57"/>
<stop offset="1" stop-color="#EAE9EE"/>
</linearGradient>
<linearGradient id="paint2_linear_309_110" x1="249" y1="503" x2="249" y2="640.5" gradientUnits="userSpaceOnUse">
<stop stop-color="#EAE9EE"/>
<stop offset="0.303647" stop-color="#EAE9EE" stop-opacity="0.57"/>
<stop offset="0.583333" stop-color="#EAE9EE" stop-opacity="0.57"/>
<stop offset="1" stop-color="#EAE9EE"/>
</linearGradient>
<linearGradient id="paint3_linear_309_110" x1="249" y1="459" x2="249" y2="596.5" gradientUnits="userSpaceOnUse">
<stop stop-color="#EAE9EE"/>
<stop offset="0.303647" stop-color="#EAE9EE" stop-opacity="0.57"/>
<stop offset="0.583333" stop-color="#EAE9EE" stop-opacity="0.57"/>
<stop offset="1" stop-color="#EAE9EE"/>
</linearGradient>
<linearGradient id="paint4_linear_309_110" x1="239" y1="495" x2="271" y2="614.5" gradientUnits="userSpaceOnUse">
<stop stop-color="#EAE9EE"/>
<stop offset="0.303647" stop-color="#EAE9EE" stop-opacity="0.57"/>
<stop offset="0.583333" stop-color="#EAE9EE" stop-opacity="0.57"/>
</linearGradient>
<clipPath id="clip0_309_110">
<rect width="9.91027" height="9.90788" fill="white" transform="matrix(1 0 0 -1 -7.51929 292.74)"/>
</clipPath>
<clipPath id="clip1_309_110">
<rect width="8.31329" height="8.31128" fill="white" transform="matrix(1 0 0 -1 297.405 163.39)"/>
</clipPath>
<clipPath id="clip2_309_110">
<rect width="8.12125" height="8.11929" fill="white" transform="matrix(1 0 0 -1 193.713 98.4044)"/>
</clipPath>
<clipPath id="clip3_309_110">
<rect width="5.13928" height="5.13804" fill="white" transform="matrix(1 0 0 -1 369.816 322.225)"/>
</clipPath>
<clipPath id="clip4_309_110">
<rect width="11.7991" height="11.7962" fill="white" transform="matrix(1 0 0 -1 205.341 527.041)"/>
</clipPath>
<clipPath id="clip5_309_110">
<rect width="8.86945" height="8.86731" fill="white" transform="matrix(1 0 0 -1 13.3071 446.002)"/>
</clipPath>
<clipPath id="clip6_309_110">
<rect width="8.31329" height="8.31128" fill="white" transform="matrix(1 0 0 -1 65.1478 561.802)"/>
</clipPath>
<clipPath id="clip7_309_110">
<rect width="7.88432" height="7.88242" fill="white" transform="matrix(1 0 0 -1 122.104 60.8522)"/>
</clipPath>
<clipPath id="clip8_309_110">
<rect width="8.31329" height="8.31128" fill="white" transform="matrix(1 0 0 -1 427.875 68.1544)"/>
</clipPath>
<clipPath id="clip9_309_110">
<rect width="8.31329" height="8.31128" fill="white" transform="matrix(1 0 0 -1 320.507 63.0882)"/>
</clipPath>
<clipPath id="clip10_309_110">
<rect width="6.13438" height="6.1329" fill="white" transform="matrix(1 0 0 -1 421.571 270.174)"/>
</clipPath>
<clipPath id="clip11_309_110">
<rect width="15.7055" height="15.7017" fill="white" transform="matrix(1 0 0 -1 274.305 422.547)"/>
</clipPath>
<clipPath id="clip12_309_110">
<rect width="8.31329" height="8.31128" fill="white" transform="matrix(1 0 0 -1 413.087 438.249)"/>
</clipPath>
<clipPath id="clip13_309_110">
<rect width="8.41638" height="8.41434" fill="white" transform="matrix(1 0 0 -1 315.471 527.396)"/>
</clipPath>
<clipPath id="clip14_309_110">
<rect width="12.3112" height="12.3082" fill="white" transform="matrix(1 0 0 -1 194.925 317.429)"/>
</clipPath>
<clipPath id="clip15_309_110">
<rect width="9.11635" height="9.11415" fill="white" transform="matrix(1 0 0 -1 40.3827 158.751)"/>
</clipPath>
<clipPath id="clip16_309_110">
<rect width="8.21935" height="8.21737" fill="white" transform="matrix(1 0 0 -1 126.008 187.717)"/>
</clipPath>
<clipPath id="clip17_309_110">
<rect width="8.31329" height="8.31128" fill="white" transform="matrix(1 0 0 -1 400.834 150.217)"/>
</clipPath>
<clipPath id="clip18_309_110">
<rect width="10.8197" height="10.8171" fill="white" transform="matrix(1 0 0 -1 99.4058 448.491)"/>
</clipPath>
<clipPath id="clip19_309_110">
<rect width="8.31329" height="8.31128" fill="white" transform="matrix(1 0 0 -1 139.163 564.857)"/>
</clipPath>
<clipPath id="clip20_309_110">
<rect width="8.77135" height="8.76923" fill="white" transform="matrix(1 0 0 -1 229.083 23.7692)"/>
</clipPath>
<clipPath id="clip21_309_110">
<rect width="11.3884" height="11.3856" fill="white" transform="matrix(1 0 0 -1 53.4172 32.1917)"/>
</clipPath>
<clipPath id="clip22_309_110">
<rect width="16.8261" height="16.822" fill="white" transform="matrix(1 0 0 -1 83.5447 348.027)"/>
</clipPath>
<clipPath id="clip23_309_110">
<rect width="6.51014" height="6.50857" fill="white" transform="matrix(1 0 0 -1 312.64 276.521)"/>
</clipPath>
<clipPath id="clip24_309_110">
<rect width="2.53846" height="2.53785" fill="white" transform="matrix(1 0 0 -1 30.5441 66.7248)"/>
</clipPath>
<clipPath id="clip25_309_110">
<rect width="1.79166" height="1.79123" fill="white" transform="matrix(1 0 0 -1 20.3983 520.449)"/>
</clipPath>
<clipPath id="clip26_309_110">
<rect width="1.74875" height="1.74833" fill="white" transform="matrix(1 0 0 -1 17.3298 527.371)"/>
</clipPath>
<clipPath id="clip27_309_110">
<rect width="1.69424" height="1.69383" fill="white" transform="matrix(1 0 0 -1 12.1003 555.267)"/>
</clipPath>
<clipPath id="clip28_309_110">
<rect width="2.09842" height="2.09792" fill="white" transform="matrix(1 0 0 -1 135.268 538.14)"/>
</clipPath>
<clipPath id="clip29_309_110">
<rect width="2.5024" height="2.50179" fill="white" transform="matrix(1 0 0 -1 211.965 553.348)"/>
</clipPath>
<clipPath id="clip30_309_110">
<rect width="2.64376" height="2.64312" fill="white" transform="matrix(1 0 0 -1 204.091 552.649)"/>
</clipPath>
<clipPath id="clip31_309_110">
<rect width="2.12889" height="2.12838" fill="white" transform="matrix(1 0 0 -1 14.1752 492.075)"/>
</clipPath>
<clipPath id="clip32_309_110">
<rect width="1.70087" height="1.70046" fill="white" transform="matrix(1 0 0 -1 7.51819 538.635)"/>
</clipPath>
<clipPath id="clip33_309_110">
<rect width="1.75974" height="1.75932" fill="white" transform="matrix(1 0 0 -1 31.7222 544.711)"/>
</clipPath>
<clipPath id="clip34_309_110">
<rect width="2.07272" height="2.07222" fill="white" transform="matrix(1 0 0 -1 207.437 62.9536)"/>
</clipPath>
<clipPath id="clip35_309_110">
<rect width="2.98119" height="2.98047" fill="white" transform="matrix(1 0 0 -1 305.845 55.8192)"/>
</clipPath>
<clipPath id="clip36_309_110">
<rect width="2.07272" height="2.07222" fill="white" transform="matrix(1 0 0 -1 178.634 22.9575)"/>
</clipPath>
<clipPath id="clip37_309_110">
<rect width="3.54788" height="3.54702" fill="white" transform="matrix(1 0 0 -1 139.101 45.9413)"/>
</clipPath>
<clipPath id="clip38_309_110">
<rect width="2.40083" height="2.40025" fill="white" transform="matrix(1 0 0 -1 93.0538 30.9378)"/>
</clipPath>
<clipPath id="clip39_309_110">
<rect width="3.86023" height="3.8593" fill="white" transform="matrix(1 0 0 -1 290.829 48.2878)"/>
</clipPath>
<clipPath id="clip40_309_110">
<rect width="2.23501" height="2.23448" fill="white" transform="matrix(1 0 0 -1 361.598 61.933)"/>
</clipPath>
<clipPath id="clip41_309_110">
<rect width="2.31564" height="2.31508" fill="white" transform="matrix(1 0 0 -1 424.941 112.984)"/>
</clipPath>
<clipPath id="clip42_309_110">
<rect width="2.07272" height="2.07222" fill="white" transform="matrix(1 0 0 -1 281.868 110.746)"/>
</clipPath>
<clipPath id="clip43_309_110">
<rect width="3.01228" height="3.01156" fill="white" transform="matrix(1 0 0 -1 236.925 66.857)"/>
</clipPath>
<clipPath id="clip44_309_110">
<rect width="2.08391" height="2.08341" fill="white" transform="matrix(1 0 0 -1 281.933 136.371)"/>
</clipPath>
<clipPath id="clip45_309_110">
<rect width="2.07272" height="2.07222" fill="white" transform="matrix(1 0 0 -1 213.006 80.8148)"/>
</clipPath>
<clipPath id="clip46_309_110">
<rect width="2.08246" height="2.08196" fill="white" transform="matrix(1 0 0 -1 264.101 258.622)"/>
</clipPath>
<clipPath id="clip47_309_110">
<rect width="2.07272" height="2.07222" fill="white" transform="matrix(1 0 0 -1 270.682 135.233)"/>
</clipPath>
<clipPath id="clip48_309_110">
<rect width="2.04122" height="2.04072" fill="white" transform="matrix(1 0 0 -1 297.459 177.412)"/>
</clipPath>
<clipPath id="clip49_309_110">
<rect width="1.97468" height="1.9742" fill="white" transform="matrix(1 0 0 -1 317.443 213.028)"/>
</clipPath>
<clipPath id="clip50_309_110">
<rect width="2.62158" height="2.62094" fill="white" transform="matrix(1 0 0 -1 322.641 129.96)"/>
</clipPath>
<clipPath id="clip51_309_110">
<rect width="2.0893" height="2.0888" fill="white" transform="matrix(1 0 0 -1 339.583 205.256)"/>
</clipPath>
<clipPath id="clip52_309_110">
<rect width="2.36643" height="2.36585" fill="white" transform="matrix(1 0 0 -1 378.154 82.0532)"/>
</clipPath>
<clipPath id="clip53_309_110">
<rect width="2.50343" height="2.50283" fill="white" transform="matrix(1 0 0 -1 393.716 206.68)"/>
</clipPath>
<clipPath id="clip54_309_110">
<rect width="2.4342" height="2.43362" fill="white" transform="matrix(1 0 0 -1 401.467 99.9437)"/>
</clipPath>
<clipPath id="clip55_309_110">
<rect width="2.04101" height="2.04052" fill="white" transform="matrix(1 0 0 -1 403.864 61.8387)"/>
</clipPath>
<clipPath id="clip56_309_110">
<rect width="2.09904" height="2.09854" fill="white" transform="matrix(1 0 0 -1 407.215 83.0281)"/>
</clipPath>
<clipPath id="clip57_309_110">
<rect width="3.68882" height="3.68793" fill="white" transform="matrix(1 0 0 -1 245.614 59.2576)"/>
</clipPath>
<clipPath id="clip58_309_110">
<rect width="2.07272" height="2.07222" fill="white" transform="matrix(1 0 0 -1 193.08 37.4207)"/>
</clipPath>
<clipPath id="clip59_309_110">
<rect width="2.72397" height="2.72331" fill="white" transform="matrix(1 0 0 -1 310.482 45.4439)"/>
</clipPath>
<clipPath id="clip60_309_110">
<rect width="1.71538" height="1.71497" fill="white" transform="matrix(1 0 0 -1 400.67 42.7212)"/>
</clipPath>
<clipPath id="clip61_309_110">
<rect width="2.07272" height="2.07222" fill="white" transform="matrix(1 0 0 -1 417.198 422.754)"/>
</clipPath>
<clipPath id="clip62_309_110">
<rect width="2.78055" height="2.77988" fill="white" transform="matrix(1 0 0 -1 388.006 185.599)"/>
</clipPath>
<clipPath id="clip63_309_110">
<rect width="2.45037" height="2.44978" fill="white" transform="matrix(1 0 0 -1 330.545 319.878)"/>
</clipPath>
<clipPath id="clip64_309_110">
<rect width="2.30404" height="2.30348" fill="white" transform="matrix(1 0 0 -1 271.851 335.32)"/>
</clipPath>
<clipPath id="clip65_309_110">
<rect width="1.9581" height="1.95763" fill="white" transform="matrix(1 0 0 -1 238.635 345.135)"/>
</clipPath>
<clipPath id="clip66_309_110">
<rect width="1.65299" height="1.6526" fill="white" transform="matrix(1 0 0 -1 181.16 357.167)"/>
</clipPath>
<clipPath id="clip67_309_110">
<rect width="2.39648" height="2.3959" fill="white" transform="matrix(1 0 0 -1 141.904 451.952)"/>
</clipPath>
<clipPath id="clip68_309_110">
<rect width="2.13469" height="2.13418" fill="white" transform="matrix(1 0 0 -1 256.366 346.373)"/>
</clipPath>
<clipPath id="clip69_309_110">
<rect width="1.87353" height="1.87308" fill="white" transform="matrix(1 0 0 -1 230.986 386.175)"/>
</clipPath>
<clipPath id="clip70_309_110">
<rect width="2.16205" height="2.16153" fill="white" transform="matrix(1 0 0 -1 130.937 499.629)"/>
</clipPath>
<clipPath id="clip71_309_110">
<rect width="4.95691" height="4.95571" fill="white" transform="matrix(1 0 0 -1 181.726 518.734)"/>
</clipPath>
<clipPath id="clip72_309_110">
<rect width="2.81641" height="2.81573" fill="white" transform="matrix(1 0 0 -1 150.614 508.822)"/>
</clipPath>
<clipPath id="clip73_309_110">
<rect width="2.27999" height="2.27944" fill="white" transform="matrix(1 0 0 -1 272.736 465.146)"/>
</clipPath>
<clipPath id="clip74_309_110">
<rect width="1.87125" height="1.8708" fill="white" transform="matrix(1 0 0 -1 96.6672 538.384)"/>
</clipPath>
<clipPath id="clip75_309_110">
<rect width="2.29575" height="2.29519" fill="white" transform="matrix(1 0 0 -1 362.707 527.415)"/>
</clipPath>
<clipPath id="clip76_309_110">
<rect width="3.32299" height="3.32218" fill="white" transform="matrix(1 0 0 -1 303.288 496.84)"/>
</clipPath>
<clipPath id="clip77_309_110">
<rect width="2.0435" height="2.043" fill="white" transform="matrix(1 0 0 -1 296.188 525.068)"/>
</clipPath>
<clipPath id="clip78_309_110">
<rect width="1.94794" height="1.94747" fill="white" transform="matrix(1 0 0 -1 292.871 550.492)"/>
</clipPath>
<clipPath id="clip79_309_110">
<rect width="1.904" height="1.90354" fill="white" transform="matrix(1 0 0 -1 295.216 556.278)"/>
</clipPath>
<clipPath id="clip80_309_110">
<rect width="2.19377" height="2.19324" fill="white" transform="matrix(1 0 0 -1 246.275 556.252)"/>
</clipPath>
<clipPath id="clip81_309_110">
<rect width="1.95996" height="1.95949" fill="white" transform="matrix(1 0 0 -1 340.662 546.171)"/>
</clipPath>
<clipPath id="clip82_309_110">
<rect width="3.15696" height="3.1562" fill="white" transform="matrix(1 0 0 -1 407.713 518.855)"/>
</clipPath>
<clipPath id="clip83_309_110">
<rect width="2.37928" height="2.3787" fill="white" transform="matrix(1 0 0 -1 407.05 482.87)"/>
</clipPath>
<clipPath id="clip84_309_110">
<rect width="1.85135" height="1.85091" fill="white" transform="matrix(1 0 0 -1 325.176 560.6)"/>
</clipPath>
<clipPath id="clip85_309_110">
<rect width="2.38632" height="2.38575" fill="white" transform="matrix(1 0 0 -1 418.128 565.359)"/>
</clipPath>
<clipPath id="clip86_309_110">
<rect width="2.74884" height="2.74818" fill="white" transform="matrix(1 0 0 -1 427.959 545.448)"/>
</clipPath>
<clipPath id="clip87_309_110">
<rect width="2.85082" height="2.85013" fill="white" transform="matrix(1 0 0 -1 396.778 547.703)"/>
</clipPath>
<clipPath id="clip88_309_110">
<rect width="2.3743" height="2.37373" fill="white" transform="matrix(1 0 0 -1 380.352 563.094)"/>
</clipPath>
<clipPath id="clip89_309_110">
<rect width="3.22909" height="3.22831" fill="white" transform="matrix(1 0 0 -1 428.872 514.378)"/>
</clipPath>
<clipPath id="clip90_309_110">
<rect width="3.5686" height="3.56774" fill="white" transform="matrix(1 0 0 -1 357.699 464.574)"/>
</clipPath>
<clipPath id="clip91_309_110">
<rect width="2.07272" height="2.07222" fill="white" transform="matrix(1 0 0 -1 385.02 410.553)"/>
</clipPath>
<clipPath id="clip92_309_110">
<rect width="2.00764" height="2.00715" fill="white" transform="matrix(1 0 0 -1 388.427 347.36)"/>
</clipPath>
<clipPath id="clip93_309_110">
<rect width="1.90649" height="1.90603" fill="white" transform="matrix(1 0 0 -1 392.934 307.402)"/>
</clipPath>
<clipPath id="clip94_309_110">
<rect width="1.80306" height="1.80262" fill="white" transform="matrix(1 0 0 -1 393.002 281.804)"/>
</clipPath>
<clipPath id="clip95_309_110">
<rect width="2.10505" height="2.10455" fill="white" transform="matrix(1 0 0 -1 309.634 249.772)"/>
</clipPath>
<clipPath id="clip96_309_110">
<rect width="2.44312" height="2.44253" fill="white" transform="matrix(1 0 0 -1 289.583 287.587)"/>
</clipPath>
<clipPath id="clip97_309_110">
<rect width="2.4883" height="2.4877" fill="white" transform="matrix(1 0 0 -1 283.821 293.342)"/>
</clipPath>
<clipPath id="clip98_309_110">
<rect width="1.4822" height="1.48184" fill="white" transform="matrix(1 0 0 -1 208.931 291.65)"/>
</clipPath>
<clipPath id="clip99_309_110">
<rect width="1.50936" height="1.50899" fill="white" transform="matrix(1 0 0 -1 212.276 282.67)"/>
</clipPath>
<clipPath id="clip100_309_110">
<rect width="1.54438" height="1.54401" fill="white" transform="matrix(1 0 0 -1 209.94 230.395)"/>
</clipPath>
<clipPath id="clip101_309_110">
<rect width="2.60147" height="2.60084" fill="white" transform="matrix(1 0 0 -1 108.384 110.057)"/>
</clipPath>
<clipPath id="clip102_309_110">
<rect width="3.84241" height="3.84148" fill="white" transform="matrix(1 0 0 -1 115.583 91.6746)"/>
</clipPath>
<clipPath id="clip103_309_110">
<rect width="3.17914" height="3.17837" fill="white" transform="matrix(1 0 0 -1 138.203 99.1567)"/>
</clipPath>
<clipPath id="clip104_309_110">
<rect width="3.29044" height="3.28965" fill="white" transform="matrix(1 0 0 -1 184.604 139.147)"/>
</clipPath>
<clipPath id="clip105_309_110">
<rect width="3.59223" height="3.59136" fill="white" transform="matrix(1 0 0 -1 194.5 162.679)"/>
</clipPath>
<clipPath id="clip106_309_110">
<rect width="2.74615" height="2.74548" fill="white" transform="matrix(1 0 0 -1 213.868 176.725)"/>
</clipPath>
<clipPath id="clip107_309_110">
<rect width="2.68583" height="2.68518" fill="white" transform="matrix(1 0 0 -1 203.809 119.926)"/>
</clipPath>
<clipPath id="clip108_309_110">
<rect width="2.58054" height="2.57991" fill="white" transform="matrix(1 0 0 -1 219.53 124.375)"/>
</clipPath>
<clipPath id="clip109_309_110">
<rect width="2.20102" height="2.20049" fill="white" transform="matrix(1 0 0 -1 174.079 184.229)"/>
</clipPath>
<clipPath id="clip110_309_110">
<rect width="1.47764" height="1.47729" fill="white" transform="matrix(1 0 0 -1 140.061 242.639)"/>
</clipPath>
<clipPath id="clip111_309_110">
<rect width="3.16442" height="3.16366" fill="white" transform="matrix(1 0 0 -1 122.572 277.67)"/>
</clipPath>
<clipPath id="clip112_309_110">
<rect width="3.51616" height="3.51531" fill="white" transform="matrix(1 0 0 -1 122.406 283.88)"/>
</clipPath>
<clipPath id="clip113_309_110">
<rect width="1.39909" height="1.39875" fill="white" transform="matrix(1 0 0 -1 85.7412 250.414)"/>
</clipPath>
<clipPath id="clip114_309_110">
<rect width="1.71953" height="1.71911" fill="white" transform="matrix(1 0 0 -1 17.9468 246.114)"/>
</clipPath>
<clipPath id="clip115_309_110">
<rect width="3.55244" height="3.55158" fill="white" transform="matrix(1 0 0 -1 23.6693 191.537)"/>
</clipPath>
<clipPath id="clip116_309_110">
<rect width="2.75402" height="2.75336" fill="white" transform="matrix(1 0 0 -1 90.5442 171.166)"/>
</clipPath>
<clipPath id="clip117_309_110">
<rect width="1.81778" height="1.81734" fill="white" transform="matrix(1 0 0 -1 203.156 205.151)"/>
</clipPath>
<clipPath id="clip118_309_110">
<rect width="1.53319" height="1.53282" fill="white" transform="matrix(1 0 0 -1 209.943 234.098)"/>
</clipPath>
<clipPath id="clip119_309_110">
<rect width="2.07562" height="2.07512" fill="white" transform="matrix(1 0 0 -1 275.195 223.101)"/>
</clipPath>
<clipPath id="clip120_309_110">
<rect width="1.94919" height="1.94872" fill="white" transform="matrix(1 0 0 -1 288.603 195.129)"/>
</clipPath>
<clipPath id="clip121_309_110">
<rect width="1.99313" height="1.99265" fill="white" transform="matrix(1 0 0 -1 286.331 204.197)"/>
</clipPath>
<clipPath id="clip122_309_110">
<rect width="1.98173" height="1.98125" fill="white" transform="matrix(1 0 0 -1 348.524 223.074)"/>
</clipPath>
<clipPath id="clip123_309_110">
<rect width="1.89074" height="1.89028" fill="white" transform="matrix(1 0 0 -1 367.405 267.435)"/>
</clipPath>
<clipPath id="clip124_309_110">
<rect width="1.87768" height="1.87722" fill="white" transform="matrix(1 0 0 -1 384.065 233.035)"/>
</clipPath>
<clipPath id="clip125_309_110">
<rect width="3.30329" height="3.3025" fill="white" transform="matrix(1 0 0 -1 367.768 147.06)"/>
</clipPath>
<clipPath id="clip126_309_110">
<rect width="3.39139" height="3.39057" fill="white" transform="matrix(1 0 0 -1 372.171 128.11)"/>
</clipPath>
<clipPath id="clip127_309_110">
<rect width="2.39524" height="2.39466" fill="white" transform="matrix(1 0 0 -1 424.901 116.905)"/>
</clipPath>
<clipPath id="clip128_309_110">
<rect width="3.74002" height="3.73911" fill="white" transform="matrix(1 0 0 -1 415.355 191.637)"/>
</clipPath>
<clipPath id="clip129_309_110">
<rect width="2.08308" height="2.08258" fill="white" transform="matrix(1 0 0 -1 319.622 26.2284)"/>
</clipPath>
<clipPath id="clip130_309_110">
<rect width="3.8136" height="3.81268" fill="white" transform="matrix(1 0 0 -1 100.071 61.6692)"/>
</clipPath>
<clipPath id="clip131_309_110">
<rect width="1.38168" height="1.38134" fill="white" transform="matrix(1 0 0 -1 2.63879 280.357)"/>
</clipPath>
<clipPath id="clip132_309_110">
<rect width="1.43308" height="1.43273" fill="white" transform="matrix(1 0 0 -1 76.7448 247.063)"/>
</clipPath>
<clipPath id="clip133_309_110">
<rect width="1.54521" height="1.54484" fill="white" transform="matrix(1 0 0 -1 37.9792 323.765)"/>
</clipPath>
<clipPath id="clip134_309_110">
<rect width="2.80916" height="2.80848" fill="white" transform="matrix(1 0 0 -1 120.567 310.013)"/>
</clipPath>
<clipPath id="clip135_309_110">
<rect width="1.72844" height="1.72802" fill="white" transform="matrix(1 0 0 -1 89.9907 349.448)"/>
</clipPath>
<clipPath id="clip136_309_110">
<rect width="1.55516" height="1.55479" fill="white" transform="matrix(1 0 0 -1 80.0498 323.779)"/>
</clipPath>
<clipPath id="clip137_309_110">
<rect width="2.03064" height="2.03015" fill="white" transform="matrix(1 0 0 -1 34.4821 412.729)"/>
</clipPath>
<clipPath id="clip138_309_110">
<rect width="2.06982" height="2.06932" fill="white" transform="matrix(1 0 0 -1 26.6183 421.739)"/>
</clipPath>
<clipPath id="clip139_309_110">
<rect width="2.54903" height="2.54842" fill="white" transform="matrix(1 0 0 -1 2.07202 456.319)"/>
</clipPath>
<clipPath id="clip140_309_110">
<rect width="2.07272" height="2.07222" fill="white" transform="matrix(1 0 0 -1 68.7778 430.656)"/>
</clipPath>
<clipPath id="clip141_309_110">
<rect width="2.06194" height="2.06144" fill="white" transform="matrix(1 0 0 -1 77.7404 421.671)"/>
</clipPath>
<clipPath id="clip142_309_110">
<rect width="1.97675" height="1.97628" fill="white" transform="matrix(1 0 0 -1 71.0527 481.719)"/>
</clipPath>
<clipPath id="clip143_309_110">
<rect width="2.0066" height="2.00612" fill="white" transform="matrix(1 0 0 -1 85.5056 469.458)"/>
</clipPath>
<clipPath id="clip144_309_110">
<rect width="1.91395" height="1.91349" fill="white" transform="matrix(1 0 0 -1 91.074 506.17)"/>
</clipPath>
<clipPath id="clip145_309_110">
<rect width="2.06982" height="2.06932" fill="white" transform="matrix(1 0 0 -1 116.486 490.653)"/>
</clipPath>
<clipPath id="clip146_309_110">
<rect width="2.14858" height="2.14806" fill="white" transform="matrix(1 0 0 -1 129.837 475.092)"/>
</clipPath>
<clipPath id="clip147_309_110">
<rect width="1.94297" height="1.9425" fill="white" transform="matrix(1 0 0 -1 119.832 387.269)"/>
</clipPath>
<clipPath id="clip148_309_110">
<rect width="2.08785" height="2.08735" fill="white" transform="matrix(1 0 0 -1 107.536 321.892)"/>
</clipPath>
<clipPath id="clip149_309_110">
<rect width="1.83684" height="1.8364" fill="white" transform="matrix(1 0 0 -1 145.495 330.626)"/>
</clipPath>
<clipPath id="clip150_309_110">
<rect width="1.42023" height="1.41989" fill="white" transform="matrix(1 0 0 -1 176.795 333.738)"/>
</clipPath>
<clipPath id="clip151_309_110">
<rect width="1.39287" height="1.39253" fill="white" transform="matrix(1 0 0 -1 190.154 319.296)"/>
</clipPath>
<clipPath id="clip152_309_110">
<rect width="1.38126" height="1.38093" fill="white" transform="matrix(1 0 0 -1 181.228 297.06)"/>
</clipPath>
<clipPath id="clip153_309_110">
<rect width="1.84576" height="1.84531" fill="white" transform="matrix(1 0 0 -1 146.617 257.307)"/>
</clipPath>
<clipPath id="clip154_309_110">
<rect width="1.36965" height="1.36932" fill="white" transform="matrix(1 0 0 -1 141.206 218.215)"/>
</clipPath>
<clipPath id="clip155_309_110">
<rect width="1.83146" height="1.83101" fill="white" transform="matrix(1 0 0 -1 112.119 181.822)"/>
</clipPath>
<clipPath id="clip156_309_110">
<rect width="1.69341" height="1.693" fill="white" transform="matrix(1 0 0 -1 137.7 179.482)"/>
</clipPath>
<clipPath id="clip157_309_110">
<rect width="1.58812" height="1.58774" fill="white" transform="matrix(1 0 0 -1 152.192 192.813)"/>
</clipPath>
<clipPath id="clip158_309_110">
<rect width="2.12848" height="2.12796" fill="white" transform="matrix(1 0 0 -1 94.207 141.961)"/>
</clipPath>
<clipPath id="clip159_309_110">
<rect width="2.35047" height="2.3499" fill="white" transform="matrix(1 0 0 -1 12.1014 106.612)"/>
</clipPath>
<clipPath id="clip160_309_110">
<rect width="3.35408" height="3.35327" fill="white" transform="matrix(1 0 0 -1 15.9888 69.3185)"/>
</clipPath>
<clipPath id="clip161_309_110">
<rect width="2.07272" height="2.07222" fill="white" transform="matrix(1 0 0 -1 44.1521 18.8986)"/>
</clipPath>
<clipPath id="clip162_309_110">
<rect width="2.07272" height="2.07222" fill="white" transform="matrix(1 0 0 -1 45.8259 17.2212)"/>
</clipPath>
<clipPath id="clip163_309_110">
<rect width="3.66001" height="3.65913" fill="white" transform="matrix(1 0 0 -1 168.528 406.421)"/>
</clipPath>
<clipPath id="clip164_309_110">
<rect width="4.09922" height="4.09823" fill="white" transform="matrix(1 0 0 -1 185.247 418.367)"/>
</clipPath>
<clipPath id="clip165_309_110">
<rect width="2.87155" height="2.87085" fill="white" transform="matrix(1 0 0 -1 149.522 434.52)"/>
</clipPath>
<clipPath id="clip166_309_110">
<rect width="2.11625" height="2.11574" fill="white" transform="matrix(1 0 0 -1 158.958 377.148)"/>
</clipPath>
<clipPath id="clip167_309_110">
<rect width="2.14506" height="2.14454" fill="white" transform="matrix(1 0 0 -1 142.054 387.557)"/>
</clipPath>
<clipPath id="clip168_309_110">
<rect width="3.22495" height="3.22417" fill="white" transform="matrix(1 0 0 -1 349.733 507.141)"/>
</clipPath>
<clipPath id="clip169_309_110">
<rect width="5.28585" height="5.28458" fill="white" transform="matrix(1 0 0 -1 320.283 482.245)"/>
</clipPath>
<clipPath id="clip170_309_110">
<rect width="3.1437" height="3.14294" fill="white" transform="matrix(1 0 0 -1 301.249 454.749)"/>
</clipPath>
<clipPath id="clip171_309_110">
<rect width="3.03384" height="3.03311" fill="white" transform="matrix(1 0 0 -1 302.626 452.992)"/>
</clipPath>
<clipPath id="clip172_309_110">
<rect width="2.02256" height="2.02207" fill="white" transform="matrix(1 0 0 -1 261.115 168.794)"/>
</clipPath>
<clipPath id="clip173_309_110">
<rect width="1.84887" height="1.84842" fill="white" transform="matrix(1 0 0 -1 244.407 212.744)"/>
</clipPath>
<clipPath id="clip174_309_110">
<rect width="1.7158" height="1.71538" fill="white" transform="matrix(1 0 0 -1 228.988 236.032)"/>
</clipPath>
</defs>
</svg>