<svg width="1280" height="246" viewBox="0 0 1280 246" fill="none" xmlns="http://www.w3.org/2000/svg">
<path fill-rule="evenodd" clip-rule="evenodd" d="M1378.23 101.655C1378.23 155.828 1312.75 200.078 1230.34 202.907C1202.14 220.912 1163.44 232.02 1120.74 232.02C1086.47 232.02 1054.77 224.861 1029.01 212.722C1016.36 220.25 1001.07 225.936 984.133 229.123C1031.24 237.989 1065.67 266.194 1065.67 299.616C1065.67 340.149 1015.03 373.007 952.558 373.007C893.092 373.007 844.343 343.234 839.789 305.41L839.442 305.411C809.58 305.411 782.42 297.903 762.203 285.638C742.747 307.828 705.974 322.792 663.814 322.792C621.654 322.792 584.881 307.827 565.425 285.638C545.208 297.903 518.048 305.411 488.186 305.411C488.07 305.411 487.955 305.411 487.839 305.41C483.286 343.234 434.537 373.007 375.07 373.007C364.931 373.007 355.104 372.141 345.754 370.518C299.882 397.28 239.198 413.565 172.651 413.565C34.5022 413.565 -78.3822 343.383 -85.9241 254.974C-144.574 234.92 -184.558 194.976 -184.558 148.973C-184.558 82.8413 -101.929 29.2307 3.05176e-05 29.2307C61.1272 29.2307 115.313 48.5116 148.9 78.211C156.722 77.7496 164.644 77.5138 172.651 77.5138C232.569 77.5138 287.734 90.7158 331.613 112.881C347.275 107.561 365.096 104.553 384 104.553C436.209 104.553 480.157 127.502 493.188 158.7C533.243 159.831 567.893 174.477 586.575 195.784C606.792 183.519 633.952 176.011 663.814 176.011C693.676 176.011 720.836 183.519 741.053 195.784C760.509 173.595 797.282 158.63 839.442 158.63C839.442 118.097 890.086 85.2389 952.558 85.2389C961.806 85.2389 970.794 85.9589 979.397 87.3171C1003.3 54.5298 1053.51 31.3936 1112.36 29.3743C1140.56 11.369 1179.26 0.260483 1221.95 0.260483C1308.26 0.260483 1378.23 45.6565 1378.23 101.655Z" fill="url(#paint0_linear_4_847)"/>
<path fill-rule="evenodd" clip-rule="evenodd" d="M-25.3431 180.268C-30.1376 171.378 -32.7442 161.822 -32.7442 151.871C-32.7442 104.406 26.5625 65.9272 99.7209 65.9272C163.29 65.9272 216.401 94.9799 229.232 133.737C255.591 137.403 280.587 143.452 303.658 151.52C321.56 143.81 343.042 139.318 366.14 139.318C427.686 139.318 477.751 171.209 479.223 210.91C528.781 218.709 565.581 247.684 565.581 282.236C607.742 282.236 644.515 297.201 663.971 319.39C674.862 312.783 687.768 307.556 702.025 304.14C714.705 287.301 737.028 274.077 764.329 267.496C774.846 234.028 820.472 208.845 875.163 208.845C890.829 208.845 905.752 210.911 919.318 214.647C969.52 163.551 1057.64 129.66 1157.95 129.66C1165.47 129.66 1172.92 129.851 1180.29 130.224C1200.13 109.045 1236.03 94.8974 1277.02 94.8974C1339.5 94.8974 1390.14 127.756 1390.14 168.288C1390.14 179.336 1386.38 189.813 1379.64 199.211C1417.9 230.506 1440.74 270.09 1440.74 313.137C1440.74 414.468 1314.13 496.613 1157.95 496.613C1130.56 496.613 1104.07 494.086 1079.02 489.37C1064.18 494.012 1047.53 496.614 1029.95 496.614C967.481 496.614 916.837 463.756 916.837 423.223C916.837 418.972 917.395 414.805 918.464 410.752C909.088 401.089 901.063 390.82 894.561 380.054C881.577 391.386 863.676 400.205 842.905 405.182C824.528 429.587 785.895 446.399 741.209 446.399C699.049 446.399 662.276 431.434 642.82 409.245C622.603 421.509 595.444 429.017 565.582 429.017C565.466 429.017 565.35 429.017 565.234 429.017C560.682 466.841 511.932 496.614 452.465 496.614C407.2 496.614 368.145 479.364 350.064 454.443C301.108 480.781 238.241 496.613 169.674 496.613C13.4933 496.613 -113.116 414.468 -113.116 313.137C-113.116 260.859 -79.4169 213.687 -25.3431 180.268Z" fill="url(#paint1_linear_4_847)"/>
<g filter="url(#filter0_d_4_847)">
<path fill-rule="evenodd" clip-rule="evenodd" d="M1390.14 83.309C1390.14 94.3569 1386.38 104.835 1379.64 114.232C1417.9 145.528 1440.74 185.112 1440.74 228.158C1440.74 329.49 1314.13 411.635 1157.95 411.635C1130.56 411.635 1104.07 409.107 1079.02 404.391C1064.18 409.034 1047.53 411.636 1029.95 411.636C967.481 411.636 916.837 378.777 916.837 338.245C916.837 333.994 917.394 329.827 918.464 325.774C909.088 316.111 901.063 305.841 894.561 295.076C881.577 306.408 863.676 315.226 842.906 320.203C824.529 344.61 785.895 361.421 741.209 361.421C699.049 361.421 662.275 346.456 642.82 324.266C622.603 336.531 595.443 344.039 565.582 344.039C565.466 344.039 565.35 344.038 565.234 344.038C560.682 381.863 511.933 411.636 452.465 411.636C389.993 411.636 339.349 378.777 339.349 338.245C339.349 304.822 373.785 276.617 420.894 267.751C390.274 261.988 365.007 248.055 351.072 229.829C323.124 249.018 283.531 260.992 239.628 260.992C155.037 260.992 86.4482 216.54 86.3258 161.675C80.9899 162.214 75.5219 162.493 69.9534 162.493C11.591 162.493 -35.721 131.797 -35.721 93.931C-35.721 56.0651 11.591 25.3687 69.9534 25.3687C116.913 25.3687 156.719 45.2422 170.48 72.7333C191.256 65.9095 214.75 62.0646 239.628 62.0646C275.692 62.0646 308.847 70.1441 335.028 83.6655C344.024 82.1717 353.45 81.3774 363.163 81.3774C408.942 81.3774 448.369 99.0214 466.172 124.4C522.18 128.789 565.582 159.735 565.582 197.257C607.742 197.257 644.516 212.223 663.971 234.412C674.862 227.805 687.768 222.579 702.025 219.163C714.704 202.323 737.027 189.099 764.329 182.517C774.846 149.049 820.472 123.867 875.163 123.867C890.829 123.867 905.752 125.933 919.318 129.668C969.52 78.5721 1057.64 44.682 1157.95 44.682C1165.47 44.682 1172.92 44.8724 1180.29 45.246C1200.13 24.066 1236.03 9.91846 1277.02 9.91846C1339.5 9.91846 1390.14 42.7765 1390.14 83.309Z" fill="url(#paint2_linear_4_847)" shape-rendering="crispEdges"/>
</g>
<g filter="url(#filter1_d_4_847)">
<path fill-rule="evenodd" clip-rule="evenodd" d="M1360.37 152.837C1360.37 163.885 1356.61 174.363 1349.87 183.76C1388.13 215.056 1410.98 254.64 1410.98 297.687C1410.98 399.018 1284.37 481.163 1128.19 481.163C1100.79 481.163 1074.3 478.635 1049.25 473.919C1034.41 478.561 1017.76 481.163 1000.19 481.163C937.714 481.163 887.07 448.305 887.07 407.772C887.07 403.521 887.627 399.355 888.696 395.302C879.32 385.639 871.295 375.369 864.793 364.603C851.81 375.935 833.909 384.754 813.139 389.73C794.762 414.137 756.128 430.948 711.442 430.948C669.282 430.948 632.508 415.983 613.053 393.794C592.835 406.059 565.676 413.567 535.814 413.567C535.698 413.567 535.582 413.567 535.467 413.566C530.913 451.39 482.164 481.163 422.698 481.163C360.225 481.163 309.581 448.305 309.581 407.772C309.581 374.349 344.018 346.144 391.126 337.278C360.506 331.515 335.24 317.582 321.304 299.356C293.356 318.545 253.764 330.519 209.861 330.519C125.27 330.519 56.6812 286.067 56.5583 231.203C51.2226 231.741 45.7547 232.021 40.1863 232.021C-18.1761 232.021 -65.4882 201.325 -65.4882 163.459C-65.4882 125.593 -18.1761 94.8964 40.1863 94.8964C87.1458 94.8964 126.951 114.77 140.713 142.26C161.488 135.437 184.982 131.592 209.861 131.592C245.925 131.592 279.081 139.672 305.262 153.193C314.257 151.7 323.683 150.906 333.395 150.906C379.173 150.906 418.6 168.549 436.403 193.927C492.412 198.316 535.814 229.262 535.814 266.784C535.814 266.785 535.814 266.785 535.814 266.786C577.974 266.786 614.747 281.751 634.203 303.94C645.094 297.333 658 292.106 672.257 288.69C684.936 271.85 707.26 258.626 734.561 252.045C745.079 218.576 790.704 193.394 845.395 193.394C861.062 193.394 875.985 195.46 889.552 199.196C939.754 148.1 1027.87 114.21 1128.19 114.21C1135.7 114.21 1143.15 114.401 1150.52 114.774C1170.36 93.5939 1206.26 79.4462 1247.26 79.4462C1309.73 79.4462 1360.37 112.304 1360.37 152.837Z" fill="url(#paint3_linear_4_847)" shape-rendering="crispEdges"/>
</g>
<defs>
<filter id="filter0_d_4_847" x="-39.721" y="1.91846" width="1484.47" height="409.717" filterUnits="userSpaceOnUse" color-interpolation-filters="sRGB">
<feFlood flood-opacity="0" result="BackgroundImageFix"/>
<feColorMatrix in="SourceAlpha" type="matrix" values="0 0 0 0 0 0 0 0 0 0 0 0 0 0 0 0 0 0 127 0" result="hardAlpha"/>
<feOffset dy="-4"/>
<feGaussianBlur stdDeviation="2"/>
<feComposite in2="hardAlpha" operator="out"/>
<feColorMatrix type="matrix" values="0 0 0 0 0 0 0 0 0 0 0 0 0 0 0 0 0 0 0.01 0"/>
<feBlend mode="normal" in2="BackgroundImageFix" result="effect1_dropShadow_4_847"/>
<feBlend mode="normal" in="SourceGraphic" in2="effect1_dropShadow_4_847" result="shape"/>
</filter>
<filter id="filter1_d_4_847" x="-80.4882" y="60.4462" width="1506.47" height="431.717" filterUnits="userSpaceOnUse" color-interpolation-filters="sRGB">
<feFlood flood-opacity="0" result="BackgroundImageFix"/>
<feColorMatrix in="SourceAlpha" type="matrix" values="0 0 0 0 0 0 0 0 0 0 0 0 0 0 0 0 0 0 127 0" result="hardAlpha"/>
<feOffset dy="-4"/>
<feGaussianBlur stdDeviation="7.5"/>
<feComposite in2="hardAlpha" operator="out"/>
<feColorMatrix type="matrix" values="0 0 0 0 0 0 0 0 0 0 0 0 0 0 0 0 0 0 0.04 0"/>
<feBlend mode="normal" in2="BackgroundImageFix" result="effect1_dropShadow_4_847"/>
<feBlend mode="normal" in="SourceGraphic" in2="effect1_dropShadow_4_847" result="shape"/>
</filter>
<linearGradient id="paint0_linear_4_847" x1="663.814" y1="6.05448" x2="663.814" y2="271.613" gradientUnits="userSpaceOnUse">
<stop stop-color="#EAE9EE"/>
<stop offset="0.303647" stop-color="#EAE9EE" stop-opacity="0.57"/>
<stop offset="0.583333" stop-color="#EAE9EE" stop-opacity="0.57"/>
<stop offset="1" stop-color="#EAE9EE"/>
</linearGradient>
<linearGradient id="paint1_linear_4_847" x1="741.21" y1="129.661" x2="741.21" y2="395.219" gradientUnits="userSpaceOnUse">
<stop stop-color="#EAE9EE"/>
<stop offset="0.303647" stop-color="#EAE9EE" stop-opacity="0.57"/>
<stop offset="0.583333" stop-color="#EAE9EE" stop-opacity="0.57"/>
<stop offset="1" stop-color="#EAE9EE"/>
</linearGradient>
<linearGradient id="paint2_linear_4_847" x1="741.21" y1="44.6824" x2="741.21" y2="310.241" gradientUnits="userSpaceOnUse">
<stop stop-color="#EAE9EE"/>
<stop offset="0.303647" stop-color="#EAE9EE" stop-opacity="0.57"/>
<stop offset="0.583333" stop-color="#EAE9EE" stop-opacity="0.57"/>
<stop offset="1" stop-color="#EAE9EE"/>
</linearGradient>
<linearGradient id="paint3_linear_4_847" x1="711.442" y1="114.21" x2="753.156" y2="354.306" gradientUnits="userSpaceOnUse">
<stop stop-color="#EAE9EE"/>
<stop offset="0.303647" stop-color="#EAE9EE" stop-opacity="0.57"/>
<stop offset="0.583333" stop-color="#EAE9EE" stop-opacity="0.57"/>
</linearGradient>
</defs>
</svg>
