<svg width="1920" height="1080" viewBox="0 0 1920 1080" fill="none" xmlns="http://www.w3.org/2000/svg">
<rect y="0.00256348" width="1918.5" height="1080" fill="url(#paint0_linear_22_111)"/>
<mask id="mask0_22_111" style="mask-type:alpha" maskUnits="userSpaceOnUse" x="0" y="0" width="1920" height="1080">
<rect x="0.00012207" y="1080" width="1080" height="1920" transform="rotate(-90 0.00012207 1080)" fill="#D9D9D9"/>
</mask>
<g mask="url(#mask0_22_111)">
<g opacity="0.6">
<g clip-path="url(#clip0_22_111)">
<path d="M1304.34 767.806C1300.55 767.964 1296.75 768.281 1292.96 769.112C1296.75 769.943 1300.55 770.26 1304.34 770.418C1304.76 771.566 1305.71 772.477 1306.9 772.873C1307.07 776.515 1307.4 780.157 1308.26 783.799C1309.13 780.157 1309.46 776.515 1309.62 772.873C1310.82 772.477 1311.77 771.566 1312.18 770.418C1315.98 770.26 1319.77 769.943 1323.57 769.112C1319.77 768.281 1315.98 767.964 1312.18 767.806C1311.77 766.657 1310.82 765.747 1309.62 765.351C1309.46 761.709 1309.13 758.067 1308.26 754.425C1307.4 758.067 1307.07 761.709 1306.9 765.351C1305.71 765.747 1304.76 766.657 1304.34 767.806Z" fill="white"/>
</g>
<g opacity="0.7015" clip-path="url(#clip1_22_111)">
<path d="M148.126 673.951C146.157 674.033 144.189 674.198 142.221 674.629C144.189 675.06 146.157 675.224 148.126 675.306C148.34 675.902 148.832 676.374 149.452 676.579C149.538 678.468 149.709 680.357 150.158 682.245C150.607 680.357 150.778 678.468 150.864 676.579C151.484 676.374 151.976 675.902 152.19 675.306C154.159 675.224 156.127 675.06 158.095 674.629C156.127 674.198 154.159 674.033 152.19 673.951C151.976 673.356 151.484 672.884 150.864 672.678C150.778 670.79 150.607 668.901 150.158 667.012C149.709 668.901 149.538 670.79 149.452 672.678C148.832 672.884 148.34 673.356 148.126 673.951Z" fill="white"/>
</g>
<g clip-path="url(#clip2_22_111)">
<path d="M643.223 75.7054C638.704 75.8939 634.185 76.271 629.667 77.2608C634.185 78.2506 638.704 78.6277 643.223 78.8162C643.714 80.1831 644.844 81.2671 646.268 81.7385C646.464 86.0748 646.857 90.411 647.889 94.7473C648.92 90.411 649.313 86.0748 649.51 81.7385C650.934 81.2671 652.064 80.1831 652.555 78.8162C657.073 78.6277 661.592 78.2506 666.111 77.2608C661.592 76.271 657.073 75.8939 652.555 75.7054C652.064 74.3385 650.934 73.2545 649.51 72.7831C649.313 68.4469 648.92 64.1106 647.889 59.7743C646.857 64.1106 646.464 68.4469 646.268 72.7831C644.844 73.2545 643.714 74.3385 643.223 75.7054Z" fill="white"/>
</g>
<g clip-path="url(#clip3_22_111)">
<path d="M1242.04 312.011C1238.65 312.153 1235.25 312.436 1231.85 313.18C1235.25 313.924 1238.65 314.208 1242.04 314.35C1242.41 315.377 1243.26 316.192 1244.33 316.546C1244.48 319.806 1244.77 323.065 1245.55 326.325C1246.32 323.065 1246.62 319.806 1246.77 316.546C1247.84 316.192 1248.69 315.377 1249.06 314.35C1252.45 314.208 1255.85 313.924 1259.25 313.18C1255.85 312.436 1252.45 312.153 1249.06 312.011C1248.69 310.984 1247.84 310.169 1246.77 309.814C1246.62 306.555 1246.32 303.295 1245.55 300.036C1244.77 303.295 1244.48 306.555 1244.33 309.814C1243.26 310.169 1242.41 310.984 1242.04 312.011Z" fill="white"/>
</g>
<g opacity="0.1204" clip-path="url(#clip4_22_111)">
<path d="M422.629 390.779C416.614 391.03 410.6 391.532 404.585 392.85C410.6 394.167 416.614 394.669 422.629 394.92C423.283 396.74 424.786 398.183 426.682 398.81C426.944 404.582 427.467 410.354 428.84 416.126C430.213 410.354 430.736 404.582 430.997 398.81C432.893 398.183 434.397 396.74 435.051 394.92C441.065 394.669 447.08 394.167 453.094 392.85C447.08 391.532 441.065 391.03 435.051 390.779C434.397 388.96 432.893 387.517 430.997 386.89C430.736 381.118 430.213 375.346 428.84 369.574C427.467 375.346 426.944 381.118 426.682 386.89C424.786 387.517 423.283 388.96 422.629 390.779Z" fill="white"/>
</g>
<g clip-path="url(#clip5_22_111)">
<path d="M8.31805 334.247C5.13435 334.38 1.95064 334.646 -1.23307 335.343C1.95064 336.04 5.13435 336.306 8.31805 336.439C8.66411 337.402 9.46003 338.166 10.4636 338.498C10.602 341.553 10.8789 344.608 11.6056 347.664C12.3323 344.608 12.6091 341.553 12.7476 338.498C13.7511 338.166 14.547 337.402 14.8931 336.439C18.0768 336.306 21.2605 336.04 24.4442 335.343C21.2605 334.646 18.0768 334.38 14.8931 334.247C14.547 333.284 13.7511 332.52 12.7476 332.188C12.6091 329.133 12.3323 326.078 11.6056 323.023C10.8789 326.078 10.602 329.133 10.4636 332.188C9.46003 332.52 8.66411 333.284 8.31805 334.247Z" fill="white"/>
</g>
<g clip-path="url(#clip6_22_111)">
<path d="M309.623 70.087C306.4 70.2215 303.176 70.4905 299.953 71.1965C303.176 71.9025 306.4 72.1715 309.623 72.306C309.973 73.281 310.779 74.0543 311.795 74.3905C311.935 77.4836 312.215 80.5767 312.951 83.6698C313.687 80.5767 313.967 77.4836 314.107 74.3905C315.123 74.0543 315.929 73.281 316.279 72.306C319.503 72.1715 322.726 71.9025 325.949 71.1965C322.726 70.4905 319.503 70.2215 316.279 70.087C315.929 69.112 315.123 68.3387 314.107 68.0025C313.967 64.9094 313.687 61.8163 312.951 58.7232C312.215 61.8163 311.935 64.9094 311.795 68.0025C310.779 68.3387 309.973 69.112 309.623 70.087Z" fill="white"/>
</g>
<g opacity="0.01" clip-path="url(#clip7_22_111)">
<path d="M674.398 697.852C669.683 698.049 664.968 698.442 660.254 699.475C664.968 700.508 669.683 700.901 674.398 701.098C674.91 702.524 676.089 703.655 677.575 704.147C677.78 708.672 678.19 713.196 679.266 717.721C680.342 713.196 680.752 708.672 680.957 704.147C682.444 703.655 683.622 702.524 684.135 701.098C688.85 700.901 693.564 700.508 698.279 699.475C693.564 698.442 688.85 698.049 684.135 697.852C683.622 696.426 682.444 695.295 680.957 694.803C680.752 690.279 680.342 685.754 679.266 681.23C678.19 685.754 677.78 690.279 677.575 694.803C676.089 695.295 674.91 696.426 674.398 697.852Z" fill="white"/>
</g>
<g clip-path="url(#clip8_22_111)">
<path d="M1442.08 200.148C1436.3 200.389 1430.52 200.872 1424.73 202.139C1430.52 203.406 1436.3 203.888 1442.08 204.129C1442.71 205.879 1444.16 207.266 1445.98 207.87C1446.23 213.42 1446.74 218.97 1448.06 224.52C1449.38 218.97 1449.88 213.42 1450.13 207.87C1451.95 207.266 1453.4 205.879 1454.03 204.129C1459.81 203.888 1465.59 203.406 1471.38 202.139C1465.59 200.872 1459.81 200.389 1454.03 200.148C1453.4 198.398 1451.95 197.011 1450.13 196.408C1449.88 190.857 1449.38 185.307 1448.06 179.757C1446.74 185.307 1446.23 190.857 1445.98 196.408C1444.16 197.011 1442.71 198.398 1442.08 200.148Z" fill="white"/>
</g>
<g opacity="0.2182" clip-path="url(#clip9_22_111)">
<path d="M895.201 1076.89C892.053 1077.02 888.906 1077.29 885.758 1077.98C888.906 1078.66 892.053 1078.93 895.201 1079.06C895.543 1080.01 896.33 1080.77 897.322 1081.09C897.459 1084.12 897.733 1087.14 898.451 1090.16C899.17 1087.14 899.444 1084.12 899.581 1081.09C900.573 1080.77 901.36 1080.01 901.702 1079.06C904.85 1078.93 907.997 1078.66 911.145 1077.98C907.997 1077.29 904.85 1077.02 901.702 1076.89C901.36 1075.94 900.573 1075.18 899.581 1074.86C899.444 1071.84 899.17 1068.81 898.451 1065.79C897.733 1068.81 897.459 1071.84 897.322 1074.86C896.33 1075.18 895.543 1075.94 895.201 1076.89Z" fill="white"/>
</g>
<g opacity="0.7692" clip-path="url(#clip10_22_111)">
<path d="M972.323 307.272C968.179 307.445 964.036 307.79 959.892 308.698C964.036 309.606 968.179 309.951 972.323 310.124C972.773 311.378 973.809 312.372 975.115 312.804C975.295 316.78 975.656 320.757 976.602 324.733C977.547 320.757 977.908 316.78 978.088 312.804C979.394 312.372 980.43 311.378 980.88 310.124C985.024 309.951 989.167 309.606 993.311 308.698C989.167 307.79 985.024 307.445 980.88 307.272C980.43 306.018 979.394 305.024 978.088 304.592C977.908 300.616 977.547 296.639 976.602 292.663C975.656 296.639 975.295 300.616 975.115 304.592C973.809 305.024 972.773 306.018 972.323 307.272Z" fill="white"/>
</g>
<g opacity="0.1982" clip-path="url(#clip11_22_111)">
<path d="M1009.66 613.228C1003.22 613.497 996.774 614.034 990.33 615.446C996.774 616.858 1003.22 617.395 1009.66 617.664C1010.36 619.613 1011.97 621.159 1014 621.831C1014.28 628.015 1014.84 634.199 1016.32 640.383C1017.79 634.199 1018.35 628.015 1018.63 621.831C1020.66 621.159 1022.27 619.613 1022.97 617.664C1029.41 617.395 1035.86 616.858 1042.3 615.446C1035.86 614.034 1029.41 613.497 1022.97 613.228C1022.27 611.279 1020.66 609.733 1018.63 609.061C1018.35 602.877 1017.79 596.693 1016.32 590.509C1014.84 596.693 1014.28 602.877 1014 609.061C1011.97 609.733 1010.36 611.279 1009.66 613.228Z" fill="white"/>
</g>
<g clip-path="url(#clip12_22_111)">
<path d="M1460.32 602.759C1457.03 602.896 1453.73 603.171 1450.44 603.892C1453.73 604.613 1457.03 604.888 1460.32 605.025C1460.68 606.021 1461.5 606.811 1462.54 607.154C1462.68 610.313 1462.97 613.473 1463.72 616.632C1464.47 613.473 1464.75 610.313 1464.9 607.154C1465.94 606.811 1466.76 606.021 1467.12 605.025C1470.41 604.888 1473.7 604.613 1476.99 603.892C1473.7 603.171 1470.41 602.896 1467.12 602.759C1466.76 601.763 1465.94 600.973 1464.9 600.63C1464.75 597.471 1464.47 594.312 1463.72 591.153C1462.97 594.312 1462.68 597.471 1462.54 600.63C1461.5 600.973 1460.68 601.763 1460.32 602.759Z" fill="white"/>
</g>
<g opacity="0.0828" clip-path="url(#clip13_22_111)">
<path d="M322.062 811.299C319.569 811.403 317.076 811.611 314.583 812.157C317.076 812.703 319.569 812.911 322.062 813.015C322.333 813.769 322.956 814.367 323.742 814.627C323.851 817.02 324.067 819.412 324.636 821.805C325.206 819.412 325.422 817.02 325.531 814.627C326.317 814.367 326.94 813.769 327.211 813.015C329.704 812.911 332.197 812.703 334.69 812.157C332.197 811.611 329.704 811.403 327.211 811.299C326.94 810.544 326.317 809.946 325.531 809.686C325.422 807.294 325.206 804.901 324.636 802.509C324.067 804.901 323.851 807.294 323.742 809.686C322.956 809.946 322.333 810.544 322.062 811.299Z" fill="white"/>
</g>
<g clip-path="url(#clip14_22_111)">
<path d="M1412.86 1078.14C1410.08 1078.26 1407.3 1078.49 1404.52 1079.1C1407.3 1079.71 1410.08 1079.94 1412.86 1080.06C1413.16 1080.9 1413.86 1081.57 1414.74 1081.86C1414.86 1084.53 1415.1 1087.2 1415.73 1089.87C1416.37 1087.2 1416.61 1084.53 1416.73 1081.86C1417.61 1081.57 1418.3 1080.9 1418.61 1080.06C1421.39 1079.94 1424.17 1079.71 1426.95 1079.1C1424.17 1078.49 1421.39 1078.26 1418.61 1078.14C1418.3 1077.3 1417.61 1076.63 1416.73 1076.34C1416.61 1073.67 1416.37 1071.01 1415.73 1068.34C1415.1 1071.01 1414.86 1073.67 1414.74 1076.34C1413.86 1076.63 1413.16 1077.3 1412.86 1078.14Z" fill="white"/>
</g>
<g clip-path="url(#clip15_22_111)">
<path d="M1842.67 977.949C1839.49 978.082 1836.3 978.347 1833.12 979.045C1836.3 979.742 1839.49 980.008 1842.67 980.141C1843.02 981.104 1843.81 981.867 1844.82 982.2C1844.95 985.255 1845.23 988.31 1845.96 991.365C1846.68 988.31 1846.96 985.255 1847.1 982.2C1848.1 981.867 1848.9 981.104 1849.24 980.141C1852.43 980.008 1855.61 979.742 1858.8 979.045C1855.61 978.347 1852.43 978.082 1849.24 977.949C1848.9 976.986 1848.1 976.222 1847.1 975.89C1846.96 972.835 1846.68 969.779 1845.96 966.724C1845.23 969.779 1844.95 972.835 1844.82 975.89C1843.81 976.222 1843.02 976.986 1842.67 977.949Z" fill="white"/>
</g>
<g clip-path="url(#clip16_22_111)">
<path d="M1774.72 635.327C1771.43 635.464 1768.13 635.739 1764.84 636.46C1768.13 637.181 1771.43 637.456 1774.72 637.593C1775.08 638.589 1775.9 639.378 1776.94 639.722C1777.08 642.881 1777.37 646.04 1778.12 649.199C1778.87 646.04 1779.16 642.881 1779.3 639.722C1780.34 639.378 1781.16 638.589 1781.52 637.593C1784.81 637.456 1788.1 637.181 1791.39 636.46C1788.1 635.739 1784.81 635.464 1781.52 635.327C1781.16 634.331 1780.34 633.541 1779.3 633.198C1779.16 630.038 1778.87 626.879 1778.12 623.72C1777.37 626.879 1777.08 630.038 1776.94 633.198C1775.9 633.541 1775.08 634.331 1774.72 635.327Z" fill="white"/>
</g>
<g clip-path="url(#clip17_22_111)">
<path d="M1808.77 154.065C1805.59 154.198 1802.4 154.463 1799.22 155.161C1802.4 155.858 1805.59 156.124 1808.77 156.257C1809.12 157.22 1809.91 157.984 1810.92 158.316C1811.06 161.371 1811.33 164.426 1812.06 167.481C1812.79 164.426 1813.06 161.371 1813.2 158.316C1814.2 157.984 1815 157.22 1815.35 156.257C1818.53 156.124 1821.71 155.858 1824.9 155.161C1821.71 154.463 1818.53 154.198 1815.35 154.065C1815 153.102 1814.2 152.338 1813.2 152.006C1813.06 148.951 1812.79 145.896 1812.06 142.84C1811.33 145.896 1811.06 148.951 1810.92 152.006C1809.91 152.338 1809.12 153.102 1808.77 154.065Z" fill="white"/>
</g>
<g opacity="0.4321" clip-path="url(#clip18_22_111)">
<path d="M1234.59 84.6049C1233.07 84.6049 1231.84 83.4225 1231.84 81.9639C1231.84 80.5054 1233.07 79.323 1234.59 79.323C1236.11 79.323 1237.34 80.5054 1237.34 81.9639C1237.34 83.4225 1236.11 84.6049 1234.59 84.6049Z" fill="white"/>
</g>
<g opacity="0.4052" clip-path="url(#clip19_22_111)">
<path d="M1244.13 63.9501C1242.65 63.9501 1241.45 62.796 1241.45 61.3724C1241.45 59.9488 1242.65 58.7947 1244.13 58.7947C1245.62 58.7947 1246.82 59.9488 1246.82 61.3724C1246.82 62.796 1245.62 63.9501 1244.13 63.9501Z" fill="white"/>
</g>
<g opacity="0.8657" clip-path="url(#clip20_22_111)">
<path d="M879.319 33.0579C877.539 33.0579 876.096 31.6731 876.096 29.9648C876.096 28.2566 877.539 26.8717 879.319 26.8717C881.099 26.8717 882.542 28.2566 882.542 29.9648C882.542 31.6731 881.099 33.0579 879.319 33.0579Z" fill="white"/>
</g>
<g opacity="0.9093" clip-path="url(#clip21_22_111)">
<path d="M1372.25 208.739C1369.84 208.739 1367.89 206.866 1367.89 204.556C1367.89 202.245 1369.84 200.372 1372.25 200.372C1374.66 200.372 1376.61 202.245 1376.61 204.556C1376.61 206.866 1374.66 208.739 1372.25 208.739Z" fill="white"/>
</g>
<g opacity="0.8462" clip-path="url(#clip22_22_111)">
<path d="M1306.87 217.242C1304.74 217.242 1303.01 215.585 1303.01 213.54C1303.01 211.495 1304.74 209.838 1306.87 209.838C1309 209.838 1310.73 211.495 1310.73 213.54C1310.73 215.585 1309 217.242 1306.87 217.242Z" fill="white"/>
</g>
<g opacity="0.6448" clip-path="url(#clip23_22_111)">
<path d="M1253.29 169.713C1251.49 169.713 1250.02 168.308 1250.02 166.575C1250.02 164.842 1251.49 163.437 1253.29 163.437C1255.1 163.437 1256.56 164.842 1256.56 166.575C1256.56 168.308 1255.1 169.713 1253.29 169.713Z" fill="white"/>
</g>
<g opacity="0.4059" clip-path="url(#clip24_22_111)">
<path d="M1274.52 30.4195C1273.07 30.4195 1271.9 29.2971 1271.9 27.9124C1271.9 26.5278 1273.07 25.4053 1274.52 25.4053C1275.96 25.4053 1277.13 26.5278 1277.13 27.9124C1277.13 29.2971 1275.96 30.4195 1274.52 30.4195Z" fill="white"/>
</g>
<g opacity="0.5006" clip-path="url(#clip25_22_111)">
<path d="M1199.66 12.5679C1198.17 12.5679 1196.96 11.4066 1196.96 9.97403C1196.96 8.54147 1198.17 7.38015 1199.66 7.38015C1201.16 7.38015 1202.37 8.54147 1202.37 9.97403C1202.37 11.4066 1201.16 12.5679 1199.66 12.5679Z" fill="white"/>
</g>
<g opacity="0.5406" clip-path="url(#clip26_22_111)">
<path d="M1386.14 120.959C1384.08 120.959 1382.41 119.355 1382.41 117.377C1382.41 115.398 1384.08 113.794 1386.14 113.794C1388.21 113.794 1389.88 115.398 1389.88 117.377C1389.88 119.355 1388.21 120.959 1386.14 120.959Z" fill="white"/>
</g>
<g opacity="0.1124" clip-path="url(#clip27_22_111)">
<path d="M481.419 861.715C479.652 861.715 478.22 860.341 478.22 858.646C478.22 856.951 479.652 855.576 481.419 855.576C483.185 855.576 484.617 856.951 484.617 858.646C484.617 860.341 483.185 861.715 481.419 861.715Z" fill="white"/>
</g>
<g opacity="0.503" clip-path="url(#clip28_22_111)">
<path d="M316.826 996.572C315.151 996.572 313.793 995.269 313.793 993.662C313.793 992.054 315.151 990.751 316.826 990.751C318.501 990.751 319.859 992.054 319.859 993.662C319.859 995.269 318.501 996.572 316.826 996.572Z" fill="white"/>
</g>
<g opacity="0.8249" clip-path="url(#clip29_22_111)">
<path d="M248.265 1019.95C246.493 1019.95 245.056 1018.57 245.056 1016.87C245.056 1015.17 246.493 1013.79 248.265 1013.79C250.038 1013.79 251.475 1015.17 251.475 1016.87C251.475 1018.57 250.038 1019.95 248.265 1019.95Z" fill="white"/>
</g>
<g opacity="0.4181" clip-path="url(#clip30_22_111)">
<path d="M80.4317 1016.95C78.308 1016.95 76.5864 1015.29 76.5864 1013.26C76.5864 1011.22 78.308 1009.57 80.4317 1009.57C82.5554 1009.57 84.277 1011.22 84.277 1013.26C84.277 1015.29 82.5554 1016.95 80.4317 1016.95Z" fill="white"/>
</g>
<g opacity="0.6671" clip-path="url(#clip31_22_111)">
<path d="M8.5619 375.072C6.80359 375.072 5.37819 373.704 5.37819 372.016C5.37819 370.329 6.80359 368.961 8.5619 368.961C10.3202 368.961 11.7456 370.329 11.7456 372.016C11.7456 373.704 10.3202 375.072 8.5619 375.072Z" fill="white"/>
</g>
<g opacity="0.4365" clip-path="url(#clip32_22_111)">
<path d="M97.6412 1080.27C95.2824 1080.27 93.3702 1078.43 93.3702 1076.17C93.3702 1073.91 95.2824 1072.07 97.6412 1072.07C99.9999 1072.07 101.912 1073.91 101.912 1076.17C101.912 1078.43 99.9999 1080.27 97.6412 1080.27Z" fill="white"/>
</g>
<g opacity="0.5458" clip-path="url(#clip33_22_111)">
<path d="M275.626 681.19C273.547 681.19 271.862 679.573 271.862 677.578C271.862 675.583 273.547 673.966 275.626 673.966C277.704 673.966 279.389 675.583 279.389 677.578C279.389 679.573 277.704 681.19 275.626 681.19Z" fill="white"/>
</g>
<g opacity="0.1778" clip-path="url(#clip34_22_111)">
<path d="M457.143 634.974C455.189 634.974 453.604 633.454 453.604 631.578C453.604 629.703 455.189 628.182 457.143 628.182C459.098 628.182 460.682 629.703 460.682 631.578C460.682 633.454 459.098 634.974 457.143 634.974Z" fill="white"/>
</g>
<g opacity="0.3314" clip-path="url(#clip35_22_111)">
<path d="M560.266 604.855C558.605 604.855 557.258 603.563 557.258 601.969C557.258 600.375 558.605 599.083 560.266 599.083C561.927 599.083 563.274 600.375 563.274 601.969C563.274 603.563 561.927 604.855 560.266 604.855Z" fill="white"/>
</g>
<g opacity="0.1996" clip-path="url(#clip36_22_111)">
<path d="M738.262 568.282C736.86 568.282 735.723 567.191 735.723 565.845C735.723 564.499 736.86 563.409 738.262 563.409C739.664 563.409 740.801 564.499 740.801 565.845C740.801 567.191 739.664 568.282 738.262 568.282Z" fill="white"/>
</g>
<g opacity="0.8077" clip-path="url(#clip37_22_111)">
<path d="M858.365 289.459C856.332 289.459 854.684 287.877 854.684 285.927C854.684 283.976 856.332 282.394 858.365 282.394C860.398 282.394 862.046 283.976 862.046 285.927C862.046 287.877 860.398 289.459 858.365 289.459Z" fill="white"/>
</g>
<g opacity="0.2063" clip-path="url(#clip38_22_111)">
<path d="M505.227 601.705C503.416 601.705 501.948 600.296 501.948 598.558C501.948 596.82 503.416 595.411 505.227 595.411C507.038 595.411 508.506 596.82 508.506 598.558C508.506 600.296 507.038 601.705 505.227 601.705Z" fill="white"/>
</g>
<g opacity="0.1169" clip-path="url(#clip39_22_111)">
<path d="M584.02 482.932C582.431 482.932 581.142 481.695 581.142 480.17C581.142 478.645 582.431 477.408 584.02 477.408C585.609 477.408 586.898 478.645 586.898 480.17C586.898 481.695 585.609 482.932 584.02 482.932Z" fill="white"/>
</g>
<g opacity="0.9299" clip-path="url(#clip40_22_111)">
<path d="M892.6 147.418C890.766 147.418 889.279 145.991 889.279 144.231C889.279 142.471 890.766 141.044 892.6 141.044C894.434 141.044 895.921 142.471 895.921 144.231C895.921 145.991 894.434 147.418 892.6 147.418Z" fill="white"/>
</g>
<g opacity="0.8835" clip-path="url(#clip41_22_111)">
<path d="M731.436 99.0093C727.231 99.0093 723.822 95.738 723.822 91.7027C723.822 87.6674 727.231 84.3961 731.436 84.3961C735.641 84.3961 739.05 87.6674 739.05 91.7027C739.05 95.738 735.641 99.0093 731.436 99.0093Z" fill="white"/>
</g>
<g opacity="0.8895" clip-path="url(#clip42_22_111)">
<path d="M830.819 122.098C828.43 122.098 826.493 120.239 826.493 117.946C826.493 115.653 828.43 113.795 830.819 113.795C833.208 113.795 835.145 115.653 835.145 117.946C835.145 120.239 833.208 122.098 830.819 122.098Z" fill="white"/>
</g>
<g opacity="0.3348" clip-path="url(#clip43_22_111)">
<path d="M454.446 249.996C452.512 249.996 450.944 248.492 450.944 246.636C450.944 244.779 452.512 243.275 454.446 243.275C456.38 243.275 457.948 244.779 457.948 246.636C457.948 248.492 456.38 249.996 454.446 249.996Z" fill="white"/>
</g>
<g opacity="0.637" clip-path="url(#clip44_22_111)">
<path d="M998.896 31.6639C997.309 31.6639 996.022 30.429 996.022 28.9056C996.022 27.3823 997.309 26.1474 998.896 26.1474C1000.48 26.1474 1001.77 27.3823 1001.77 28.9056C1001.77 30.429 1000.48 31.6639 998.896 31.6639Z" fill="white"/>
</g>
<g opacity="0.7853" clip-path="url(#clip45_22_111)">
<path d="M176.527 65.4286C174.58 65.4286 173.001 63.9136 173.001 62.0447C173.001 60.1757 174.58 58.6607 176.527 58.6607C178.475 58.6607 180.054 60.1757 180.054 62.0447C180.054 63.9136 178.475 65.4286 176.527 65.4286Z" fill="white"/>
</g>
<g opacity="0.5051" clip-path="url(#clip46_22_111)">
<path d="M358.474 159.109C355.655 159.109 353.37 156.916 353.37 154.211C353.37 151.506 355.655 149.313 358.474 149.313C361.293 149.313 363.578 151.506 363.578 154.211C363.578 156.916 361.293 159.109 358.474 159.109Z" fill="white"/>
</g>
<g opacity="0.5526" clip-path="url(#clip47_22_111)">
<path d="M382.373 71.6465C380.639 71.6465 379.234 70.298 379.234 68.6344C379.234 66.9708 380.639 65.6222 382.373 65.6222C384.106 65.6222 385.512 66.9708 385.512 68.6344C385.512 70.298 384.106 71.6465 382.373 71.6465Z" fill="white"/>
</g>
<g opacity="0.9027" clip-path="url(#clip48_22_111)">
<path d="M245.135 8.83801C243.473 8.83801 242.125 7.54456 242.125 5.949C242.125 4.35344 243.473 3.05998 245.135 3.05998C246.798 3.05998 248.146 4.35344 248.146 5.949C248.146 7.54456 246.798 8.83801 245.135 8.83801Z" fill="white"/>
</g>
<g opacity="0.4558" clip-path="url(#clip49_22_111)">
<path d="M36.194 93.3504C33.5159 93.3504 31.3449 91.267 31.3449 88.697C31.3449 86.127 33.5159 84.0436 36.194 84.0436C38.8721 84.0436 41.0431 86.127 41.0431 88.697C41.0431 91.267 38.8721 93.3504 36.194 93.3504Z" fill="white"/>
</g>
<g opacity="0.1699" clip-path="url(#clip50_22_111)">
<path d="M39.4354 197.744C37.417 197.744 35.7808 196.174 35.7808 194.237C35.7808 192.3 37.417 190.73 39.4354 190.73C41.4538 190.73 43.09 192.3 43.09 194.237C43.09 196.174 41.4538 197.744 39.4354 197.744Z" fill="white"/>
</g>
<g opacity="0.8686" clip-path="url(#clip51_22_111)">
<path d="M70.4375 6.92404C68.0192 6.92404 66.0587 5.04266 66.0587 2.72187C66.0587 0.401081 68.0192 -1.48029 70.4375 -1.48029C72.8559 -1.48029 74.8164 0.40108 74.8164 2.72187C74.8164 5.04266 72.8559 6.92404 70.4375 6.92404Z" fill="white"/>
</g>
<g opacity="0.7498" clip-path="url(#clip52_22_111)">
<path d="M190.04 255.497C187.013 255.497 184.559 253.142 184.559 250.237C184.559 247.332 187.013 244.977 190.04 244.977C193.068 244.977 195.522 247.332 195.522 250.237C195.522 253.142 193.068 255.497 190.04 255.497Z" fill="white"/>
</g>
<g opacity="0.9483" clip-path="url(#clip53_22_111)">
<path d="M107.95 411.245C106.192 411.245 104.767 409.877 104.767 408.189C104.767 406.502 106.192 405.134 107.95 405.134C109.709 405.134 111.134 406.502 111.134 408.189C111.134 409.877 109.709 411.245 107.95 411.245Z" fill="white"/>
</g>
<g clip-path="url(#clip54_22_111)">
<path d="M97.5295 598.405C95.8264 598.405 94.4458 597.08 94.4458 595.445C94.4458 593.811 95.8264 592.486 97.5295 592.486C99.2326 592.486 100.613 593.811 100.613 595.445C100.613 597.08 99.2326 598.405 97.5295 598.405Z" fill="white"/>
</g>
<g opacity="0.9532" clip-path="url(#clip55_22_111)">
<path d="M83.7621 716.575C82.1448 716.575 80.8337 715.317 80.8337 713.765C80.8337 712.213 82.1448 710.955 83.7621 710.955C85.3794 710.955 86.6904 712.213 86.6904 713.765C86.6904 715.317 85.3794 716.575 83.7621 716.575Z" fill="white"/>
</g>
<g opacity="0.8588" clip-path="url(#clip56_22_111)">
<path d="M83.7097 792.161C82.1802 792.161 80.9402 790.971 80.9402 789.503C80.9402 788.035 82.1802 786.845 83.7097 786.845C85.2393 786.845 86.4792 788.035 86.4792 789.503C86.4792 790.971 85.2393 792.161 83.7097 792.161Z" fill="white"/>
</g>
<g opacity="0.1987" clip-path="url(#clip57_22_111)">
<path d="M340.746 888.019C338.961 888.019 337.513 886.63 337.513 884.916C337.513 883.203 338.961 881.814 340.746 881.814C342.532 881.814 343.98 883.203 343.98 884.916C343.98 886.63 342.532 888.019 340.746 888.019Z" fill="white"/>
</g>
<g opacity="0.0847" clip-path="url(#clip58_22_111)">
<path d="M402.159 776.901C400.087 776.901 398.407 775.288 398.407 773.299C398.407 771.311 400.087 769.698 402.159 769.698C404.232 769.698 405.912 771.311 405.912 773.299C405.912 775.288 404.232 776.901 402.159 776.901Z" fill="white"/>
</g>
<g opacity="0.0964" clip-path="url(#clip59_22_111)">
<path d="M419.885 759.974C417.774 759.974 416.063 758.332 416.063 756.307C416.063 754.281 417.774 752.639 419.885 752.639C421.996 752.639 423.707 754.281 423.707 756.307C423.707 758.332 421.996 759.974 419.885 759.974Z" fill="white"/>
</g>
<g opacity="0.401" clip-path="url(#clip60_22_111)">
<path d="M652.744 762.02C651.486 762.02 650.467 761.042 650.467 759.836C650.467 758.629 651.486 757.651 652.744 757.651C654.001 757.651 655.021 758.629 655.021 759.836C655.021 761.042 654.001 762.02 652.744 762.02Z" fill="white"/>
</g>
<g opacity="0.4111" clip-path="url(#clip61_22_111)">
<path d="M642.37 788.724C641.089 788.724 640.051 787.728 640.051 786.499C640.051 785.27 641.089 784.274 642.37 784.274C643.65 784.274 644.688 785.27 644.688 786.499C644.688 787.728 643.65 788.724 642.37 788.724Z" fill="white"/>
</g>
<g opacity="0.1834" clip-path="url(#clip62_22_111)">
<path d="M649.532 943.815C648.222 943.815 647.16 942.796 647.16 941.539C647.16 940.281 648.222 939.262 649.532 939.262C650.842 939.262 651.905 940.281 651.905 941.539C651.905 942.796 650.842 943.815 649.532 943.815Z" fill="white"/>
</g>
<g opacity="0.6511" clip-path="url(#clip63_22_111)">
<path d="M759.289 1082.62C757.422 1082.62 755.908 1081.17 755.908 1079.38C755.908 1077.58 757.422 1076.13 759.289 1076.13C761.156 1076.13 762.67 1077.58 762.67 1079.38C762.67 1081.17 761.156 1082.62 759.289 1082.62Z" fill="white"/>
</g>
<g opacity="0.4037" clip-path="url(#clip64_22_111)">
<path d="M865.473 907.316C864.22 907.316 863.203 906.341 863.203 905.138C863.203 903.935 864.22 902.96 865.473 902.96C866.727 902.96 867.743 903.935 867.743 905.138C867.743 906.341 866.727 907.316 865.473 907.316Z" fill="white"/>
</g>
<g opacity="0.2672" clip-path="url(#clip65_22_111)">
<path d="M916.902 808.428C914.218 808.428 912.042 806.339 912.042 803.763C912.042 801.187 914.218 799.099 916.902 799.099C919.587 799.099 921.763 801.187 921.763 803.763C921.763 806.339 919.587 808.428 916.902 808.428Z" fill="white"/>
</g>
<g opacity="0.2459" clip-path="url(#clip66_22_111)">
<path d="M916.866 791.053C913.883 791.053 911.465 788.732 911.465 785.87C911.465 783.007 913.883 780.687 916.866 780.687C919.849 780.687 922.267 783.007 922.267 785.87C922.267 788.732 919.849 791.053 916.866 791.053Z" fill="white"/>
</g>
<g opacity="0.5428" clip-path="url(#clip67_22_111)">
<path d="M1033.37 884.03C1032.18 884.03 1031.22 883.107 1031.22 881.968C1031.22 880.829 1032.18 879.906 1033.37 879.906C1034.55 879.906 1035.52 880.829 1035.52 881.968C1035.52 883.107 1034.55 884.03 1033.37 884.03Z" fill="white"/>
</g>
<g clip-path="url(#clip68_22_111)">
<path d="M1242.27 897.728C1240.81 897.728 1239.63 896.593 1239.63 895.193C1239.63 893.794 1240.81 892.659 1242.27 892.659C1243.73 892.659 1244.91 893.794 1244.91 895.193C1244.91 896.593 1243.73 897.728 1242.27 897.728Z" fill="white"/>
</g>
<g clip-path="url(#clip69_22_111)">
<path d="M1386.21 920.762C1384.8 920.762 1383.66 919.668 1383.66 918.319C1383.66 916.969 1384.8 915.876 1386.21 915.876C1387.61 915.876 1388.75 916.969 1388.75 918.319C1388.75 919.668 1387.61 920.762 1386.21 920.762Z" fill="white"/>
</g>
<g opacity="0.7313" clip-path="url(#clip70_22_111)">
<path d="M1489.09 690.274C1487.72 690.274 1486.6 689.205 1486.6 687.887C1486.6 686.568 1487.72 685.499 1489.09 685.499C1490.47 685.499 1491.58 686.568 1491.58 687.887C1491.58 689.205 1490.47 690.274 1489.09 690.274Z" fill="white"/>
</g>
<g opacity="0.9923" clip-path="url(#clip71_22_111)">
<path d="M1389.72 870.925C1388.47 870.925 1387.46 869.955 1387.46 868.759C1387.46 867.562 1388.47 866.593 1389.72 866.593C1390.96 866.593 1391.97 867.562 1391.97 868.759C1391.97 869.955 1390.96 870.925 1389.72 870.925Z" fill="white"/>
</g>
<g clip-path="url(#clip72_22_111)">
<path d="M1221.79 1064.94C1218.77 1064.94 1216.33 1062.59 1216.33 1059.7C1216.33 1056.81 1218.77 1054.47 1221.79 1054.47C1224.8 1054.47 1227.24 1056.81 1227.24 1059.7C1227.24 1062.59 1224.8 1064.94 1221.79 1064.94Z" fill="white"/>
</g>
<g opacity="0.3675" clip-path="url(#clip73_22_111)">
<path d="M670.066 1019.46C668.524 1019.46 667.274 1018.26 667.274 1016.78C667.274 1015.3 668.524 1014.1 670.066 1014.1C671.608 1014.1 672.858 1015.3 672.858 1016.78C672.858 1018.26 671.608 1019.46 670.066 1019.46Z" fill="white"/>
</g>
<g opacity="0.1831" clip-path="url(#clip74_22_111)">
<path d="M649.54 932.798C648.239 932.798 647.185 931.786 647.185 930.538C647.185 929.29 648.239 928.278 649.54 928.278C650.841 928.278 651.895 929.29 651.895 930.538C651.895 931.786 650.841 932.798 649.54 932.798Z" fill="white"/>
</g>
<g opacity="0.1069" clip-path="url(#clip75_22_111)">
<path d="M447.161 967.005C445.4 967.005 443.973 965.635 443.973 963.945C443.973 962.255 445.4 960.886 447.161 960.886C448.922 960.886 450.349 962.255 450.349 963.945C450.349 965.635 448.922 967.005 447.161 967.005Z" fill="white"/>
</g>
<g opacity="0.2637" clip-path="url(#clip76_22_111)">
<path d="M405.94 1049.56C404.287 1049.56 402.946 1048.27 402.946 1046.69C402.946 1045.1 404.287 1043.82 405.94 1043.82C407.594 1043.82 408.934 1045.1 408.934 1046.69C408.934 1048.27 407.594 1049.56 405.94 1049.56Z" fill="white"/>
</g>
<g opacity="0.2134" clip-path="url(#clip77_22_111)">
<path d="M412.891 1022.81C411.201 1022.81 409.83 1021.49 409.83 1019.87C409.83 1018.25 411.201 1016.93 412.891 1016.93C414.582 1016.93 415.953 1018.25 415.953 1019.87C415.953 1021.49 414.582 1022.81 412.891 1022.81Z" fill="white"/>
</g>
<g opacity="0.8807" clip-path="url(#clip78_22_111)">
<path d="M220.817 966.806C219.136 966.806 217.773 965.499 217.773 963.885C217.773 962.272 219.136 960.964 220.817 960.964C222.498 960.964 223.861 962.272 223.861 963.885C223.861 965.499 222.498 966.806 220.817 966.806Z" fill="white"/>
</g>
<g opacity="0.95" clip-path="url(#clip79_22_111)">
<path d="M162.641 835.019C161.038 835.019 159.737 833.772 159.737 832.232C159.737 830.693 161.038 829.445 162.641 829.445C164.245 829.445 165.546 830.693 165.546 832.232C165.546 833.772 164.245 835.019 162.641 835.019Z" fill="white"/>
</g>
<g opacity="0.6112" clip-path="url(#clip80_22_111)">
<path d="M111.199 936.97C109.606 936.97 108.315 935.731 108.315 934.202C108.315 932.674 109.606 931.435 111.199 931.435C112.792 931.435 114.083 932.674 114.083 934.202C114.083 935.731 112.792 936.97 111.199 936.97Z" fill="white"/>
</g>
<g opacity="0.5741" clip-path="url(#clip81_22_111)">
<path d="M11.6912 1065.2C8.51853 1065.2 5.94655 1062.73 5.94655 1059.68C5.94655 1056.64 8.51853 1054.17 11.6912 1054.17C14.8639 1054.17 17.4359 1056.64 17.4359 1059.68C17.4359 1062.73 14.8639 1065.2 11.6912 1065.2Z" fill="white"/>
</g>
<g opacity="0.6999" clip-path="url(#clip82_22_111)">
<path d="M1478.92 572.533C1477.09 572.533 1475.6 571.105 1475.6 569.343C1475.6 567.582 1477.09 566.154 1478.92 566.154C1480.76 566.154 1482.25 567.582 1482.25 569.343C1482.25 571.105 1480.76 572.533 1478.92 572.533Z" fill="white"/>
</g>
<g clip-path="url(#clip83_22_111)">
<path d="M1386.21 599.886C1383.73 599.886 1381.72 597.958 1381.72 595.579C1381.72 593.201 1383.73 591.272 1386.21 591.272C1388.68 591.272 1390.69 593.201 1390.69 595.579C1390.69 597.958 1388.68 599.886 1386.21 599.886Z" fill="white"/>
</g>
<g clip-path="url(#clip84_22_111)">
<path d="M1362.03 639.229C1359.81 639.229 1358.01 637.502 1358.01 635.373C1358.01 633.243 1359.81 631.517 1362.03 631.517C1364.25 631.517 1366.05 633.243 1366.05 635.373C1366.05 637.502 1364.25 639.229 1362.03 639.229Z" fill="white"/>
</g>
<g clip-path="url(#clip85_22_111)">
<path d="M1328.06 818.248C1326.9 818.248 1325.97 817.35 1325.97 816.243C1325.97 815.136 1326.9 814.238 1328.06 814.238C1329.21 814.238 1330.15 815.136 1330.15 816.243C1330.15 817.35 1329.21 818.248 1328.06 818.248Z" fill="white"/>
</g>
<g clip-path="url(#clip86_22_111)">
<path d="M1307.42 765.349C1306.25 765.349 1305.29 764.434 1305.29 763.305C1305.29 762.176 1306.25 761.261 1307.42 761.261C1308.6 761.261 1309.55 762.176 1309.55 763.305C1309.55 764.434 1308.6 765.349 1307.42 765.349Z" fill="white"/>
</g>
<g clip-path="url(#clip87_22_111)">
<path d="M1290.07 795.205C1288.9 795.205 1287.95 794.293 1287.95 793.169C1287.95 792.044 1288.9 791.132 1290.07 791.132C1291.24 791.132 1292.19 792.044 1292.19 793.169C1292.19 794.293 1291.24 795.205 1290.07 795.205Z" fill="white"/>
</g>
<g opacity="0.6278" clip-path="url(#clip88_22_111)">
<path d="M1061.11 894.065C1059.89 894.065 1058.91 893.119 1058.91 891.952C1058.91 890.786 1059.89 889.84 1061.11 889.84C1062.32 889.84 1063.31 890.786 1063.31 891.952C1063.31 893.119 1062.32 894.065 1061.11 894.065Z" fill="white"/>
</g>
<g opacity="0.9715" clip-path="url(#clip89_22_111)">
<path d="M1180.67 666.994C1179.36 666.994 1178.29 665.974 1178.29 664.717C1178.29 663.459 1179.36 662.439 1180.67 662.439C1181.98 662.439 1183.04 663.459 1183.04 664.717C1183.04 665.974 1181.98 666.994 1180.67 666.994Z" fill="white"/>
</g>
<g opacity="0.1906" clip-path="url(#clip90_22_111)">
<path d="M923.635 711.493C921.252 711.493 919.32 709.639 919.32 707.353C919.32 705.066 921.252 703.212 923.635 703.212C926.018 703.212 927.95 705.066 927.95 707.353C927.95 709.639 926.018 711.493 923.635 711.493Z" fill="white"/>
</g>
<g opacity="0.3942" clip-path="url(#clip91_22_111)">
<path d="M1019.74 591.392C1018.27 591.392 1017.08 590.251 1017.08 588.844C1017.08 587.437 1018.27 586.296 1019.74 586.296C1021.2 586.296 1022.39 587.437 1022.39 588.844C1022.39 590.251 1021.2 591.392 1019.74 591.392Z" fill="white"/>
</g>
<g opacity="0.4624" clip-path="url(#clip92_22_111)">
<path d="M1050.71 666.981C1049.39 666.981 1048.32 665.955 1048.32 664.689C1048.32 663.423 1049.39 662.396 1050.71 662.396C1052.03 662.396 1053.1 663.423 1053.1 664.689C1053.1 665.955 1052.03 666.981 1050.71 666.981Z" fill="white"/>
</g>
<g clip-path="url(#clip93_22_111)">
<path d="M1190.72 404.669C1189 404.669 1187.6 403.329 1187.6 401.676C1187.6 400.023 1189 398.683 1190.72 398.683C1192.45 398.683 1193.84 400.023 1193.84 401.676C1193.84 403.329 1192.45 404.669 1190.72 404.669Z" fill="white"/>
</g>
<g clip-path="url(#clip94_22_111)">
<path d="M1214.95 378.071C1213.2 378.071 1211.77 376.705 1211.77 375.02C1211.77 373.335 1213.2 371.969 1214.95 371.969C1216.71 371.969 1218.13 373.335 1218.13 375.02C1218.13 376.705 1216.71 378.071 1214.95 378.071Z" fill="white"/>
</g>
<g clip-path="url(#clip95_22_111)">
<path d="M1290.03 276.96C1287.87 276.96 1286.12 275.278 1286.12 273.203C1286.12 271.128 1287.87 269.446 1290.03 269.446C1292.2 269.446 1293.95 271.128 1293.95 273.203C1293.95 275.278 1292.2 276.96 1290.03 276.96Z" fill="white"/>
</g>
<g clip-path="url(#clip96_22_111)">
<path d="M1084.73 351.644C1082.97 351.644 1081.54 350.276 1081.54 348.588C1081.54 346.901 1082.97 345.533 1084.73 345.533C1086.49 345.533 1087.91 346.901 1087.91 348.588C1087.91 350.276 1086.49 351.644 1084.73 351.644Z" fill="white"/>
</g>
<g opacity="0.988" clip-path="url(#clip97_22_111)">
<path d="M1057.06 378.25C1055.31 378.25 1053.9 376.89 1053.9 375.211C1053.9 373.532 1055.31 372.172 1057.06 372.172C1058.81 372.172 1060.23 373.532 1060.23 375.211C1060.23 376.89 1058.81 378.25 1057.06 378.25Z" fill="white"/>
</g>
<g clip-path="url(#clip98_22_111)">
<path d="M1077.85 199.97C1076.17 199.97 1074.81 198.665 1074.81 197.056C1074.81 195.447 1076.17 194.142 1077.85 194.142C1079.53 194.142 1080.89 195.447 1080.89 197.056C1080.89 198.665 1079.53 199.97 1077.85 199.97Z" fill="white"/>
</g>
<g opacity="0.9705" clip-path="url(#clip99_22_111)">
<path d="M1033.16 236.406C1031.46 236.406 1030.08 235.081 1030.08 233.448C1030.08 231.814 1031.46 230.49 1033.16 230.49C1034.87 230.49 1036.25 231.814 1036.25 233.448C1036.25 235.081 1034.87 236.406 1033.16 236.406Z" fill="white"/>
</g>
<g opacity="0.8498" clip-path="url(#clip100_22_111)">
<path d="M1016.11 127.29C1014.48 127.29 1013.17 126.027 1013.17 124.468C1013.17 122.91 1014.48 121.647 1016.11 121.647C1017.73 121.647 1019.05 122.91 1019.05 124.468C1019.05 126.027 1017.73 127.29 1016.11 127.29Z" fill="white"/>
</g>
<g opacity="0.9547" clip-path="url(#clip101_22_111)">
<path d="M937.382 173.756C935.626 173.756 934.203 172.39 934.203 170.705C934.203 169.02 935.626 167.654 937.382 167.654C939.138 167.654 940.561 169.02 940.561 170.705C940.561 172.39 939.138 173.756 937.382 173.756Z" fill="white"/>
</g>
<g opacity="0.913" clip-path="url(#clip102_22_111)">
<path d="M896.021 220.124C894.199 220.124 892.721 218.706 892.721 216.957C892.721 215.207 894.199 213.789 896.021 213.789C897.844 213.789 899.322 215.207 899.322 216.957C899.322 218.706 897.844 220.124 896.021 220.124Z" fill="white"/>
</g>
<g opacity="0.1995" clip-path="url(#clip103_22_111)">
<path d="M927.236 479.895C925.588 479.895 924.252 478.612 924.252 477.031C924.252 475.449 925.588 474.167 927.236 474.167C928.884 474.167 930.22 475.449 930.22 477.031C930.22 478.612 928.884 479.895 927.236 479.895Z" fill="white"/>
</g>
<g opacity="0.2381" clip-path="url(#clip104_22_111)">
<path d="M964.995 674.141C963.224 674.141 961.788 672.763 961.788 671.064C961.788 669.364 963.224 667.986 964.995 667.986C966.767 667.986 968.202 669.364 968.202 671.064C968.202 672.763 966.767 674.141 964.995 674.141Z" fill="white"/>
</g>
<g opacity="0.1031" clip-path="url(#clip105_22_111)">
<path d="M848.136 647.512C846.578 647.512 845.315 646.299 845.315 644.804C845.315 643.309 846.578 642.097 848.136 642.097C849.695 642.097 850.958 643.309 850.958 644.804C850.958 646.299 849.695 647.512 848.136 647.512Z" fill="white"/>
</g>
<g opacity="0.2738" clip-path="url(#clip106_22_111)">
<path d="M752.099 637.058C750.894 637.058 749.918 636.121 749.918 634.964C749.918 633.808 750.894 632.871 752.099 632.871C753.304 632.871 754.281 633.808 754.281 634.964C754.281 636.121 753.304 637.058 752.099 637.058Z" fill="white"/>
</g>
<g opacity="0.392" clip-path="url(#clip107_22_111)">
<path d="M710.88 679.795C709.698 679.795 708.741 678.876 708.741 677.742C708.741 676.608 709.698 675.689 710.88 675.689C712.062 675.689 713.02 676.608 713.02 677.742C713.02 678.876 712.062 679.795 710.88 679.795Z" fill="white"/>
</g>
<g opacity="0.2603" clip-path="url(#clip108_22_111)">
<path d="M738.467 745.682C737.295 745.682 736.345 744.771 736.345 743.646C736.345 742.522 737.295 741.61 738.467 741.61C739.638 741.61 740.588 742.522 740.588 743.646C740.588 744.771 739.638 745.682 738.467 745.682Z" fill="white"/>
</g>
<g opacity="0.2929" clip-path="url(#clip109_22_111)">
<path d="M844.654 864.91C843.089 864.91 841.819 863.692 841.819 862.189C841.819 860.686 843.089 859.468 844.654 859.468C846.22 859.468 847.49 860.686 847.49 862.189C847.49 863.692 846.22 864.91 844.654 864.91Z" fill="white"/>
</g>
<g opacity="0.5478" clip-path="url(#clip110_22_111)">
<path d="M862.098 979.409C860.936 979.409 859.994 978.505 859.994 977.39C859.994 976.275 860.936 975.371 862.098 975.371C863.26 975.371 864.202 976.275 864.202 977.39C864.202 978.505 863.26 979.409 862.098 979.409Z" fill="white"/>
</g>
<g opacity="0.5813" clip-path="url(#clip111_22_111)">
<path d="M827.832 1055.36C826.484 1055.36 825.392 1054.32 825.392 1053.02C825.392 1051.73 826.484 1050.68 827.832 1050.68C829.179 1050.68 830.271 1051.73 830.271 1053.02C830.271 1054.32 829.179 1055.36 827.832 1055.36Z" fill="white"/>
</g>
<g opacity="0.1496" clip-path="url(#clip112_22_111)">
<path d="M774.192 428.177C771.088 428.177 768.571 425.762 768.571 422.782C768.571 419.803 771.088 417.387 774.192 417.387C777.297 417.387 779.814 419.803 779.814 422.782C779.814 425.762 777.297 428.177 774.192 428.177Z" fill="white"/>
</g>
<g opacity="0.2549" clip-path="url(#clip113_22_111)">
<path d="M721.877 394.051C718.4 394.051 715.581 391.346 715.581 388.009C715.581 384.672 718.4 381.966 721.877 381.966C725.355 381.966 728.174 384.672 728.174 388.009C728.174 391.346 725.355 394.051 721.877 394.051Z" fill="white"/>
</g>
<g opacity="0.6387" clip-path="url(#clip114_22_111)">
<path d="M834.105 342.541C831.669 342.541 829.695 340.646 829.695 338.308C829.695 335.97 831.669 334.075 834.105 334.075C836.541 334.075 838.516 335.97 838.516 338.308C838.516 340.646 836.541 342.541 834.105 342.541Z" fill="white"/>
</g>
<g opacity="0.0681" clip-path="url(#clip115_22_111)">
<path d="M806.123 510.412C804.327 510.412 802.872 509.015 802.872 507.293C802.872 505.57 804.327 504.173 806.123 504.173C807.918 504.173 809.373 505.57 809.373 507.293C809.373 509.015 807.918 510.412 806.123 510.412Z" fill="white"/>
</g>
<g opacity="0.1077" clip-path="url(#clip116_22_111)">
<path d="M858.29 479.634C856.47 479.634 854.995 478.218 854.995 476.472C854.995 474.725 856.47 473.31 858.29 473.31C860.11 473.31 861.585 474.725 861.585 476.472C861.585 478.218 860.11 479.634 858.29 479.634Z" fill="white"/>
</g>
<g opacity="0.8932" clip-path="url(#clip117_22_111)">
<path d="M1397.25 518.566C1395.12 518.566 1393.38 516.903 1393.38 514.851C1393.38 512.8 1395.12 511.137 1397.25 511.137C1399.39 511.137 1401.13 512.8 1401.13 514.851C1401.13 516.903 1399.39 518.566 1397.25 518.566Z" fill="white"/>
</g>
<g opacity="0.9616" clip-path="url(#clip118_22_111)">
<path d="M1421.23 354.081C1418.97 354.081 1417.14 352.327 1417.14 350.164C1417.14 348.002 1418.97 346.248 1421.23 346.248C1423.48 346.248 1425.31 348.002 1425.31 350.164C1425.31 352.327 1423.48 354.081 1421.23 354.081Z" fill="white"/>
</g>
<g opacity="0.904" clip-path="url(#clip119_22_111)">
<path d="M1413.4 269.518C1411.16 269.518 1409.33 267.771 1409.33 265.615C1409.33 263.46 1411.16 261.712 1413.4 261.712C1415.65 261.712 1417.47 263.46 1417.47 265.615C1417.47 267.771 1415.65 269.518 1413.4 269.518Z" fill="white"/>
</g>
<g opacity="0.7645" clip-path="url(#clip120_22_111)">
<path d="M215.174 128.282C212.439 128.282 210.221 126.154 210.221 123.529C210.221 120.903 212.439 118.775 215.174 118.775C217.91 118.775 220.128 120.903 220.128 123.529C220.128 126.154 217.91 128.282 215.174 128.282Z" fill="white"/>
</g>
<g opacity="0.6135" clip-path="url(#clip121_22_111)">
<path d="M302.965 208.168C298.481 208.168 294.846 204.68 294.846 200.377C294.846 196.074 298.481 192.585 302.965 192.585C307.449 192.585 311.084 196.074 311.084 200.377C311.084 204.68 307.449 208.168 302.965 208.168Z" fill="white"/>
</g>
<g opacity="0.4784" clip-path="url(#clip122_22_111)">
<path d="M365.051 283.367C362.384 283.367 360.222 281.292 360.222 278.733C360.222 276.174 362.384 274.099 365.051 274.099C367.718 274.099 369.88 276.174 369.88 278.733C369.88 281.292 367.718 283.367 365.051 283.367Z" fill="white"/>
</g>
<g opacity="0.4784" clip-path="url(#clip123_22_111)">
<path d="M360.967 288.258C358.393 288.258 356.307 286.256 356.307 283.786C356.307 281.316 358.393 279.314 360.967 279.314C363.541 279.314 365.627 281.316 365.627 283.786C365.627 286.256 363.541 288.258 360.967 288.258Z" fill="white"/>
</g>
<g opacity="0.1262" clip-path="url(#clip124_22_111)">
<path d="M542.607 997.04C541.039 997.04 539.768 995.82 539.768 994.315C539.768 992.81 541.039 991.59 542.607 991.59C544.176 991.59 545.447 992.81 545.447 994.315C545.447 995.82 544.176 997.04 542.607 997.04Z" fill="white"/>
</g>
<g opacity="0.1387" clip-path="url(#clip125_22_111)">
<path d="M590.437 927.603C588.982 927.603 587.802 926.471 587.802 925.074C587.802 923.677 588.982 922.545 590.437 922.545C591.893 922.545 593.073 923.677 593.073 925.074C593.073 926.471 591.893 927.603 590.437 927.603Z" fill="white"/>
</g>
<g clip-path="url(#clip126_22_111)">
<path d="M1629.79 912.963C1628.03 912.963 1626.6 911.595 1626.6 909.907C1626.6 908.22 1628.03 906.852 1629.79 906.852C1631.54 906.852 1632.97 908.22 1632.97 909.907C1632.97 911.595 1631.54 912.963 1629.79 912.963Z" fill="white"/>
</g>
<g clip-path="url(#clip127_22_111)">
<path d="M1723.84 835.464C1722.09 835.464 1720.66 834.096 1720.66 832.409C1720.66 830.721 1722.09 829.353 1723.84 829.353C1725.6 829.353 1727.03 830.721 1727.03 832.409C1727.03 834.096 1725.6 835.464 1723.84 835.464Z" fill="white"/>
</g>
<g clip-path="url(#clip128_22_111)">
<path d="M1766.09 1067.69C1764.33 1067.69 1762.9 1066.32 1762.9 1064.63C1762.9 1062.94 1764.33 1061.57 1766.09 1061.57C1767.84 1061.57 1769.27 1062.94 1769.27 1064.63C1769.27 1066.32 1767.84 1067.69 1766.09 1067.69Z" fill="white"/>
</g>
<g clip-path="url(#clip129_22_111)">
<path d="M1868.67 990.397C1866.91 990.397 1865.48 989.029 1865.48 987.342C1865.48 985.655 1866.91 984.287 1868.67 984.287C1870.42 984.287 1871.85 985.655 1871.85 987.342C1871.85 989.029 1870.42 990.397 1868.67 990.397Z" fill="white"/>
</g>
<g clip-path="url(#clip130_22_111)">
<path d="M1877.11 753.831C1875.35 753.831 1873.93 752.463 1873.93 750.775C1873.93 749.088 1875.35 747.72 1877.11 747.72C1878.87 747.72 1880.29 749.088 1880.29 750.775C1880.29 752.463 1878.87 753.831 1877.11 753.831Z" fill="white"/>
</g>
<g clip-path="url(#clip131_22_111)">
<path d="M1915.34 480.216C1913.58 480.216 1912.16 478.848 1912.16 477.161C1912.16 475.473 1913.58 474.105 1915.34 474.105C1917.1 474.105 1918.53 475.473 1918.53 477.161C1918.53 478.848 1917.1 480.216 1915.34 480.216Z" fill="white"/>
</g>
<g clip-path="url(#clip132_22_111)">
<path d="M1881.18 418.841C1879.43 418.841 1878 417.474 1878 415.786C1878 414.099 1879.43 412.731 1881.18 412.731C1882.94 412.731 1884.37 414.099 1884.37 415.786C1884.37 417.474 1882.94 418.841 1881.18 418.841Z" fill="white"/>
</g>
<g clip-path="url(#clip133_22_111)">
<path d="M1702.15 794.355C1700.4 794.355 1698.97 792.987 1698.97 791.299C1698.97 789.612 1700.4 788.244 1702.15 788.244C1703.91 788.244 1705.34 789.612 1705.34 791.299C1705.34 792.987 1703.91 794.355 1702.15 794.355Z" fill="white"/>
</g>
<g clip-path="url(#clip134_22_111)">
<path d="M1642.57 855.655C1640.81 855.655 1639.39 854.287 1639.39 852.599C1639.39 850.912 1640.81 849.544 1642.57 849.544C1644.33 849.544 1645.75 850.912 1645.75 852.599C1645.75 854.287 1644.33 855.655 1642.57 855.655Z" fill="white"/>
</g>
<g opacity="0.9996" clip-path="url(#clip135_22_111)">
<path d="M1549.31 999.025C1547.53 999.025 1546.09 997.64 1546.09 995.932C1546.09 994.224 1547.53 992.839 1549.31 992.839C1551.09 992.839 1552.53 994.224 1552.53 995.932C1552.53 997.64 1551.09 999.025 1549.31 999.025Z" fill="white"/>
</g>
<g opacity="0.9996" clip-path="url(#clip136_22_111)">
<path d="M1535.88 986.107C1534.12 986.107 1532.7 984.74 1532.7 983.054C1532.7 981.368 1534.12 980.002 1535.88 980.002C1537.64 980.002 1539.06 981.368 1539.06 983.054C1539.06 984.74 1537.64 986.107 1535.88 986.107Z" fill="white"/>
</g>
<g opacity="0.9074" clip-path="url(#clip137_22_111)">
<path d="M1587.34 749.352C1585.71 749.352 1584.4 748.088 1584.4 746.527C1584.4 744.967 1585.71 743.702 1587.34 743.702C1588.97 743.702 1590.28 744.967 1590.28 746.527C1590.28 748.088 1588.97 749.352 1587.34 749.352Z" fill="white"/>
</g>
<g opacity="0.789" clip-path="url(#clip138_22_111)">
<path d="M1612.98 622.819C1611.37 622.819 1610.06 621.567 1610.06 620.023C1610.06 618.479 1611.37 617.227 1612.98 617.227C1614.59 617.227 1615.89 618.479 1615.89 620.023C1615.89 621.567 1614.59 622.819 1612.98 622.819Z" fill="white"/>
</g>
<g opacity="0.9999" clip-path="url(#clip139_22_111)">
<path d="M1693.79 970.237C1692.03 970.237 1690.6 968.867 1690.6 967.178C1690.6 965.488 1692.03 964.119 1693.79 964.119C1695.55 964.119 1696.97 965.488 1696.97 967.178C1696.97 968.867 1695.55 970.237 1693.79 970.237Z" fill="white"/>
</g>
<g clip-path="url(#clip140_22_111)">
<path d="M1804.76 945.466C1803.01 945.466 1801.58 944.098 1801.58 942.411C1801.58 940.723 1803.01 939.355 1804.76 939.355C1806.52 939.355 1807.95 940.723 1807.95 942.411C1807.95 944.098 1806.52 945.466 1804.76 945.466Z" fill="white"/>
</g>
<g clip-path="url(#clip141_22_111)">
<path d="M1719.54 925.107C1717.78 925.107 1716.35 923.739 1716.35 922.052C1716.35 920.364 1717.78 918.997 1719.54 918.997C1721.29 918.997 1722.72 920.364 1722.72 922.052C1722.72 923.739 1721.29 925.107 1719.54 925.107Z" fill="white"/>
</g>
<g opacity="0.9931" clip-path="url(#clip142_22_111)">
<path d="M1736.73 782.032C1734.99 782.032 1733.57 780.672 1733.57 778.994C1733.57 777.316 1734.99 775.956 1736.73 775.956C1738.48 775.956 1739.9 777.316 1739.9 778.994C1739.9 780.672 1738.48 782.032 1736.73 782.032Z" fill="white"/>
</g>
<g clip-path="url(#clip143_22_111)">
<path d="M1774.62 496.353C1772.86 496.353 1771.44 494.985 1771.44 493.298C1771.44 491.61 1772.86 490.243 1774.62 490.243C1776.38 490.243 1777.81 491.61 1777.81 493.298C1777.81 494.985 1776.38 496.353 1774.62 496.353Z" fill="white"/>
</g>
<g clip-path="url(#clip144_22_111)">
<path d="M1757.68 288.343C1755.92 288.343 1754.5 286.975 1754.5 285.288C1754.5 283.6 1755.92 282.233 1757.68 282.233C1759.44 282.233 1760.87 283.6 1760.87 285.288C1760.87 286.975 1759.44 288.343 1757.68 288.343Z" fill="white"/>
</g>
<g clip-path="url(#clip145_22_111)">
<path d="M1770.32 165.913C1768.56 165.913 1767.14 164.545 1767.14 162.858C1767.14 161.17 1768.56 159.802 1770.32 159.802C1772.08 159.802 1773.5 161.17 1773.5 162.858C1773.5 164.545 1772.08 165.913 1770.32 165.913Z" fill="white"/>
</g>
<g clip-path="url(#clip146_22_111)">
<path d="M1808.91 525.119C1807.15 525.119 1805.73 523.751 1805.73 522.063C1805.73 520.376 1807.15 519.008 1808.91 519.008C1810.67 519.008 1812.09 520.376 1812.09 522.063C1812.09 523.751 1810.67 525.119 1808.91 525.119Z" fill="white"/>
</g>
<g opacity="0.999" clip-path="url(#clip147_22_111)">
<path d="M1834.03 660.174C1832.27 660.174 1830.85 658.808 1830.85 657.122C1830.85 655.436 1832.27 654.069 1834.03 654.069C1835.78 654.069 1837.21 655.436 1837.21 657.122C1837.21 658.808 1835.78 660.174 1834.03 660.174Z" fill="white"/>
</g>
<g opacity="0.9997" clip-path="url(#clip148_22_111)">
<path d="M1868.63 598.449C1866.87 598.449 1865.44 597.081 1865.44 595.393C1865.44 593.706 1866.87 592.338 1868.63 592.338C1870.39 592.338 1871.81 593.706 1871.81 595.393C1871.81 597.081 1870.39 598.449 1868.63 598.449Z" fill="white"/>
</g>
<g opacity="0.9995" clip-path="url(#clip149_22_111)">
<path d="M1847.69 651.475C1845.93 651.475 1844.51 650.107 1844.51 648.42C1844.51 646.732 1845.93 645.364 1847.69 645.364C1849.45 645.364 1850.87 646.732 1850.87 648.42C1850.87 650.107 1849.45 651.475 1847.69 651.475Z" fill="white"/>
</g>
<g opacity="0.9877" clip-path="url(#clip150_22_111)">
<path d="M1766.06 659.796C1764.32 659.796 1762.9 658.436 1762.9 656.758C1762.9 655.08 1764.32 653.72 1766.06 653.72C1767.81 653.72 1769.23 655.08 1769.23 656.758C1769.23 658.436 1767.81 659.796 1766.06 659.796Z" fill="white"/>
</g>
<g opacity="0.9351" clip-path="url(#clip151_22_111)">
<path d="M1685.28 541.342C1683.57 541.342 1682.18 540.01 1682.18 538.367C1682.18 536.723 1683.57 535.391 1685.28 535.391C1686.99 535.391 1688.38 536.723 1688.38 538.367C1688.38 540.01 1686.99 541.342 1685.28 541.342Z" fill="white"/>
</g>
<g clip-path="url(#clip152_22_111)">
<path d="M1672.96 333.026C1671.2 333.026 1669.77 331.659 1669.77 329.971C1669.77 328.284 1671.2 326.916 1672.96 326.916C1674.72 326.916 1676.14 328.284 1676.14 329.971C1676.14 331.659 1674.72 333.026 1672.96 333.026Z" fill="white"/>
</g>
<g clip-path="url(#clip153_22_111)">
<path d="M1651.18 345.573C1649.42 345.573 1647.99 344.205 1647.99 342.518C1647.99 340.83 1649.42 339.462 1651.18 339.462C1652.94 339.462 1654.36 340.83 1654.36 342.518C1654.36 344.205 1652.94 345.573 1651.18 345.573Z" fill="white"/>
</g>
<g clip-path="url(#clip154_22_111)">
<path d="M1604.49 382.347C1602.73 382.347 1601.3 380.98 1601.3 379.292C1601.3 377.605 1602.73 376.237 1604.49 376.237C1606.25 376.237 1607.67 377.605 1607.67 379.292C1607.67 380.98 1606.25 382.347 1604.49 382.347Z" fill="white"/>
</g>
<g opacity="0.9878" clip-path="url(#clip155_22_111)">
<path d="M1566.12 292.274C1564.27 292.274 1562.78 290.839 1562.78 289.069C1562.78 287.299 1564.27 285.864 1566.12 285.864C1567.96 285.864 1569.46 287.299 1569.46 289.069C1569.46 290.839 1567.96 292.274 1566.12 292.274Z" fill="white"/>
</g>
<g opacity="0.9281" clip-path="url(#clip156_22_111)">
<path d="M1549.14 451.864C1547.31 451.864 1545.83 450.442 1545.83 448.686C1545.83 446.931 1547.31 445.508 1549.14 445.508C1550.97 445.508 1552.45 446.931 1552.45 448.686C1552.45 450.442 1550.97 451.864 1549.14 451.864Z" fill="white"/>
</g>
<g opacity="0.9733" clip-path="url(#clip157_22_111)">
<path d="M1532.01 357.93C1530.11 357.93 1528.58 356.457 1528.58 354.639C1528.58 352.821 1530.11 351.348 1532.01 351.348C1533.9 351.348 1535.44 352.821 1535.44 354.639C1535.44 356.457 1533.9 357.93 1532.01 357.93Z" fill="white"/>
</g>
<g clip-path="url(#clip158_22_111)">
<path d="M1582.84 92.1992C1581.09 92.1992 1579.66 90.8314 1579.66 89.144C1579.66 87.4566 1581.09 86.0888 1582.84 86.0888C1584.6 86.0888 1586.03 87.4566 1586.03 89.144C1586.03 90.8313 1584.6 92.1992 1582.84 92.1992Z" fill="white"/>
</g>
<g clip-path="url(#clip159_22_111)">
<path d="M1757.45 104.466C1755.69 104.466 1754.26 103.098 1754.26 101.411C1754.26 99.7236 1755.69 98.3557 1757.45 98.3557C1759.21 98.3557 1760.63 99.7236 1760.63 101.411C1760.63 103.098 1759.21 104.466 1757.45 104.466Z" fill="white"/>
</g>
<g clip-path="url(#clip160_22_111)">
<path d="M1813.21 276.126C1811.45 276.126 1810.02 274.758 1810.02 273.07C1810.02 271.383 1811.45 270.015 1813.21 270.015C1814.96 270.015 1816.39 271.383 1816.39 273.07C1816.39 274.758 1814.96 276.126 1813.21 276.126Z" fill="white"/>
</g>
<g clip-path="url(#clip161_22_111)">
<path d="M1868.42 174.185C1866.66 174.185 1865.23 172.817 1865.23 171.13C1865.23 169.443 1866.66 168.075 1868.42 168.075C1870.18 168.075 1871.6 169.443 1871.6 171.13C1871.6 172.817 1870.18 174.185 1868.42 174.185Z" fill="white"/>
</g>
<g clip-path="url(#clip162_22_111)">
<path d="M1855.57 100.72C1853.81 100.72 1852.39 99.3522 1852.39 97.6649C1852.39 95.9775 1853.81 94.6096 1855.57 94.6096C1857.33 94.6096 1858.75 95.9775 1858.75 97.6649C1858.75 99.3522 1857.33 100.72 1855.57 100.72Z" fill="white"/>
</g>
<g clip-path="url(#clip163_22_111)">
<path d="M1851.17 71.6338C1849.42 71.6338 1847.99 70.2659 1847.99 68.5785C1847.99 66.8912 1849.42 65.5233 1851.17 65.5233C1852.93 65.5233 1854.36 66.8912 1854.36 68.5785C1854.36 70.2659 1852.93 71.6338 1851.17 71.6338Z" fill="white"/>
</g>
<g opacity="0.9966" clip-path="url(#clip164_22_111)">
<path d="M1625.65 194.296C1623.86 194.296 1622.42 192.909 1622.42 191.199C1622.42 189.488 1623.86 188.102 1625.65 188.102C1627.43 188.102 1628.87 189.488 1628.87 191.199C1628.87 192.909 1627.43 194.296 1625.65 194.296Z" fill="white"/>
</g>
<g opacity="0.9994" clip-path="url(#clip165_22_111)">
<path d="M1629.82 63.5929C1628.06 63.5929 1626.63 62.2215 1626.63 60.5297C1626.63 58.838 1628.06 57.4666 1629.82 57.4666C1631.59 57.4666 1633.02 58.838 1633.02 60.5297C1633.02 62.2215 1631.59 63.5929 1629.82 63.5929Z" fill="white"/>
</g>
</g>
</g>
<defs>
<linearGradient id="paint0_linear_22_111" x1="961.486" y1="-66.4144" x2="961.072" y2="1080" gradientUnits="userSpaceOnUse">
<stop stop-color="#164F6B"/>
<stop offset="0.275" stop-color="#056281"/>
<stop offset="0.592708" stop-color="#218A93"/>
<stop offset="1" stop-color="#C1B48F"/>
</linearGradient>
<clipPath id="clip0_22_111">
<rect width="30.6099" height="29.3746" fill="white" transform="matrix(-1 2.75289e-08 3.67025e-08 1 1323.57 754.425)"/>
</clipPath>
<clipPath id="clip1_22_111">
<rect width="15.8737" height="15.2331" fill="white" transform="matrix(-1 2.75289e-08 3.67025e-08 1 158.095 667.012)"/>
</clipPath>
<clipPath id="clip2_22_111">
<rect width="36.4438" height="34.973" fill="white" transform="matrix(-1 2.75289e-08 3.67025e-08 1 666.111 59.7743)"/>
</clipPath>
<clipPath id="clip3_22_111">
<rect width="27.3951" height="26.2895" fill="white" transform="matrix(-1 2.75289e-08 3.67025e-08 1 1259.25 300.036)"/>
</clipPath>
<clipPath id="clip4_22_111">
<rect width="48.5095" height="46.5519" fill="white" transform="matrix(-1 2.75289e-08 3.67025e-08 1 453.094 369.574)"/>
</clipPath>
<clipPath id="clip5_22_111">
<rect width="25.6773" height="24.6411" fill="white" transform="matrix(-1 2.75289e-08 3.67025e-08 1 24.4442 323.023)"/>
</clipPath>
<clipPath id="clip6_22_111">
<rect width="25.9957" height="24.9466" fill="white" transform="matrix(-1 2.75289e-08 3.67025e-08 1 325.949 58.7232)"/>
</clipPath>
<clipPath id="clip7_22_111">
<rect width="38.0255" height="36.4909" fill="white" transform="matrix(-1 2.75289e-08 3.67025e-08 1 698.279 681.23)"/>
</clipPath>
<clipPath id="clip8_22_111">
<rect width="46.6453" height="44.7629" fill="white" transform="matrix(-1 2.75289e-08 3.67025e-08 1 1471.38 179.757)"/>
</clipPath>
<clipPath id="clip9_22_111">
<rect width="25.3871" height="24.3626" fill="white" transform="matrix(-1 2.75289e-08 3.67025e-08 1 911.145 1065.79)"/>
</clipPath>
<clipPath id="clip10_22_111">
<rect width="33.419" height="32.0703" fill="white" transform="matrix(-1 2.75289e-08 3.67025e-08 1 993.311 292.663)"/>
</clipPath>
<clipPath id="clip11_22_111">
<rect width="51.9708" height="49.8733" fill="white" transform="matrix(-1 2.75289e-08 3.67025e-08 1 1042.3 590.509)"/>
</clipPath>
<clipPath id="clip12_22_111">
<rect width="26.5503" height="25.4789" fill="white" transform="matrix(-1 2.75289e-08 3.67025e-08 1 1476.99 591.153)"/>
</clipPath>
<clipPath id="clip13_22_111">
<rect width="20.1079" height="19.2964" fill="white" transform="matrix(-1 2.75289e-08 3.67025e-08 1 334.69 802.509)"/>
</clipPath>
<clipPath id="clip14_22_111">
<rect width="22.4368" height="21.5314" fill="white" transform="matrix(-1 2.75289e-08 3.67025e-08 1 1426.95 1068.34)"/>
</clipPath>
<clipPath id="clip15_22_111">
<rect width="25.6773" height="24.6411" fill="white" transform="matrix(-1 2.75289e-08 3.67025e-08 1 1858.8 966.724)"/>
</clipPath>
<clipPath id="clip16_22_111">
<rect width="26.5503" height="25.4789" fill="white" transform="matrix(-1 2.75289e-08 3.67025e-08 1 1791.39 623.72)"/>
</clipPath>
<clipPath id="clip17_22_111">
<rect width="25.6773" height="24.6411" fill="white" transform="matrix(-1 2.75289e-08 3.67025e-08 1 1824.9 142.84)"/>
</clipPath>
<clipPath id="clip18_22_111">
<rect width="5.53391" height="5.31057" fill="white" transform="matrix(-1 2.75289e-08 3.67025e-08 1 1237.34 79.323)"/>
</clipPath>
<clipPath id="clip19_22_111">
<rect width="5.40138" height="5.18341" fill="white" transform="matrix(-1 2.75289e-08 3.67025e-08 1 1246.82 58.7947)"/>
</clipPath>
<clipPath id="clip20_22_111">
<rect width="6.48141" height="6.21983" fill="white" transform="matrix(-1 2.75289e-08 3.67025e-08 1 882.542 26.8717)"/>
</clipPath>
<clipPath id="clip21_22_111">
<rect width="8.76628" height="8.41251" fill="white" transform="matrix(-1 2.75289e-08 3.67025e-08 1 1376.61 200.372)"/>
</clipPath>
<clipPath id="clip22_22_111">
<rect width="7.75733" height="7.44425" fill="white" transform="matrix(-1 2.75289e-08 3.67025e-08 1 1310.73 209.838)"/>
</clipPath>
<clipPath id="clip23_22_111">
<rect width="6.57551" height="6.31013" fill="white" transform="matrix(-1 2.75289e-08 3.67025e-08 1 1256.56 163.437)"/>
</clipPath>
<clipPath id="clip24_22_111">
<rect width="5.2535" height="5.04149" fill="white" transform="matrix(-1 2.75289e-08 3.67025e-08 1 1277.13 25.4053)"/>
</clipPath>
<clipPath id="clip25_22_111">
<rect width="5.43531" height="5.21597" fill="white" transform="matrix(-1 2.75289e-08 3.67025e-08 1 1202.37 7.38015)"/>
</clipPath>
<clipPath id="clip26_22_111">
<rect width="7.50701" height="7.20407" fill="white" transform="matrix(-1 2.75289e-08 3.67025e-08 1 1389.88 113.794)"/>
</clipPath>
<clipPath id="clip27_22_111">
<rect width="6.43211" height="6.17252" fill="white" transform="matrix(-1 2.75289e-08 3.67025e-08 1 484.617 855.576)"/>
</clipPath>
<clipPath id="clip28_22_111">
<rect width="6.0992" height="5.85308" fill="white" transform="matrix(-1 2.75289e-08 3.67025e-08 1 319.859 990.751)"/>
</clipPath>
<clipPath id="clip29_22_111">
<rect width="6.45323" height="6.19281" fill="white" transform="matrix(-1 2.75289e-08 3.67025e-08 1 251.475 1013.79)"/>
</clipPath>
<clipPath id="clip30_22_111">
<rect width="7.73236" height="7.42033" fill="white" transform="matrix(-1 2.75289e-08 3.67025e-08 1 84.277 1009.57)"/>
</clipPath>
<clipPath id="clip31_22_111">
<rect width="6.40202" height="6.14367" fill="white" transform="matrix(-1 2.75289e-08 3.67025e-08 1 11.7456 368.961)"/>
</clipPath>
<clipPath id="clip32_22_111">
<rect width="8.58831" height="8.24173" fill="white" transform="matrix(-1 2.75289e-08 3.67025e-08 1 101.912 1072.07)"/>
</clipPath>
<clipPath id="clip33_22_111">
<rect width="7.56847" height="7.26303" fill="white" transform="matrix(-1 2.75289e-08 3.67025e-08 1 279.389 673.966)"/>
</clipPath>
<clipPath id="clip34_22_111">
<rect width="7.11649" height="6.82929" fill="white" transform="matrix(-1 2.75289e-08 3.67025e-08 1 460.682 628.182)"/>
</clipPath>
<clipPath id="clip35_22_111">
<rect width="6.04799" height="5.80393" fill="white" transform="matrix(-1 2.75289e-08 3.67025e-08 1 563.274 599.083)"/>
</clipPath>
<clipPath id="clip36_22_111">
<rect width="5.10561" height="4.89956" fill="white" transform="matrix(-1 2.75289e-08 3.67025e-08 1 740.801 563.409)"/>
</clipPath>
<clipPath id="clip37_22_111">
<rect width="7.40201" height="7.10329" fill="white" transform="matrix(-1 2.75289e-08 3.67025e-08 1 862.046 282.394)"/>
</clipPath>
<clipPath id="clip38_22_111">
<rect width="6.59344" height="6.32737" fill="white" transform="matrix(-1 2.75289e-08 3.67025e-08 1 508.506 595.411)"/>
</clipPath>
<clipPath id="clip39_22_111">
<rect width="5.78678" height="5.55324" fill="white" transform="matrix(-1 2.75289e-08 3.67025e-08 1 586.898 477.408)"/>
</clipPath>
<clipPath id="clip40_22_111">
<rect width="6.67795" height="6.40846" fill="white" transform="matrix(-1 2.75289e-08 3.67025e-08 1 895.921 141.044)"/>
</clipPath>
<clipPath id="clip41_22_111">
<rect width="15.3104" height="14.6926" fill="white" transform="matrix(-1 2.75289e-08 3.67025e-08 1 739.05 84.3961)"/>
</clipPath>
<clipPath id="clip42_22_111">
<rect width="8.69906" height="8.34801" fill="white" transform="matrix(-1 2.75289e-08 3.67025e-08 1 835.145 113.795)"/>
</clipPath>
<clipPath id="clip43_22_111">
<rect width="7.04222" height="6.75801" fill="white" transform="matrix(-1 2.75289e-08 3.67025e-08 1 457.948 243.275)"/>
</clipPath>
<clipPath id="clip44_22_111">
<rect width="5.77974" height="5.5465" fill="white" transform="matrix(-1 2.75289e-08 3.67025e-08 1 1001.77 26.1474)"/>
</clipPath>
<clipPath id="clip45_22_111">
<rect width="7.09088" height="6.80472" fill="white" transform="matrix(-1 2.75289e-08 3.67025e-08 1 180.054 58.6607)"/>
</clipPath>
<clipPath id="clip46_22_111">
<rect width="10.2637" height="9.84953" fill="white" transform="matrix(-1 2.75289e-08 3.67025e-08 1 363.578 149.313)"/>
</clipPath>
<clipPath id="clip47_22_111">
<rect width="6.31175" height="6.05703" fill="white" transform="matrix(-1 2.75289e-08 3.67025e-08 1 385.512 65.6222)"/>
</clipPath>
<clipPath id="clip48_22_111">
<rect width="6.05375" height="5.80943" fill="white" transform="matrix(-1 2.75289e-08 3.67025e-08 1 248.146 3.05998)"/>
</clipPath>
<clipPath id="clip49_22_111">
<rect width="9.75092" height="9.35739" fill="white" transform="matrix(-1 2.75289e-08 3.67025e-08 1 41.0431 84.0436)"/>
</clipPath>
<clipPath id="clip50_22_111">
<rect width="7.34888" height="7.05231" fill="white" transform="matrix(-1 2.75289e-08 3.67025e-08 1 43.09 190.73)"/>
</clipPath>
<clipPath id="clip51_22_111">
<rect width="8.80534" height="8.45001" fill="white" transform="matrix(-1 2.75289e-08 3.67025e-08 1 74.8164 -1.48029)"/>
</clipPath>
<clipPath id="clip52_22_111">
<rect width="11.0224" height="10.5775" fill="white" transform="matrix(-1 2.75289e-08 3.67025e-08 1 195.522 244.977)"/>
</clipPath>
<clipPath id="clip53_22_111">
<rect width="6.40202" height="6.14367" fill="white" transform="matrix(-1 2.75289e-08 3.67025e-08 1 111.134 405.134)"/>
</clipPath>
<clipPath id="clip54_22_111">
<rect width="6.201" height="5.95075" fill="white" transform="matrix(-1 2.75289e-08 3.67025e-08 1 100.613 592.486)"/>
</clipPath>
<clipPath id="clip55_22_111">
<rect width="5.88858" height="5.65095" fill="white" transform="matrix(-1 2.75289e-08 3.67025e-08 1 86.6904 710.955)"/>
</clipPath>
<clipPath id="clip56_22_111">
<rect width="5.56912" height="5.34437" fill="white" transform="matrix(-1 2.75289e-08 3.67025e-08 1 86.4792 786.845)"/>
</clipPath>
<clipPath id="clip57_22_111">
<rect width="6.50189" height="6.23951" fill="white" transform="matrix(-1 2.75289e-08 3.67025e-08 1 343.98 881.814)"/>
</clipPath>
<clipPath id="clip58_22_111">
<rect width="7.54606" height="7.24152" fill="white" transform="matrix(-1 2.75289e-08 3.67025e-08 1 405.912 769.698)"/>
</clipPath>
<clipPath id="clip59_22_111">
<rect width="7.68562" height="7.37546" fill="white" transform="matrix(-1 2.75289e-08 3.67025e-08 1 423.707 752.639)"/>
</clipPath>
<clipPath id="clip60_22_111">
<rect width="4.57808" height="4.39332" fill="white" transform="matrix(-1 2.75289e-08 3.67025e-08 1 655.021 757.651)"/>
</clipPath>
<clipPath id="clip61_22_111">
<rect width="4.66195" height="4.4738" fill="white" transform="matrix(-1 2.75289e-08 3.67025e-08 1 644.688 784.274)"/>
</clipPath>
<clipPath id="clip62_22_111">
<rect width="4.77015" height="4.57763" fill="white" transform="matrix(-1 2.75289e-08 3.67025e-08 1 651.905 939.262)"/>
</clipPath>
<clipPath id="clip63_22_111">
<rect width="6.7983" height="6.52395" fill="white" transform="matrix(-1 2.75289e-08 3.67025e-08 1 762.67 1076.13)"/>
</clipPath>
<clipPath id="clip64_22_111">
<rect width="4.564" height="4.37981" fill="white" transform="matrix(-1 2.75289e-08 3.67025e-08 1 867.743 902.96)"/>
</clipPath>
<clipPath id="clip65_22_111">
<rect width="9.77396" height="9.37952" fill="white" transform="matrix(-1 2.75289e-08 3.67025e-08 1 921.763 799.099)"/>
</clipPath>
<clipPath id="clip66_22_111">
<rect width="10.8604" height="10.4221" fill="white" transform="matrix(-1 2.75289e-08 3.67025e-08 1 922.267 780.687)"/>
</clipPath>
<clipPath id="clip67_22_111">
<rect width="4.32136" height="4.14697" fill="white" transform="matrix(-1 2.75289e-08 3.67025e-08 1 1035.52 879.906)"/>
</clipPath>
<clipPath id="clip68_22_111">
<rect width="5.31112" height="5.09677" fill="white" transform="matrix(-1 2.75289e-08 3.67025e-08 1 1244.91 892.659)"/>
</clipPath>
<clipPath id="clip69_22_111">
<rect width="5.11906" height="4.91246" fill="white" transform="matrix(-1 2.75289e-08 3.67025e-08 1 1388.75 915.876)"/>
</clipPath>
<clipPath id="clip70_22_111">
<rect width="5.00254" height="4.80066" fill="white" transform="matrix(-1 2.75289e-08 3.67025e-08 1 1491.58 685.499)"/>
</clipPath>
<clipPath id="clip71_22_111">
<rect width="4.53903" height="4.35585" fill="white" transform="matrix(-1 2.75289e-08 3.67025e-08 1 1391.97 866.593)"/>
</clipPath>
<clipPath id="clip72_22_111">
<rect width="10.9724" height="10.5296" fill="white" transform="matrix(-1 2.75289e-08 3.67025e-08 1 1227.24 1054.47)"/>
</clipPath>
<clipPath id="clip73_22_111">
<rect width="5.61457" height="5.38799" fill="white" transform="matrix(-1 2.75289e-08 3.67025e-08 1 672.858 1014.1)"/>
</clipPath>
<clipPath id="clip74_22_111">
<rect width="4.73557" height="4.54446" fill="white" transform="matrix(-1 2.75289e-08 3.67025e-08 1 651.895 928.278)"/>
</clipPath>
<clipPath id="clip75_22_111">
<rect width="6.41098" height="6.15226" fill="white" transform="matrix(-1 2.75289e-08 3.67025e-08 1 450.349 960.886)"/>
</clipPath>
<clipPath id="clip76_22_111">
<rect width="6.02046" height="5.77748" fill="white" transform="matrix(-1 2.75289e-08 3.67025e-08 1 408.934 1043.82)"/>
</clipPath>
<clipPath id="clip77_22_111">
<rect width="6.15618" height="5.90772" fill="white" transform="matrix(-1 2.75289e-08 3.67025e-08 1 415.953 1016.93)"/>
</clipPath>
<clipPath id="clip78_22_111">
<rect width="6.12097" height="5.87394" fill="white" transform="matrix(-1 2.75289e-08 3.67025e-08 1 223.861 960.964)"/>
</clipPath>
<clipPath id="clip79_22_111">
<rect width="5.83992" height="5.60425" fill="white" transform="matrix(-1 2.75289e-08 3.67025e-08 1 165.546 829.445)"/>
</clipPath>
<clipPath id="clip80_22_111">
<rect width="5.79959" height="5.56554" fill="white" transform="matrix(-1 2.75289e-08 3.67025e-08 1 114.083 931.435)"/>
</clipPath>
<clipPath id="clip81_22_111">
<rect width="11.5518" height="11.0856" fill="white" transform="matrix(-1 2.75289e-08 3.67025e-08 1 17.4359 1054.17)"/>
</clipPath>
<clipPath id="clip82_22_111">
<rect width="6.68307" height="6.41335" fill="white" transform="matrix(-1 2.75289e-08 3.67025e-08 1 1482.25 566.154)"/>
</clipPath>
<clipPath id="clip83_22_111">
<rect width="9.02492" height="8.66072" fill="white" transform="matrix(-1 2.75289e-08 3.67025e-08 1 1390.69 591.272)"/>
</clipPath>
<clipPath id="clip84_22_111">
<rect width="8.07999" height="7.75391" fill="white" transform="matrix(-1 2.75289e-08 3.67025e-08 1 1366.05 631.517)"/>
</clipPath>
<clipPath id="clip85_22_111">
<rect width="4.201" height="4.03146" fill="white" transform="matrix(-1 2.75289e-08 3.67025e-08 1 1330.15 814.238)"/>
</clipPath>
<clipPath id="clip86_22_111">
<rect width="4.28359" height="4.11072" fill="white" transform="matrix(-1 2.75289e-08 3.67025e-08 1 1309.55 761.261)"/>
</clipPath>
<clipPath id="clip87_22_111">
<rect width="4.26759" height="4.09536" fill="white" transform="matrix(-1 2.75289e-08 3.67025e-08 1 1292.19 791.132)"/>
</clipPath>
<clipPath id="clip88_22_111">
<rect width="4.42636" height="4.24772" fill="white" transform="matrix(-1 2.75289e-08 3.67025e-08 1 1063.31 889.84)"/>
</clipPath>
<clipPath id="clip89_22_111">
<rect width="4.77271" height="4.5801" fill="white" transform="matrix(-1 2.75289e-08 3.67025e-08 1 1183.04 662.439)"/>
</clipPath>
<clipPath id="clip90_22_111">
<rect width="8.67665" height="8.32649" fill="white" transform="matrix(-1 2.75289e-08 3.67025e-08 1 927.95 703.212)"/>
</clipPath>
<clipPath id="clip91_22_111">
<rect width="5.33865" height="5.1232" fill="white" transform="matrix(-1 2.75289e-08 3.67025e-08 1 1022.39 586.296)"/>
</clipPath>
<clipPath id="clip92_22_111">
<rect width="4.80343" height="4.60958" fill="white" transform="matrix(-1 2.75289e-08 3.67025e-08 1 1053.1 662.396)"/>
</clipPath>
<clipPath id="clip93_22_111">
<rect width="6.27206" height="6.01893" fill="white" transform="matrix(-1 2.75289e-08 3.67025e-08 1 1193.84 398.683)"/>
</clipPath>
<clipPath id="clip94_22_111">
<rect width="6.39306" height="6.13507" fill="white" transform="matrix(-1 2.75289e-08 3.67025e-08 1 1218.13 371.969)"/>
</clipPath>
<clipPath id="clip95_22_111">
<rect width="7.8732" height="7.55545" fill="white" transform="matrix(-1 2.75289e-08 3.67025e-08 1 1293.95 269.446)"/>
</clipPath>
<clipPath id="clip96_22_111">
<rect width="6.40202" height="6.14367" fill="white" transform="matrix(-1 2.75289e-08 3.67025e-08 1 1087.91 345.533)"/>
</clipPath>
<clipPath id="clip97_22_111">
<rect width="6.36873" height="6.11172" fill="white" transform="matrix(-1 2.75289e-08 3.67025e-08 1 1060.23 372.172)"/>
</clipPath>
<clipPath id="clip98_22_111">
<rect width="6.1056" height="5.85919" fill="white" transform="matrix(-1 2.75289e-08 3.67025e-08 1 1080.89 194.142)"/>
</clipPath>
<clipPath id="clip99_22_111">
<rect width="6.19779" height="5.94765" fill="white" transform="matrix(-1 2.75289e-08 3.67025e-08 1 1036.25 230.49)"/>
</clipPath>
<clipPath id="clip100_22_111">
<rect width="5.91162" height="5.67304" fill="white" transform="matrix(-1 2.75289e-08 3.67025e-08 1 1019.05 121.647)"/>
</clipPath>
<clipPath id="clip101_22_111">
<rect width="6.39306" height="6.13507" fill="white" transform="matrix(-1 2.75289e-08 3.67025e-08 1 940.561 167.654)"/>
</clipPath>
<clipPath id="clip102_22_111">
<rect width="6.63633" height="6.36853" fill="white" transform="matrix(-1 2.75289e-08 3.67025e-08 1 899.322 213.789)"/>
</clipPath>
<clipPath id="clip103_22_111">
<rect width="6.00125" height="5.75906" fill="white" transform="matrix(-1 2.75289e-08 3.67025e-08 1 930.22 474.167)"/>
</clipPath>
<clipPath id="clip104_22_111">
<rect width="6.44875" height="6.18849" fill="white" transform="matrix(-1 2.75289e-08 3.67025e-08 1 968.202 667.986)"/>
</clipPath>
<clipPath id="clip105_22_111">
<rect width="5.67347" height="5.44451" fill="white" transform="matrix(-1 2.75289e-08 3.67025e-08 1 850.958 642.097)"/>
</clipPath>
<clipPath id="clip106_22_111">
<rect width="4.38666" height="4.20964" fill="white" transform="matrix(-1 2.75289e-08 3.67025e-08 1 754.281 632.871)"/>
</clipPath>
<clipPath id="clip107_22_111">
<rect width="4.30216" height="4.12855" fill="white" transform="matrix(-1 2.75289e-08 3.67025e-08 1 713.02 675.689)"/>
</clipPath>
<clipPath id="clip108_22_111">
<rect width="4.26631" height="4.09413" fill="white" transform="matrix(-1 2.75289e-08 3.67025e-08 1 740.588 741.61)"/>
</clipPath>
<clipPath id="clip109_22_111">
<rect width="5.701" height="5.47092" fill="white" transform="matrix(-1 2.75289e-08 3.67025e-08 1 847.49 859.468)"/>
</clipPath>
<clipPath id="clip110_22_111">
<rect width="4.23045" height="4.05972" fill="white" transform="matrix(-1 2.75289e-08 3.67025e-08 1 864.202 975.371)"/>
</clipPath>
<clipPath id="clip111_22_111">
<rect width="4.90523" height="4.70726" fill="white" transform="matrix(-1 2.75289e-08 3.67025e-08 1 830.271 1050.68)"/>
</clipPath>
<clipPath id="clip112_22_111">
<rect width="11.3047" height="10.8485" fill="white" transform="matrix(-1 2.75289e-08 3.67025e-08 1 779.814 417.387)"/>
</clipPath>
<clipPath id="clip113_22_111">
<rect width="12.6613" height="12.1503" fill="white" transform="matrix(-1 2.75289e-08 3.67025e-08 1 728.174 381.966)"/>
</clipPath>
<clipPath id="clip114_22_111">
<rect width="8.86936" height="8.51141" fill="white" transform="matrix(-1 2.75289e-08 3.67025e-08 1 838.516 334.075)"/>
</clipPath>
<clipPath id="clip115_22_111">
<rect width="6.53646" height="6.27268" fill="white" transform="matrix(-1 2.75289e-08 3.67025e-08 1 809.373 504.173)"/>
</clipPath>
<clipPath id="clip116_22_111">
<rect width="6.62545" height="6.35805" fill="white" transform="matrix(-1 2.75289e-08 3.67025e-08 1 861.585 473.31)"/>
</clipPath>
<clipPath id="clip117_22_111">
<rect width="7.78293" height="7.46886" fill="white" transform="matrix(-1 2.75289e-08 3.67025e-08 1 1401.13 511.137)"/>
</clipPath>
<clipPath id="clip118_22_111">
<rect width="8.2061" height="7.87494" fill="white" transform="matrix(-1 2.75289e-08 3.67025e-08 1 1425.31 346.248)"/>
</clipPath>
<clipPath id="clip119_22_111">
<rect width="8.17858" height="7.84853" fill="white" transform="matrix(-1 2.75289e-08 3.67025e-08 1 1417.47 261.712)"/>
</clipPath>
<clipPath id="clip120_22_111">
<rect width="9.9609" height="9.5589" fill="white" transform="matrix(-1 2.75289e-08 3.67025e-08 1 220.128 118.775)"/>
</clipPath>
<clipPath id="clip121_22_111">
<rect width="16.3264" height="15.6676" fill="white" transform="matrix(-1 2.75289e-08 3.67025e-08 1 311.084 192.585)"/>
</clipPath>
<clipPath id="clip122_22_111">
<rect width="9.70994" height="9.31806" fill="white" transform="matrix(-1 2.75289e-08 3.67025e-08 1 369.88 274.099)"/>
</clipPath>
<clipPath id="clip123_22_111">
<rect width="9.37063" height="8.99247" fill="white" transform="matrix(-1 2.75289e-08 3.67025e-08 1 365.627 279.314)"/>
</clipPath>
<clipPath id="clip124_22_111">
<rect width="5.7106" height="5.48014" fill="white" transform="matrix(-1 2.75289e-08 3.67025e-08 1 545.447 991.59)"/>
</clipPath>
<clipPath id="clip125_22_111">
<rect width="5.29959" height="5.08573" fill="white" transform="matrix(-1 2.75289e-08 3.67025e-08 1 593.073 922.545)"/>
</clipPath>
<clipPath id="clip126_22_111">
<rect width="6.40202" height="6.14367" fill="white" transform="matrix(-1 2.75289e-08 3.67025e-08 1 1632.97 906.852)"/>
</clipPath>
<clipPath id="clip127_22_111">
<rect width="6.40202" height="6.14367" fill="white" transform="matrix(-1 2.75289e-08 3.67025e-08 1 1727.03 829.353)"/>
</clipPath>
<clipPath id="clip128_22_111">
<rect width="6.40202" height="6.14367" fill="white" transform="matrix(-1 2.75289e-08 3.67025e-08 1 1769.27 1061.57)"/>
</clipPath>
<clipPath id="clip129_22_111">
<rect width="6.40202" height="6.14367" fill="white" transform="matrix(-1 2.75289e-08 3.67025e-08 1 1871.85 984.287)"/>
</clipPath>
<clipPath id="clip130_22_111">
<rect width="6.40202" height="6.14367" fill="white" transform="matrix(-1 2.75289e-08 3.67025e-08 1 1880.29 747.72)"/>
</clipPath>
<clipPath id="clip131_22_111">
<rect width="6.40202" height="6.14367" fill="white" transform="matrix(-1 2.75289e-08 3.67025e-08 1 1918.53 474.105)"/>
</clipPath>
<clipPath id="clip132_22_111">
<rect width="6.40202" height="6.14367" fill="white" transform="matrix(-1 2.75289e-08 3.67025e-08 1 1884.37 412.731)"/>
</clipPath>
<clipPath id="clip133_22_111">
<rect width="6.40202" height="6.14367" fill="white" transform="matrix(-1 2.75289e-08 3.67025e-08 1 1705.34 788.244)"/>
</clipPath>
<clipPath id="clip134_22_111">
<rect width="6.40202" height="6.14367" fill="white" transform="matrix(-1 2.75289e-08 3.67025e-08 1 1645.75 849.544)"/>
</clipPath>
<clipPath id="clip135_22_111">
<rect width="6.48141" height="6.21983" fill="white" transform="matrix(-1 2.75289e-08 3.67025e-08 1 1552.53 992.839)"/>
</clipPath>
<clipPath id="clip136_22_111">
<rect width="6.39626" height="6.13812" fill="white" transform="matrix(-1 2.75289e-08 3.67025e-08 1 1539.06 980.002)"/>
</clipPath>
<clipPath id="clip137_22_111">
<rect width="5.91995" height="5.68103" fill="white" transform="matrix(-1 2.75289e-08 3.67025e-08 1 1590.28 743.702)"/>
</clipPath>
<clipPath id="clip138_22_111">
<rect width="5.85913" height="5.62267" fill="white" transform="matrix(-1 2.75289e-08 3.67025e-08 1 1615.89 617.227)"/>
</clipPath>
<clipPath id="clip139_22_111">
<rect width="6.41034" height="6.15165" fill="white" transform="matrix(-1 2.75289e-08 3.67025e-08 1 1696.97 964.119)"/>
</clipPath>
<clipPath id="clip140_22_111">
<rect width="6.40202" height="6.14367" fill="white" transform="matrix(-1 2.75289e-08 3.67025e-08 1 1807.95 939.355)"/>
</clipPath>
<clipPath id="clip141_22_111">
<rect width="6.40202" height="6.14367" fill="white" transform="matrix(-1 2.75289e-08 3.67025e-08 1 1722.72 918.997)"/>
</clipPath>
<clipPath id="clip142_22_111">
<rect width="6.36617" height="6.10927" fill="white" transform="matrix(-1 2.75289e-08 3.67025e-08 1 1739.9 775.956)"/>
</clipPath>
<clipPath id="clip143_22_111">
<rect width="6.40202" height="6.14367" fill="white" transform="matrix(-1 2.75289e-08 3.67025e-08 1 1777.81 490.243)"/>
</clipPath>
<clipPath id="clip144_22_111">
<rect width="6.40202" height="6.14367" fill="white" transform="matrix(-1 2.75289e-08 3.67025e-08 1 1760.87 282.233)"/>
</clipPath>
<clipPath id="clip145_22_111">
<rect width="6.40202" height="6.14367" fill="white" transform="matrix(-1 2.75289e-08 3.67025e-08 1 1773.5 159.802)"/>
</clipPath>
<clipPath id="clip146_22_111">
<rect width="6.40202" height="6.14367" fill="white" transform="matrix(-1 2.75289e-08 3.67025e-08 1 1812.09 519.008)"/>
</clipPath>
<clipPath id="clip147_22_111">
<rect width="6.3969" height="6.13873" fill="white" transform="matrix(-1 2.75289e-08 3.67025e-08 1 1837.21 654.069)"/>
</clipPath>
<clipPath id="clip148_22_111">
<rect width="6.40202" height="6.14367" fill="white" transform="matrix(-1 2.75289e-08 3.67025e-08 1 1871.81 592.338)"/>
</clipPath>
<clipPath id="clip149_22_111">
<rect width="6.40202" height="6.14367" fill="white" transform="matrix(-1 2.75289e-08 3.67025e-08 1 1850.87 645.364)"/>
</clipPath>
<clipPath id="clip150_22_111">
<rect width="6.36681" height="6.10988" fill="white" transform="matrix(-1 2.75289e-08 3.67025e-08 1 1769.23 653.72)"/>
</clipPath>
<clipPath id="clip151_22_111">
<rect width="6.23493" height="5.98331" fill="white" transform="matrix(-1 2.75289e-08 3.67025e-08 1 1688.38 535.391)"/>
</clipPath>
<clipPath id="clip152_22_111">
<rect width="6.40202" height="6.14367" fill="white" transform="matrix(-1 2.75289e-08 3.67025e-08 1 1676.14 326.916)"/>
</clipPath>
<clipPath id="clip153_22_111">
<rect width="6.40202" height="6.14367" fill="white" transform="matrix(-1 2.75289e-08 3.67025e-08 1 1654.36 339.462)"/>
</clipPath>
<clipPath id="clip154_22_111">
<rect width="6.40202" height="6.14367" fill="white" transform="matrix(-1 2.75289e-08 3.67025e-08 1 1607.67 376.237)"/>
</clipPath>
<clipPath id="clip155_22_111">
<rect width="6.71572" height="6.44469" fill="white" transform="matrix(-1 2.75289e-08 3.67025e-08 1 1569.46 285.864)"/>
</clipPath>
<clipPath id="clip156_22_111">
<rect width="6.65938" height="6.39065" fill="white" transform="matrix(-1 2.75289e-08 3.67025e-08 1 1552.45 445.508)"/>
</clipPath>
<clipPath id="clip157_22_111">
<rect width="6.89625" height="6.61796" fill="white" transform="matrix(-1 2.75289e-08 3.67025e-08 1 1535.44 351.348)"/>
</clipPath>
<clipPath id="clip158_22_111">
<rect width="6.40202" height="6.14367" fill="white" transform="matrix(-1 2.75289e-08 3.67025e-08 1 1586.03 86.0888)"/>
</clipPath>
<clipPath id="clip159_22_111">
<rect width="6.40202" height="6.14367" fill="white" transform="matrix(-1 2.75289e-08 3.67025e-08 1 1760.63 98.3557)"/>
</clipPath>
<clipPath id="clip160_22_111">
<rect width="6.40202" height="6.14367" fill="white" transform="matrix(-1 2.75289e-08 3.67025e-08 1 1816.39 270.015)"/>
</clipPath>
<clipPath id="clip161_22_111">
<rect width="6.40202" height="6.14367" fill="white" transform="matrix(-1 2.75289e-08 3.67025e-08 1 1871.6 168.075)"/>
</clipPath>
<clipPath id="clip162_22_111">
<rect width="6.40202" height="6.14367" fill="white" transform="matrix(-1 2.75289e-08 3.67025e-08 1 1858.75 94.6096)"/>
</clipPath>
<clipPath id="clip163_22_111">
<rect width="6.40202" height="6.14367" fill="white" transform="matrix(-1 2.75289e-08 3.67025e-08 1 1854.36 65.5233)"/>
</clipPath>
<clipPath id="clip164_22_111">
<rect width="6.48972" height="6.22781" fill="white" transform="matrix(-1 2.75289e-08 3.67025e-08 1 1628.87 188.102)"/>
</clipPath>
<clipPath id="clip165_22_111">
<rect width="6.41866" height="6.15964" fill="white" transform="matrix(-1 2.75289e-08 3.67025e-08 1 1633.02 57.4666)"/>
</clipPath>
</defs>
</svg>
